<?xml version="1.0" standalone="no"?>
<!DOCTYPE svg PUBLIC "-//W3C//DTD SVG 20010904//EN"
 "http://www.w3.org/TR/2001/REC-SVG-20010904/DTD/svg10.dtd">
<svg version="1.0" xmlns="http://www.w3.org/2000/svg"
 width="2560.000000pt" height="1711.000000pt" viewBox="0 0 2560.000000 1711.000000"
 preserveAspectRatio="xMidYMid meet">
<metadata>
Created by potrace 1.16, written by Peter Selinger 2001-2019
</metadata>
<g transform="translate(0.000000,1711.000000) scale(0.100000,-0.100000)"
fill="#000000" stroke="none">
<path d="M0 8555 l0 -8555 12410 0 12409 0 16 30 c8 16 15 31 15 35 0 9 -38 5
-42 -5 -2 -6 -8 -6 -18 0 -13 9 -13 11 0 20 12 8 13 13 2 30 -7 11 -8 20 -3
20 5 0 12 -6 14 -12 4 -10 8 -9 16 2 15 21 13 46 -4 64 -19 19 -19 65 0 90 19
25 19 36 0 36 -8 0 -15 9 -15 19 0 10 -6 21 -14 24 -9 4 -12 15 -9 31 6 30 23
46 23 22 0 -9 5 -16 11 -16 7 0 8 7 4 18 -15 34 -17 62 -6 62 6 0 11 9 11 20
0 11 -4 20 -10 20 -5 0 -10 -9 -10 -20 0 -11 -4 -20 -10 -20 -11 0 -14 59 -4
84 3 8 12 12 20 9 9 -3 14 2 14 15 0 27 -17 38 -22 15 -3 -16 -4 -17 -10 -1
-4 10 2 26 17 43 20 21 22 27 10 31 -18 7 -20 34 -2 34 9 0 9 2 -1 9 -10 6
-11 19 -6 46 5 27 4 36 -5 31 -7 -5 -9 -1 -5 8 3 9 11 16 18 16 6 0 5 4 -3 9
-8 5 -12 18 -8 30 4 16 1 21 -14 21 -24 0 -24 11 1 33 11 9 20 24 20 32 0 8 5
15 10 15 6 0 10 5 10 11 0 8 -4 8 -14 0 -11 -9 -19 -9 -35 1 -27 16 -27 31 -1
23 11 -4 20 -2 20 4 0 6 7 8 15 5 10 -4 15 0 15 10 0 12 -6 15 -25 10 -15 -4
-25 -2 -25 5 0 6 6 11 13 11 7 1 4 7 -7 15 -18 14 -18 15 8 24 25 10 37 41 16
41 -14 0 -12 22 6 58 9 18 14 47 11 69 l-4 38 -1 -42 c-2 -45 -22 -61 -22 -18
0 15 -6 25 -14 25 -8 0 -16 7 -20 15 -4 10 1 15 14 15 24 0 26 22 5 40 -21 17
-20 60 2 60 15 0 14 2 -3 14 -16 12 -17 17 -6 28 11 11 16 10 28 -6 8 -11 14
-28 14 -38 0 -10 4 -18 9 -18 10 0 -6 71 -18 80 -34 27 -55 205 -26 217 20 7
19 23 -2 23 -15 0 -14 2 3 14 19 15 19 15 0 29 -19 14 -19 14 0 25 18 11 18
11 1 12 -23 0 -17 25 6 25 25 0 31 13 16 31 -11 13 -11 18 -1 21 6 3 12 14 12
25 0 14 -5 18 -17 14 -10 -3 -25 -1 -33 4 -12 8 -11 11 8 16 17 5 21 12 17 28
-2 11 -2 15 1 9 12 -26 24 -12 24 26 0 23 -5 41 -12 44 -10 3 -10 11 -1 37 10
27 10 36 0 42 -9 5 -7 15 7 40 14 22 16 33 8 36 -16 5 -16 82 0 82 9 0 9 3 0
12 -10 10 -15 10 -22 -2 -5 -8 -12 -12 -15 -8 -10 9 5 49 15 43 5 -3 11 -1 15
5 3 5 1 10 -4 10 -6 0 -11 9 -11 20 0 13 7 20 20 20 29 0 24 19 -7 26 l-26 7
21 18 c29 23 32 94 5 87 -16 -4 -18 1 -14 39 2 27 8 43 16 43 10 0 11 7 5 32
-6 19 -6 36 0 43 6 7 5 16 -2 23 -9 9 -9 12 3 12 10 1 9 5 -5 15 -18 14 -18
16 -4 28 9 6 19 29 22 49 6 35 5 38 -16 39 l-23 0 23 11 c27 13 41 56 21 68
-10 7 -10 12 -1 22 9 11 8 19 -4 36 -14 20 -14 22 3 22 11 0 24 -5 31 -12 9
-9 12 -5 12 20 0 22 5 32 15 32 20 0 19 10 -2 26 -16 11 -16 16 -5 34 10 17
11 25 1 36 -6 8 -8 18 -4 22 4 4 10 1 12 -5 3 -7 11 -13 19 -13 8 0 14 -9 14
-20 0 -11 -7 -20 -15 -20 -8 0 -15 -5 -15 -11 0 -7 12 -10 28 -7 33 5 40 -18
13 -40 -15 -11 -14 -13 2 -26 12 -9 17 -27 17 -60 0 -25 5 -46 10 -46 6 0 10
-4 10 -10 0 -5 -9 -10 -20 -10 -11 0 -20 -7 -20 -16 0 -11 6 -14 20 -9 21 7
28 -10 8 -18 -10 -4 -10 -6 0 -6 15 -1 17 -81 1 -81 -20 0 -2 -73 23 -92 22
-17 23 -17 4 -31 -19 -14 -19 -14 0 -26 17 -11 17 -12 -6 -7 -29 6 -59 -7 -41
-18 6 -4 11 -2 11 3 0 23 17 9 28 -22 16 -45 15 -50 -8 -44 -21 5 -28 -7 -10
-18 13 -8 13 -45 0 -45 -5 0 -10 -18 -10 -41 0 -32 3 -40 15 -36 19 8 31 -13
14 -24 -14 -8 -12 -10 13 -13 21 -2 20 -26 -1 -26 -28 0 -27 -27 2 -33 l22 -4
-22 -2 c-28 -1 -31 -31 -3 -31 16 0 19 -6 16 -27 -1 -16 -10 -42 -19 -60 -23
-44 -21 -60 8 -67 31 -8 32 -21 3 -31 -22 -7 -22 -8 7 -15 24 -6 26 -8 8 -9
-19 -1 -23 -7 -23 -36 0 -20 7 -46 16 -60 18 -27 5 -65 -22 -65 -8 0 -13 -4
-9 -10 3 -5 12 -7 20 -3 11 4 15 -3 15 -27 0 -24 -4 -31 -15 -27 -8 4 -17 2
-20 -3 -4 -6 6 -10 20 -10 23 0 25 -3 20 -23 -4 -12 -14 -28 -24 -36 -12 -10
-13 -15 -3 -18 7 -3 12 -25 12 -59 0 -31 5 -64 11 -76 8 -14 7 -28 -1 -48 -7
-16 -8 -34 -4 -41 11 -18 12 -60 3 -86 -6 -16 -4 -23 9 -26 9 -3 2 -5 -15 -6
-18 0 -33 -5 -33 -11 0 -5 15 -10 33 -10 27 -1 29 -2 14 -11 -14 -8 -15 -14
-7 -24 8 -10 8 -15 0 -20 -8 -5 -6 -12 5 -25 15 -16 14 -18 -2 -24 -11 -5 -14
-10 -7 -14 8 -5 9 -35 4 -97 -4 -49 -6 -102 -3 -117 4 -20 1 -27 -13 -30 -17
-3 -16 -6 9 -29 30 -29 35 -49 12 -49 -12 0 -15 -16 -15 -80 0 -54 -4 -80 -12
-80 -6 0 -3 -9 7 -20 13 -14 15 -24 8 -31 -5 -5 -8 -32 -5 -59 3 -36 1 -50 -8
-50 -8 0 -9 -4 -4 -12 11 -16 11 -39 1 -55 -6 -9 -1 -13 13 -13 12 0 19 -4 16
-9 -3 -5 -15 -7 -26 -4 -17 5 -20 0 -21 -28 -1 -19 0 -44 1 -56 2 -35 -13 -53
-20 -23 -4 14 -6 -8 -6 -47 1 -50 5 -73 13 -73 7 0 14 18 16 42 l4 43 1 -46
c2 -34 -2 -48 -13 -53 -18 -7 -20 -45 -2 -51 8 -4 11 -21 9 -50 -3 -37 -1 -45
13 -45 15 0 15 -3 5 -15 -7 -9 -19 -14 -27 -11 -9 4 -13 -3 -13 -19 l0 -24
320 -1 320 0 0 5572 c-1 4619 -3 5570 -14 5556 -12 -17 -14 -16 -24 5 -10 22
-10 22 -21 -8 -11 -28 -14 -30 -58 -26 -38 3 -45 1 -40 -12 4 -10 1 -14 -7
-11 -19 7 -68 -14 -83 -37 -10 -14 -21 -17 -39 -13 -18 5 -24 2 -24 -10 0 -19
-5 -20 -30 -6 -13 7 -21 6 -30 -4 -6 -8 -30 -18 -53 -22 l-42 -7 30 -13 c17
-7 25 -13 18 -14 -7 0 -10 -7 -7 -15 5 -11 -1 -15 -21 -15 -20 0 -26 4 -21 15
7 19 -3 19 -23 1 -20 -16 -68 -29 -74 -18 -2 4 -2 2 -1 -5 5 -20 -24 -36 -56
-31 -16 3 -30 1 -30 -4 0 -4 5 -8 10 -8 6 0 10 -4 10 -10 0 -5 -5 -9 -12 -7
-6 1 -14 -9 -18 -23 -5 -20 -7 -22 -12 -8 -9 22 -48 12 -48 -13 0 -11 -4 -19
-10 -19 -5 0 -10 5 -10 10 0 19 -28 10 -33 -10 -3 -12 -14 -20 -25 -20 -12 0
-24 -4 -27 -10 -3 -5 2 -10 11 -10 33 0 0 -20 -38 -22 -20 -2 -34 -5 -32 -7 8
-8 -31 -30 -53 -31 -14 0 -23 -6 -23 -15 0 -11 -11 -15 -40 -15 -35 0 -40 -3
-40 -23 0 -28 -44 -52 -114 -62 -38 -6 -46 -11 -46 -28 0 -16 3 -18 12 -9 17
17 39 15 32 -3 -5 -11 -18 -13 -65 -8 -39 4 -59 2 -59 -5 0 -6 -25 -16 -56
-22 -47 -10 -62 -9 -105 6 -27 10 -49 24 -49 31 0 23 -26 14 -40 -14 l-14 -28
-4 27 c-4 35 -30 44 -42 15 -6 -15 -9 -17 -9 -6 -1 13 -13 17 -57 18 -41 1
-60 6 -70 18 -10 15 -27 18 -102 17 -87 -1 -91 0 -96 22 -8 30 -22 31 -32 2
l-7 -22 -18 23 c-15 18 -19 19 -19 7 0 -20 -24 -21 -44 -1 -16 17 -36 20 -36
6 0 -5 -16 -4 -37 2 -28 9 -37 9 -40 0 -4 -10 -9 -9 -24 0 -15 9 -23 9 -39 -1
-12 -7 -20 -8 -20 -2 0 17 -87 12 -94 -6 -7 -19 -26 -9 -26 15 0 28 -99 43
-141 21 -13 -7 -25 -7 -38 0 -26 13 -66 -2 -66 -25 0 -12 -9 -19 -27 -21 -47
-5 -65 -13 -76 -37 -9 -18 -11 -19 -11 -4 -1 24 -16 21 -46 -10 -18 -20 -28
-24 -33 -16 -5 8 -13 9 -22 3 -8 -6 -25 -10 -37 -10 -13 0 -23 -6 -23 -14 0
-8 -9 -18 -20 -21 -11 -3 -20 -11 -20 -16 0 -5 -9 -9 -20 -9 -11 0 -20 -5 -20
-11 0 -6 -6 -9 -12 -6 -19 7 -53 -8 -54 -24 -2 -31 -5 -35 -26 -36 -12 -1 -28
3 -34 8 -9 7 -17 4 -27 -13 -25 -38 -31 -69 -16 -80 10 -6 6 -7 -11 -2 -14 4
-26 10 -28 15 -4 9 -42 -12 -42 -23 0 -5 9 -8 21 -8 23 0 21 -25 -2 -25 -8 0
-20 -4 -26 -8 -7 -5 -18 -5 -23 -2 -6 4 -18 1 -26 -6 -12 -10 -12 -14 -2 -21
9 -6 5 -7 -9 -3 -23 6 -32 -8 -13 -20 16 -10 12 -55 -5 -55 -9 0 -15 9 -15 21
0 12 -5 19 -12 16 -7 -2 -13 -14 -13 -26 0 -13 -8 -29 -18 -36 -9 -7 -17 -22
-17 -34 0 -33 -27 -25 -35 12 -6 32 -7 32 -16 8 -5 -14 -7 -31 -4 -39 3 -10 0
-12 -10 -8 -19 7 -33 -40 -16 -57 16 -16 14 -27 -4 -21 -8 4 -15 12 -15 19 0
23 -18 26 -30 5 -8 -16 -7 -23 10 -37 21 -19 27 -43 10 -43 -6 0 -14 8 -17 18
-10 27 -23 31 -52 14 -25 -14 -27 -19 -23 -74 4 -47 1 -63 -14 -79 -15 -17
-16 -24 -6 -40 11 -17 9 -19 -18 -19 -26 0 -30 -3 -25 -22 12 -53 21 -146 15
-164 -5 -14 -8 -11 -13 15 -4 19 -7 44 -7 58 0 13 -11 36 -25 51 l-26 27 10
-26 c12 -32 10 -179 -1 -179 -5 0 -4 -9 2 -19 13 -25 13 -64 0 -56 -21 13 -9
-6 27 -41 22 -23 32 -39 25 -42 -7 -2 -12 -21 -12 -43 0 -31 4 -39 18 -39 21
0 51 -68 34 -79 -5 -3 -12 -16 -16 -28 -6 -20 -5 -21 18 -10 14 7 26 18 26 25
0 6 10 12 23 12 20 -1 20 -2 4 -11 -18 -11 -23 -44 -8 -53 5 -3 7 -15 4 -26
-5 -18 0 -20 45 -20 36 0 52 -4 56 -16 10 -27 7 -29 -39 -26 l-45 4 7 -33 c3
-19 9 -45 13 -59 l7 -25 8 30 c19 80 22 83 30 28 4 -29 12 -53 17 -53 14 0 60
-49 54 -59 -3 -5 1 -14 9 -21 12 -10 15 -9 15 4 0 9 7 16 15 16 11 0 15 -11
15 -40 0 -36 3 -40 25 -40 20 0 25 -5 25 -25 0 -19 -5 -25 -22 -26 -21 -1 -21
-2 -3 -6 11 -3 23 -10 27 -17 4 -6 8 8 8 32 0 29 4 42 14 42 8 0 16 5 18 12 8
24 28 -4 28 -40 0 -52 10 -82 27 -82 10 0 12 -6 8 -19 -5 -16 0 -19 30 -23 40
-5 40 -5 19 17 -9 9 -13 19 -9 23 4 4 10 1 12 -5 3 -7 16 -13 29 -13 31 0 31
-13 -1 -30 -16 -8 -25 -22 -25 -37 0 -26 21 -31 40 -8 18 22 50 19 50 -5 0
-12 -5 -17 -14 -14 -8 3 -17 1 -21 -5 -4 -7 4 -11 20 -11 16 0 38 -12 57 -30
29 -29 68 -41 68 -20 0 6 9 10 20 10 38 0 21 -29 -22 -38 -42 -8 -41 -9 42
-17 110 -12 105 -12 103 2 -1 6 4 14 13 17 8 3 12 2 9 -4 -3 -6 3 -10 14 -10
12 0 21 -4 21 -9 0 -14 -46 -22 -144 -26 -110 -5 -126 -15 -23 -15 78 0 127
-12 127 -30 0 -14 -37 -12 -43 3 -7 21 -19 0 -12 -22 7 -24 33 -28 49 -6 8 11
24 13 69 8 47 -5 57 -9 57 -24 0 -15 -8 -19 -39 -19 -46 0 -55 -9 -42 -42 8
-20 10 -21 16 -5 4 9 15 17 25 17 10 0 20 6 23 13 2 6 8 8 13 4 5 -4 2 -12 -6
-17 -23 -14 -3 -24 45 -21 48 3 51 0 35 -28 -6 -13 -5 -27 3 -45 15 -32 21
-32 41 -1 29 44 46 32 46 -30 0 -51 7 -65 23 -48 4 3 3 11 -3 17 -6 8 -1 27
12 54 23 44 48 56 48 22 0 -11 -4 -20 -10 -20 -5 0 -10 -9 -10 -20 0 -11 5
-20 10 -20 6 0 10 -6 10 -14 0 -7 7 -27 16 -42 l16 -29 -7 40 c-4 22 -11 42
-16 43 -12 5 -12 32 1 32 6 0 10 -7 10 -15 0 -8 5 -15 10 -15 6 0 10 -7 10
-15 0 -8 5 -15 10 -15 6 0 10 14 10 30 0 17 5 30 10 30 6 0 10 -25 10 -55 0
-42 3 -55 15 -55 11 0 15 11 15 40 0 33 3 40 20 40 17 0 20 -7 20 -40 0 -33 3
-40 20 -40 11 0 20 -7 20 -15 0 -8 5 -15 10 -15 6 0 10 7 10 15 0 8 7 15 15
15 8 0 15 7 15 15 0 9 9 15 25 15 18 0 25 5 25 19 0 10 7 24 15 31 13 11 15 6
15 -33 0 -44 1 -45 37 -54 40 -9 57 -33 24 -33 -30 0 -36 -18 -8 -25 18 -5 28
-18 37 -48 9 -30 9 -42 1 -45 -13 -4 -15 -52 -3 -52 5 0 17 9 27 20 21 23 41
26 48 8 2 -7 8 -9 13 -5 4 4 3 17 -4 27 -15 24 -16 80 -2 80 6 0 10 -9 10 -19
0 -11 9 -23 20 -26 13 -4 20 -15 20 -31 0 -14 9 -34 20 -46 22 -24 26 -38 10
-38 -5 0 -10 -4 -10 -10 0 -18 17 -10 30 15 16 30 36 32 43 6 3 -13 -8 -33
-35 -61 -43 -44 -44 -56 -4 -46 17 4 23 11 20 21 -4 8 1 17 10 21 9 3 16 12
16 20 0 17 16 18 26 2 4 -6 0 -16 -9 -23 -10 -7 -17 -22 -17 -33 0 -12 -8 -23
-20 -27 -25 -8 -26 -25 -1 -25 12 0 21 10 26 27 6 26 21 42 37 43 3 0 4 -9 1
-20 -4 -14 0 -20 10 -20 9 0 18 8 20 18 3 11 5 7 6 -10 0 -14 -2 -33 -5 -42
-8 -22 -41 -20 -47 2 -3 10 -5 6 -6 -10 0 -16 -5 -28 -11 -28 -5 0 -10 -13
-10 -30 0 -16 5 -30 10 -30 6 0 10 14 10 30 0 26 4 30 26 30 14 0 33 7 41 16
11 10 26 14 45 10 15 -3 28 -1 28 4 0 12 39 -9 57 -30 11 -13 14 -13 23 0 5 8
10 10 10 4 0 -21 -46 -61 -78 -67 l-32 -6 0 44 c0 35 -4 45 -16 45 -13 0 -15
-9 -12 -45 2 -25 0 -45 -4 -45 -5 0 -8 -7 -8 -15 0 -19 56 -21 63 -2 2 7 16 0
35 -22 23 -23 32 -43 32 -66 0 -18 3 -40 6 -48 4 -13 -3 -15 -38 -11 l-43 3
40 -8 c30 -7 44 -6 55 5 10 10 10 14 2 14 -18 0 -15 18 7 41 16 17 20 18 31 4
10 -12 9 -16 -4 -21 -22 -9 -20 -17 9 -31 14 -6 25 -7 25 -3 0 5 -6 10 -12 13
-25 9 21 19 50 11 l27 -8 -27 -4 c-19 -2 -28 -9 -28 -21 0 -9 -6 -26 -14 -36
-7 -10 -12 -26 -10 -34 11 -59 16 -71 29 -71 11 0 15 -11 15 -39 0 -32 4 -41
20 -44 13 -3 11 -4 -6 -3 -15 0 -29 -5 -31 -11 -3 -9 6 -13 27 -13 26 0 31 -3
26 -17 -4 -9 -1 -20 6 -25 9 -5 4 -8 -14 -8 -37 0 -28 -22 20 -51 27 -17 33
-24 20 -26 -18 -5 -38 -51 -38 -92 -1 -25 -1 -25 -15 -7 -8 11 -15 37 -15 58
0 21 -5 38 -10 38 -7 0 -9 -13 -5 -32 3 -18 2 -50 -2 -70 l-8 -38 -29 15 c-32
17 -91 21 -66 5 13 -9 13 -10 0 -11 -8 -1 -22 -3 -30 -4 -8 -1 -22 -3 -30 -4
-13 -1 -13 -2 0 -11 11 -7 0 -10 -37 -10 -31 0 -53 5 -55 12 -3 9 -6 9 -12 0
-4 -7 -2 -12 3 -12 19 0 12 -25 -10 -38 -18 -11 -24 -11 -39 3 -11 10 -25 15
-32 12 -10 -4 -10 -6 0 -6 6 -1 12 -10 12 -20 0 -17 -5 -19 -37 -14 -21 3 -40
11 -42 16 -2 6 -12 -1 -22 -14 -10 -13 -19 -18 -19 -11 0 17 -20 15 -20 -3 0
-20 -89 -46 -113 -33 -25 13 -67 2 -67 -17 0 -11 -11 -15 -40 -15 -35 0 -40 3
-41 23 -1 17 -3 15 -11 -10 -10 -31 -38 -47 -38 -22 0 9 -4 8 -14 0 -8 -6 -27
-8 -46 -4 -23 4 -31 3 -26 -5 12 -21 -28 -32 -58 -16 -36 18 -46 18 -46 -2 0
-14 -9 -16 -50 -12 -28 3 -53 1 -56 -3 -3 -5 3 -9 12 -9 13 0 15 -3 8 -10 -6
-6 -43 -14 -82 -17 -56 -5 -72 -3 -72 7 0 9 -5 7 -14 -5 -12 -17 -16 -17 -31
-5 -14 12 -18 12 -26 -1 -7 -12 -9 -12 -9 1 0 13 -1 13 -10 0 -8 -12 -13 -13
-28 -3 -17 10 -23 8 -41 -13 -22 -26 -41 -24 -41 2 0 24 -44 13 -48 -11 -7
-43 -11 -48 -28 -34 -8 7 -13 21 -11 31 3 10 1 18 -4 18 -5 0 -9 -11 -9 -24 0
-14 -5 -28 -10 -31 -5 -3 -10 1 -10 11 0 13 -3 14 -15 4 -12 -10 -15 -7 -21
14 -9 37 -20 32 -30 -11 -4 -23 -9 -31 -11 -20 -5 19 -38 23 -49 6 -4 -8 -25
-9 -60 -5 -34 4 -54 2 -54 -4 0 -5 8 -10 18 -10 14 0 14 -2 3 -9 -8 -5 -20 -7
-27 -4 -6 2 -15 0 -19 -6 -9 -16 -18 -14 -43 9 -19 18 -22 18 -36 4 -12 -11
-20 -12 -34 -5 -16 8 -21 6 -30 -14 -12 -26 -27 -32 -36 -16 -7 10 -44 3 -63
-12 -9 -6 -17 -6 -25 1 -7 5 -34 14 -60 20 -39 8 -48 7 -48 -4 0 -8 9 -14 21
-14 11 0 18 -4 14 -9 -3 -5 -30 -7 -60 -4 -49 5 -55 4 -55 -13 -1 -18 -1 -18
-11 -1 -12 20 -35 22 -42 3 -4 -10 -18 -12 -51 -9 -33 4 -53 1 -72 -12 -19
-12 -29 -14 -37 -6 -15 15 -38 14 -34 -2 1 -8 -12 -12 -39 -13 -23 -1 -47 -5
-53 -9 -7 -4 -18 1 -26 11 -13 18 -14 18 -20 2 -6 -15 -20 -18 -91 -18 -73 0
-85 -3 -96 -20 -15 -24 -28 -26 -28 -5 0 8 -7 15 -15 15 -8 0 -15 -6 -15 -14
0 -17 -162 -34 -168 -17 -2 5 -9 8 -15 6 -7 -2 -24 -6 -39 -9 -16 -4 -28 -13
-28 -21 0 -18 -16 -19 -75 -4 -34 9 -58 8 -114 -5 -83 -19 -131 -21 -131 -4 0
6 -8 4 -19 -6 -12 -11 -21 -14 -26 -7 -7 12 -32 10 -53 -3 -8 -5 -18 -4 -24 2
-8 8 -18 6 -34 -5 -20 -13 -27 -13 -40 -2 -14 11 -18 11 -28 -1 -7 -10 -24
-14 -49 -12 -24 2 -48 -3 -64 -13 -18 -12 -28 -14 -36 -6 -16 16 -40 14 -33
-4 4 -10 -1 -15 -14 -15 -11 0 -20 6 -20 13 0 17 -37 39 -45 27 -3 -6 1 -10
10 -10 9 0 14 -3 11 -8 -2 -4 -26 -5 -53 -3 -26 3 -40 6 -30 9 9 2 17 7 17 12
0 13 -33 0 -43 -17 -10 -16 -39 -17 -55 -1 -9 9 -12 9 -12 -3 0 -11 -10 -16
-30 -16 -18 0 -30 6 -30 14 0 19 -37 16 -44 -3 -4 -11 -14 -15 -31 -12 -14 3
-25 2 -25 -2 0 -5 -20 -10 -45 -12 -33 -2 -44 0 -40 9 3 9 -7 13 -35 13 -33 0
-38 -3 -34 -17 5 -14 4 -15 -4 -4 -8 12 -31 13 -129 6 -65 -5 -139 -9 -165 -9
-27 0 -48 -5 -48 -10 0 -6 -5 -3 -11 7 -13 23 -34 22 -58 -4 l-19 -21 -12 22
c-10 19 -13 20 -28 7 -9 -8 -42 -17 -72 -21 -30 -4 -74 -10 -97 -13 -34 -4
-43 -3 -43 10 0 12 -11 14 -62 11 -88 -6 -149 -19 -159 -35 -6 -11 -9 -10 -15
4 -9 25 -64 23 -71 -3 -6 -23 -23 -27 -23 -5 0 12 -9 14 -37 10 -107 -13 -231
-16 -235 -4 -3 9 -9 8 -26 -2 -17 -11 -26 -11 -41 -2 -17 10 -18 9 -13 -9 5
-22 8 -22 -58 -2 -12 4 -20 2 -20 -5 0 -6 -16 -2 -36 10 -21 11 -40 16 -43 11
-9 -14 -122 -22 -143 -11 -12 7 -18 6 -18 -2 0 -8 -23 -9 -80 -4 -59 5 -80 4
-80 -5 0 -8 -24 -11 -82 -9 -46 1 -93 -1 -105 -6 -18 -6 -23 -4 -23 9 0 20
-24 21 -40 1 -9 -11 -16 -12 -26 -4 -7 6 -19 7 -26 3 -19 -12 -51 -12 -70 0
-12 7 -29 7 -60 -1 -34 -9 -49 -9 -76 3 -41 17 -52 18 -52 4 0 -5 8 -10 17
-10 12 0 14 -3 6 -11 -7 -7 -26 -6 -64 5 -65 20 -69 20 -69 1 0 -9 -9 -15 -25
-15 -14 0 -25 4 -25 9 0 5 -9 7 -19 4 -10 -3 -28 0 -40 6 -17 10 -21 9 -21 -4
0 -20 -17 -19 -29 3 -9 16 -11 16 -24 -3 -13 -17 -18 -18 -41 -7 -15 7 -54 12
-86 12 -54 0 -60 -2 -60 -21 0 -19 -1 -19 -22 -5 -26 18 -58 21 -58 6 0 -7 -7
-7 -20 0 -11 6 -26 8 -32 4 -6 -4 -33 -6 -60 -5 -28 1 -48 -2 -48 -9 0 -15
-19 -12 -36 5 -10 10 -32 14 -69 12 -41 -1 -55 2 -55 12 0 9 -6 11 -17 5 -34
-15 -135 -17 -145 -2 -7 10 -11 10 -15 1 -6 -16 -111 -17 -133 -3 -12 8 -12
10 -1 10 8 0 12 2 9 5 -3 3 -18 0 -32 -7 -22 -9 -32 -9 -47 0 -12 8 -19 8 -19
2 0 -7 -37 -10 -105 -8 -64 2 -104 7 -103 13 2 6 12 10 23 11 21 0 25 5 25 31
0 15 -1 15 -19 -1 -17 -15 -19 -15 -25 -1 -8 23 -8 27 4 20 6 -4 10 8 10 29 0
29 -4 36 -20 36 -11 0 -34 9 -52 20 -23 14 -51 20 -92 20 -57 0 -60 -1 -103
-46 -24 -26 -42 -52 -40 -58 6 -17 -12 -46 -28 -46 -8 0 -15 -6 -15 -13 0 -16
-51 -46 -67 -40 -7 3 -13 1 -13 -4 0 -4 -28 -9 -62 -10 -59 -2 -62 -3 -115
-55 -30 -29 -67 -72 -83 -96 -28 -42 -94 -102 -112 -102 -6 0 -25 -7 -43 -16
-18 -8 -48 -13 -67 -11 -24 3 -42 -2 -65 -20 -18 -13 -33 -22 -33 -19 0 3 -17
-3 -39 -14 -49 -26 -155 -36 -218 -21 -26 7 -66 24 -87 39 -54 37 -114 119
-118 162 -3 30 -7 35 -31 38 -16 2 -40 -4 -54 -13 -19 -13 -37 -15 -65 -11
-23 4 -46 2 -53 -4 -9 -7 -17 -1 -30 24 -17 31 -20 32 -46 22 -16 -5 -31 -16
-33 -23 -3 -7 -8 -65 -12 -130 -3 -65 -15 -154 -26 -198 -33 -134 -116 -289
-202 -375 -36 -36 -73 -126 -80 -195 -18 -164 -60 -296 -144 -454 -50 -95 -82
-184 -103 -291 -26 -130 -53 -234 -78 -304 -17 -48 -19 -62 -9 -71 18 -16 94
-42 146 -49 49 -7 157 -55 218 -97 128 -87 279 -294 329 -449 9 -30 21 -63 26
-72 18 -36 29 -250 31 -648 2 -411 2 -416 -21 -480 -30 -84 -99 -188 -181
-270 -61 -62 -138 -120 -159 -120 -5 0 -11 -4 -13 -9 -5 -14 -136 -71 -221
-97 -116 -35 -234 -47 -382 -41 -299 12 -539 122 -710 323 -102 120 -126 204
-145 510 -28 443 -28 663 1 814 7 36 29 102 50 147 35 76 105 183 129 198 33
20 -41 156 -93 169 -37 9 -199 119 -264 180 -110 102 -202 255 -237 393 -17
70 -37 421 -38 663 -1 128 4 196 16 255 34 159 45 188 161 417 l75 146 0 122
c0 66 -7 257 -16 423 -22 410 -8 527 81 711 65 134 220 333 298 384 23 15 44
29 47 32 3 4 22 16 43 29 20 12 37 26 37 31 0 5 12 15 28 23 15 8 53 29 86 46
32 17 85 36 117 42 38 7 59 17 59 25 0 8 6 14 13 14 21 0 57 74 57 116 0 50
18 114 38 137 16 18 62 24 62 7 0 -6 11 -3 24 5 23 16 40 48 37 72 -1 7 6 24
15 38 12 18 15 36 10 64 -4 27 -2 41 7 44 9 4 8 8 -3 17 -11 9 -12 13 -2 17 6
2 12 22 12 43 0 21 4 41 9 44 5 4 12 24 16 46 4 22 11 40 16 40 4 0 6 6 3 14
-3 7 2 20 10 29 9 9 16 31 16 50 0 18 3 37 8 41 8 9 11 34 12 128 0 37 7 85
15 107 8 23 15 62 17 88 1 26 10 64 20 85 10 21 18 59 18 90 0 50 -3 56 -55
111 -30 31 -58 57 -63 57 -6 0 -12 7 -16 15 -7 20 -46 20 -46 0 0 -8 -4 -15
-9 -15 -5 0 -11 -10 -14 -22 -6 -21 -7 -21 -25 -5 -10 9 -22 14 -25 10 -4 -3
-7 9 -7 28 0 19 -9 54 -20 78 -11 24 -20 49 -20 57 0 8 -4 14 -9 14 -4 0 -21
19 -36 43 -16 23 -34 46 -42 50 -7 5 -10 13 -7 19 4 6 1 16 -7 22 -22 17 -68
114 -75 156 -4 26 -11 37 -19 33 -10 -3 -12 2 -8 16 3 12 9 21 14 21 5 0 9 5
9 11 0 5 -5 7 -11 3 -9 -5 -10 1 -5 22 4 16 10 42 13 57 3 16 12 31 19 34 8 3
14 13 14 23 0 10 7 31 15 46 8 16 15 39 15 51 0 12 5 25 11 29 6 3 9 14 6 24
-2 9 -1 23 3 31 4 8 4 38 1 67 -4 29 -5 54 -3 57 6 5 11 57 16 165 5 96 24
216 38 244 6 11 10 52 9 93 -1 44 3 73 9 73 14 0 12 27 -2 33 -10 4 -10 7 0
15 9 6 13 33 13 86 0 42 4 76 9 76 5 0 10 28 10 63 1 34 1 90 2 124 0 35 -3
152 -7 260 -12 341 12 470 112 602 27 35 33 53 33 91 0 67 34 169 75 227 19
26 39 57 44 68 5 11 22 34 38 50 15 17 28 35 29 40 2 26 17 75 23 75 16 0 20
188 3 199 -6 3 -13 35 -16 69 -5 60 3 100 27 150 11 23 27 30 27 11 0 -5 11
-27 25 -47 14 -20 25 -44 25 -53 0 -9 13 -41 29 -71 16 -30 32 -74 34 -99 3
-24 11 -66 17 -94 6 -27 13 -63 15 -78 5 -36 34 -76 93 -127 l47 -42 0 -76 c0
-72 2 -80 38 -133 20 -31 37 -67 37 -81 0 -75 34 -208 74 -294 24 -50 48 -94
53 -97 18 -11 303 15 380 35 23 6 49 8 57 5 8 -3 25 4 38 17 14 14 38 23 63
25 22 1 83 6 137 9 53 4 114 4 135 -1 45 -10 140 -4 203 12 25 7 53 13 62 15
46 7 72 62 48 104 -14 24 -32 74 -35 93 -1 8 -10 25 -21 36 -37 39 -58 68 -60
83 -2 8 -5 31 -8 51 -6 35 -4 38 37 57 46 21 129 41 191 45 50 3 64 23 46 66
-7 17 -19 31 -26 31 -8 0 -22 4 -32 9 -9 5 -32 15 -50 21 -28 11 -132 116
-132 135 0 3 -7 13 -15 21 -16 16 -21 74 -7 74 4 0 14 16 21 35 17 48 75 105
106 105 14 0 25 -4 25 -10 0 -16 60 -12 66 4 7 19 -36 84 -60 90 -10 2 -15 9
-12 14 3 6 -5 9 -19 8 -16 0 -25 -7 -25 -18 0 -9 -10 -20 -22 -24 -16 -5 -28
1 -48 25 -15 17 -32 31 -37 31 -5 0 -15 17 -22 37 -8 20 -22 46 -33 57 -23 25
-16 70 15 104 11 12 17 22 12 22 -4 0 4 11 19 25 14 13 26 29 26 34 0 26 43 1
69 -41 35 -54 76 -71 101 -40 9 11 28 19 45 20 16 0 34 7 40 15 10 14 13 14
28 -4 9 -10 17 -32 17 -47 0 -15 4 -44 9 -64 9 -40 -3 -131 -19 -136 -6 -2
-10 -8 -10 -13 0 -5 -9 -18 -20 -29 -22 -22 -27 -79 -9 -97 13 -13 46 -98 59
-152 6 -25 4 -45 -6 -70 -9 -20 -18 -52 -20 -71 -2 -19 -9 -50 -16 -69 -10
-31 -8 -37 11 -52 12 -10 27 -33 33 -51 6 -18 22 -41 35 -51 44 -35 54 -136
19 -189 -14 -21 -16 -43 -13 -107 3 -45 1 -83 -3 -86 -10 -6 10 -76 27 -93 7
-7 13 -20 13 -28 0 -9 18 -46 39 -82 37 -62 55 -88 134 -200 29 -40 117 -285
117 -325 0 -13 4 -27 9 -33 8 -9 44 -109 46 -129 0 -5 6 -28 12 -50 12 -39 36
-133 53 -205 12 -52 18 -72 29 -105 5 -16 19 -64 31 -105 11 -41 27 -95 36
-120 8 -25 20 -65 25 -90 10 -50 32 -126 60 -210 10 -30 24 -75 30 -100 16
-57 14 -50 27 -83 7 -16 12 -31 12 -33 0 -3 10 -26 21 -52 12 -25 22 -51 23
-58 1 -7 8 -19 15 -28 13 -15 15 -15 32 -1 16 15 18 15 24 -4 3 -12 3 -25 0
-31 -8 -13 5 -13 25 0 10 6 11 10 3 10 -7 0 -13 5 -13 10 0 14 23 12 56 -5 33
-17 68 -20 59 -5 -4 6 -11 8 -16 5 -5 -4 -16 1 -24 9 -14 14 -13 16 10 22 14
3 30 14 35 23 8 14 9 13 10 -6 0 -14 6 -23 15 -23 8 0 15 4 15 9 0 5 18 12 40
16 22 4 40 10 40 15 0 19 73 80 96 80 19 0 23 5 21 23 -2 19 2 22 30 21 27 -2
33 3 44 30 7 17 18 34 23 38 6 4 11 13 11 20 0 8 9 12 23 10 16 -2 25 4 31 21
5 13 20 31 34 40 24 16 34 38 56 123 8 28 19 44 36 52 14 6 25 16 25 22 0 5
18 28 40 50 22 22 42 52 46 67 12 55 16 63 30 63 9 0 14 10 14 28 0 20 7 30
27 40 15 6 32 12 37 12 6 1 22 14 36 30 13 17 32 30 42 30 10 0 18 5 18 10 0
6 15 10 33 10 40 0 51 8 36 27 -6 7 -8 13 -3 14 5 1 17 2 26 3 10 0 18 4 18 9
0 4 12 19 26 32 26 24 39 29 74 26 10 0 11 1 2 5 -19 9 -4 24 24 24 13 0 24 5
24 10 0 6 -9 10 -20 10 -11 0 -20 5 -20 11 0 7 7 8 18 4 30 -11 37 -10 34 5
-2 8 0 12 4 8 4 -4 21 3 38 15 17 12 40 21 51 20 11 -2 14 0 8 3 -7 3 -13 12
-13 19 0 7 -6 15 -12 18 -7 2 -9 8 -5 13 4 5 11 4 15 -1 4 -6 16 -17 26 -25
18 -14 19 -13 14 8 -5 17 -2 22 12 22 11 0 22 5 25 10 3 6 15 10 26 10 10 0
19 5 19 11 0 5 6 7 12 3 16 -10 57 -11 86 -2 12 4 22 3 22 -2 0 -5 7 -7 15 -4
8 4 12 11 8 18 -5 7 -2 7 8 -1 16 -13 89 -7 89 7 0 5 25 6 55 4 48 -3 56 -1
66 18 11 21 12 21 27 -7 l15 -29 28 32 c29 32 49 41 49 22 0 -7 7 -7 20 0 11
6 25 8 30 5 5 -3 11 -2 14 3 3 5 19 7 36 4 18 -2 30 0 30 7 0 6 7 11 15 11 8
0 15 4 15 10 0 5 8 9 18 8 42 -3 62 3 63 20 0 10 3 12 6 5 8 -22 36 -15 30 7
-6 23 22 44 46 35 7 -3 20 1 27 10 7 8 21 15 31 15 21 0 26 16 7 23 -7 3 -4 6
8 6 11 1 29 10 39 21 10 11 24 20 32 20 7 0 13 10 13 22 0 12 3 18 6 15 4 -3
15 5 26 18 11 14 26 25 34 25 8 0 14 4 14 9 0 5 13 14 29 21 18 7 32 22 36 38
4 15 9 22 12 15 2 -6 32 16 66 50 35 34 80 75 100 91 23 17 36 34 33 42 -3 9
2 14 14 14 27 0 93 72 77 83 -7 5 -3 7 11 4 12 -3 22 -2 22 3 0 4 9 10 20 13
11 3 19 11 18 19 -2 9 10 14 35 16 38 3 50 18 20 24 -13 2 -8 9 19 25 26 15
36 27 32 38 -7 18 12 21 19 3 4 -8 8 -4 12 10 8 24 21 29 28 10 2 -7 7 2 11
20 4 18 11 30 16 27 13 -8 110 80 110 101 0 8 13 17 30 21 17 3 30 12 30 19 0
27 88 103 127 110 31 6 34 8 18 15 -12 4 -14 8 -6 8 8 1 32 20 54 43 22 23 46
43 54 44 28 4 62 34 57 49 -4 9 3 19 20 26 14 7 26 20 26 30 0 11 13 22 35 29
19 6 35 16 35 21 0 5 18 26 41 47 92 84 169 162 169 169 0 5 12 10 26 11 15 1
32 9 39 19 7 9 17 13 23 9 6 -4 18 6 27 24 10 19 24 30 38 31 17 1 18 2 5 6
-22 6 -23 19 -3 27 8 3 15 0 15 -7 1 -7 8 2 17 18 20 38 17 35 41 40 12 2 34
18 49 35 15 18 43 46 61 64 17 17 32 37 32 43 0 7 9 13 19 13 11 0 22 6 24 13
4 10 6 10 6 0 2 -22 19 -14 25 12 4 14 13 25 22 25 8 0 22 7 30 15 9 8 11 15
5 15 -6 0 -11 4 -11 10 0 5 26 17 57 26 48 14 55 19 41 27 -15 10 -14 12 5 22
12 6 26 20 32 33 6 14 16 20 26 17 11 -4 23 3 33 16 9 13 21 19 30 16 12 -5
16 0 16 19 0 26 20 54 40 54 6 0 22 11 36 25 14 14 31 25 39 25 8 0 15 7 15
15 0 18 16 20 23 3 3 -7 6 -1 6 15 1 15 6 27 11 27 6 0 15 11 21 24 6 13 28
31 50 39 22 9 39 22 39 30 0 8 7 17 15 21 8 3 15 9 14 13 -3 18 1 33 9 30 8
-2 25 11 68 51 14 12 33 22 42 22 23 0 42 19 42 43 0 10 4 16 10 12 12 -8 80
59 80 79 0 9 7 16 15 16 8 0 19 9 25 20 6 11 22 23 35 26 18 4 25 13 25 30 0
17 6 24 19 24 11 0 23 9 26 20 4 11 10 18 15 15 5 -3 17 -1 27 4 10 5 26 12
36 15 9 3 17 14 17 25 0 11 6 22 13 24 9 4 9 7 -1 15 -10 6 0 13 33 22 30 8
52 22 63 39 9 14 25 32 34 39 10 7 18 19 18 26 0 8 14 19 30 26 17 7 28 15 25
18 -7 8 28 31 47 32 10 0 20 10 23 23 3 12 22 33 41 46 19 14 40 33 45 43 7
14 16 17 32 12 21 -6 20 -5 -3 14 -19 16 -21 21 -9 22 24 0 69 39 63 54 -3 8
-1 17 4 20 5 3 12 -3 15 -14 7 -29 29 -16 51 30 18 38 36 52 36 30 0 -16 38
12 43 31 3 9 19 20 36 24 29 6 45 35 20 35 -6 0 4 14 22 32 19 18 38 31 43 30
16 -5 36 21 31 39 -6 19 10 35 20 19 11 -17 25 -11 25 10 0 11 8 24 18 27 9 4
22 14 29 23 7 10 25 23 41 29 16 7 33 24 39 42 7 19 22 33 42 40 17 6 31 15
31 20 0 5 8 9 17 9 20 0 73 48 73 66 0 6 7 14 15 18 8 3 15 12 15 21 0 8 5 15
10 15 6 0 15 11 20 25 8 20 15 24 33 20 22 -6 23 -4 19 32 -4 34 -3 36 11 24
15 -11 18 -10 27 14 9 23 13 25 25 15 13 -10 15 -8 15 14 0 20 5 26 21 26 13
0 23 8 26 20 4 14 12 20 26 18 19 -3 30 9 41 45 3 11 15 17 34 17 33 0 52 16
52 45 0 16 13 28 45 45 34 18 44 28 40 41 -4 12 1 19 15 24 11 4 18 11 14 16
-3 6 3 13 14 16 11 2 22 13 25 23 4 17 28 31 107 61 19 8 21 12 10 19 -12 7
-11 12 6 27 12 10 29 33 38 51 13 26 21 31 39 27 18 -5 26 0 37 20 8 15 22 31
32 36 10 5 18 16 18 24 0 8 7 15 15 15 8 0 15 4 15 10 0 16 115 130 133 130 8
0 19 5 22 10 3 6 17 10 31 10 13 0 24 5 24 10 0 6 -5 10 -10 10 -6 0 -5 8 2
20 11 17 10 22 -2 30 -13 9 -13 10 0 11 8 1 22 1 32 0 22 -3 32 17 18 34 -10
12 -9 16 6 22 11 3 22 11 26 17 5 7 8 7 8 -2 0 -10 4 -10 19 0 11 7 17 16 15
20 -9 14 79 98 104 98 17 0 22 6 22 25 0 15 6 25 14 25 7 0 16 9 19 20 3 12
14 20 27 20 13 0 24 8 27 20 3 11 9 20 14 20 5 0 9 6 9 14 0 7 6 19 14 26 8 6
12 19 9 27 -5 13 -2 15 15 11 12 -4 20 -2 16 3 -3 5 0 9 6 9 7 0 10 7 7 15 -8
20 11 29 29 14 11 -9 18 -9 26 -1 9 9 9 12 -1 12 -7 0 -9 5 -6 10 4 6 10 8 15
5 10 -6 45 46 42 63 -3 10 17 17 41 13 4 -1 11 9 16 21 5 13 25 38 45 56 20
19 36 40 36 48 0 11 6 13 20 9 15 -5 21 0 26 19 3 14 10 26 14 26 4 0 23 14
41 32 19 18 41 32 49 32 8 1 14 7 12 15 -3 16 26 51 43 51 7 0 20 9 29 19 10
11 28 22 42 25 24 6 34 26 13 26 -6 0 -9 6 -6 13 2 6 9 12 14 12 6 0 15 3 19
8 4 4 16 7 26 7 23 0 24 -26 1 -34 -15 -6 -14 -8 4 -25 14 -13 33 -18 66 -16
26 1 42 -2 36 -6 -9 -5 -8 -17 4 -45 l16 -39 0 43 c1 40 2 42 31 42 28 0 30
-2 30 -40 0 -34 -3 -40 -22 -41 -21 -1 -21 -2 5 -12 27 -11 38 -47 14 -47 -7
0 -20 -6 -29 -12 -19 -15 -34 -88 -18 -88 5 0 10 18 10 40 0 50 23 54 38 8 5
-18 10 -25 11 -15 1 10 9 17 21 17 11 0 20 7 20 15 0 8 -7 15 -15 15 -13 0
-14 4 -5 21 9 16 8 26 -5 45 -14 21 -14 24 0 24 20 0 19 26 -2 34 -14 6 -14 8
3 21 10 8 30 14 44 14 17 -1 19 -3 8 -6 -23 -6 -23 -29 -1 -37 14 -6 14 -8 -3
-21 -17 -13 -17 -14 -1 -15 9 0 17 -4 17 -10 0 -5 16 -10 35 -10 34 0 85 -18
85 -29 0 -4 -10 -11 -23 -16 -17 -8 -23 -21 -28 -60 -4 -27 -2 -54 2 -59 6 -6
9 -6 9 1 0 6 20 13 45 15 l45 3 0 -36 c0 -34 3 -37 35 -43 38 -8 44 -22 18
-42 -17 -13 -17 -13 0 -14 12 0 23 11 30 30 6 17 14 30 18 30 3 0 11 -19 16
-42 l11 -43 1 43 c0 23 6 42 11 42 6 0 10 -4 10 -10 0 -5 7 -10 15 -10 21 0
19 17 -4 30 -14 7 -22 7 -26 0 -12 -19 -23 0 -22 35 1 26 5 35 18 35 10 0 20
6 22 13 4 10 6 10 6 0 1 -20 18 -15 24 7 3 12 14 20 25 20 11 0 23 6 25 13 3
6 6 -3 6 -20 1 -32 -13 -45 -22 -20 -2 6 -8 8 -13 4 -5 -5 -1 -14 9 -21 22
-17 22 -32 0 -41 -17 -6 -17 -7 1 -21 11 -8 14 -14 8 -14 -18 0 -15 -27 4 -34
9 -3 18 -6 20 -6 2 0 4 27 4 60 0 38 4 60 11 60 8 0 10 17 6 55 -6 57 8 77 19
28 9 -43 25 -72 43 -76 13 -4 13 -5 -1 -6 -21 -1 -24 -31 -4 -31 20 0 24 -17
18 -77 -5 -51 -4 -53 21 -53 l25 0 1 320 1 320 -4200 0 c-2310 0 -4200 -3
-4200 -6 0 -6 40 -96 60 -134 4 -9 11 -31 15 -50 4 -19 11 -39 15 -45 4 -5 10
-27 14 -47 4 -21 10 -38 14 -38 8 0 15 -24 78 -300 45 -195 45 -195 45 -377
-2 -346 -20 -447 -104 -580 -13 -21 -28 -49 -32 -63 -4 -14 -13 -32 -19 -40
-7 -8 -27 -50 -45 -92 -19 -43 -56 -105 -86 -140 -28 -35 -54 -69 -56 -75 -2
-6 -40 -50 -83 -98 -73 -80 -107 -108 -189 -158 -17 -10 -62 -44 -101 -76 -39
-32 -91 -69 -116 -82 -25 -13 -47 -27 -51 -31 -3 -4 -43 -24 -90 -44 -46 -20
-88 -40 -94 -44 -5 -4 -37 -15 -70 -25 -33 -10 -69 -24 -80 -31 -11 -7 -32
-14 -46 -16 -15 -2 -33 -9 -41 -16 -8 -6 -17 -9 -21 -6 -3 3 -22 -2 -42 -12
-24 -11 -39 -14 -43 -7 -9 14 -58 10 -55 -3 1 -6 -16 -28 -38 -49 -21 -22 -39
-44 -39 -50 0 -6 -27 -31 -60 -55 -33 -24 -60 -46 -60 -49 0 -10 -53 -62 -116
-116 -32 -27 -65 -57 -74 -65 -33 -32 -79 -60 -134 -81 -65 -24 -212 -130
-228 -164 -28 -62 -164 -80 -239 -31 -21 14 -45 38 -53 53 -13 26 -45 59 -74
77 -7 4 -61 16 -120 26 -59 10 -135 28 -169 40 -50 17 -71 20 -105 13 -62 -12
-112 -3 -116 22 -2 11 -14 30 -25 42 -39 39 -47 52 -47 73 0 25 -9 26 -26 3
-13 -17 -13 -17 -14 2 -1 17 -3 17 -12 -5 -10 -23 -11 -23 -15 -5 -11 56 -14
64 -30 67 -10 2 -30 -10 -46 -27 l-29 -30 6 31 c3 18 8 44 12 59 5 20 4 26 -5
21 -6 -4 -11 -13 -11 -20 0 -8 -11 -16 -25 -18 -17 -4 -25 -1 -25 9 0 19 35
87 54 102 21 17 39 4 33 -25 -2 -13 0 -24 4 -24 5 0 9 6 10 13 0 6 13 22 29
35 l30 23 29 -32 30 -32 6 26 c4 15 5 33 2 41 -3 7 -1 18 4 23 5 5 -7 31 -31
63 -39 55 -49 80 -30 80 6 0 10 6 10 13 0 24 30 76 56 96 13 10 24 25 24 32 0
23 -66 88 -97 94 -101 23 -141 48 -200 128 -46 61 -58 88 -113 263 -47 146
-89 224 -120 224 -12 0 -46 -25 -77 -55 -43 -42 -57 -63 -59 -87 -5 -64 -39
-145 -65 -153 -10 -4 -19 -10 -19 -15 0 -4 -16 -25 -35 -45 -28 -28 -34 -41
-28 -58 4 -12 6 -26 5 -30 -1 -5 6 -7 16 -5 11 2 31 -3 45 -9 15 -7 38 -18 52
-25 32 -15 115 -96 115 -113 0 -7 6 -18 14 -24 8 -6 19 -31 25 -56 6 -24 17
-49 24 -57 7 -7 23 -30 36 -50 12 -21 28 -38 35 -38 25 0 57 -48 65 -96 5 -27
9 -43 10 -36 0 6 8 12 16 12 8 0 27 16 42 35 15 19 31 35 34 35 8 0 33 -53 30
-64 -1 -4 3 -14 10 -22 6 -8 8 -26 4 -46 -8 -35 -52 -118 -63 -118 -13 1 -69
85 -76 114 l-7 29 -27 -24 c-36 -32 -52 -54 -87 -118 -35 -64 -57 -81 -82 -65
-18 12 -24 73 -10 104 4 8 3 22 -3 30 -7 12 -14 9 -41 -18 -20 -21 -41 -32
-59 -32 -32 0 -46 13 -56 55 -10 45 -14 48 -35 29 -14 -13 -29 -15 -65 -10
-26 3 -52 10 -58 14 -6 5 -39 20 -73 35 l-63 26 -2 -42 c-1 -23 -3 -55 -5 -72
-19 -175 -25 -216 -38 -254 -8 -25 -15 -53 -15 -63 0 -10 -4 -18 -10 -18 -5 0
-10 -9 -10 -19 0 -11 -4 -23 -10 -26 -5 -3 -10 -12 -10 -20 0 -7 -25 -51 -56
-97 -31 -45 -64 -100 -72 -120 -9 -21 -20 -38 -24 -38 -5 0 -8 -5 -8 -11 0 -5
-18 -37 -40 -69 -22 -32 -40 -63 -40 -69 0 -6 -9 -15 -20 -21 -11 -6 -20 -16
-20 -23 0 -7 -20 -37 -45 -67 -25 -30 -45 -59 -45 -63 0 -5 -4 -5 -10 -2 -5 3
-12 -6 -16 -20 -3 -14 -15 -30 -25 -36 -11 -5 -19 -15 -19 -22 0 -7 -15 -25
-34 -41 -19 -15 -49 -50 -67 -76 -18 -27 -44 -52 -56 -55 -13 -3 -23 -11 -23
-19 0 -12 -13 -25 -136 -131 -32 -27 -78 -69 -102 -92 -25 -24 -51 -43 -57
-43 -7 0 -20 -9 -30 -20 -10 -12 -24 -19 -31 -16 -7 3 -16 -4 -19 -14 -4 -11
-12 -17 -21 -13 -7 3 -14 0 -14 -6 0 -6 -6 -11 -14 -11 -13 0 -87 -33 -148
-66 -14 -8 -38 -14 -52 -14 -15 0 -29 -7 -32 -15 -4 -8 -13 -15 -21 -15 -8 0
-26 -9 -40 -20 -14 -11 -43 -25 -64 -30 -26 -7 -39 -17 -39 -28 0 -14 -2 -14
-9 -3 -6 9 -18 11 -36 7 -15 -4 -24 -3 -22 1 6 9 -71 9 -80 -1 -3 -3 -13 -6
-22 -6 -13 0 -13 2 -2 9 10 6 5 11 -18 16 -19 4 -37 2 -46 -5 -9 -8 -19 -8
-32 -1 -10 5 -39 19 -65 31 -27 12 -48 26 -48 31 0 5 -9 9 -19 9 -11 0 -23 5
-26 10 -4 6 -16 10 -28 8 -17 -2 -22 2 -22 20 0 13 -7 29 -15 35 -8 7 -20 21
-26 32 -6 11 -16 20 -22 20 -17 0 -24 12 -29 53 -3 27 0 42 11 51 9 8 16 22
16 32 0 10 5 21 11 24 6 4 8 13 5 21 -3 8 0 14 5 14 7 0 9 10 4 28 -3 15 -10
56 -15 91 -4 35 -12 66 -18 70 -13 8 -15 121 -1 121 6 0 3 7 -5 16 -13 12 -16
40 -17 127 -1 62 -1 116 0 121 4 18 3 62 -2 156 -5 87 -7 95 -26 98 -26 4 -26
12 -1 40 13 13 16 23 9 27 -6 4 -10 19 -9 33 1 15 2 51 1 80 -1 45 -4 52 -21
52 -21 0 -45 34 -35 50 3 6 0 10 -9 10 -8 0 -17 -6 -20 -12 -3 -7 -3 -3 0 10
3 12 1 22 -5 22 -10 0 -15 -15 -8 -23 1 -2 -6 -12 -16 -22 -12 -12 -22 -14
-28 -8 -7 7 -19 3 -36 -13 -21 -19 -29 -22 -41 -12 -11 10 -17 9 -26 -5 -10
-13 -15 -14 -26 -4 -7 7 -10 7 -7 1 4 -6 -6 -17 -20 -25 -21 -11 -27 -11 -30
-1 -5 14 -33 17 -33 3 0 -5 -13 -9 -30 -9 -19 1 -30 6 -30 15 0 10 -6 12 -20
8 -12 -4 -28 -1 -36 6 -13 10 -17 10 -25 -2 -7 -11 -9 -10 -9 5 0 14 -5 17
-21 13 -11 -3 -27 -3 -35 0 -19 7 -18 33 1 33 8 0 15 5 15 10 0 6 -15 10 -34
10 -21 0 -36 6 -40 15 -3 8 -12 15 -21 15 -18 0 -20 36 -2 43 10 4 10 6 0 6
-7 1 -13 10 -13 20 0 13 -8 21 -22 23 -19 2 -23 10 -25 43 -2 22 -6 47 -9 55
-4 13 -6 13 -14 0 -8 -13 -10 -12 -10 2 0 9 10 18 23 21 19 4 19 4 2 6 -27 2
-61 71 -35 71 6 0 10 -9 10 -20 0 -11 5 -20 10 -20 6 0 10 6 10 14 0 8 -4 18
-10 21 -5 3 -10 23 -11 43 0 20 -3 31 -6 25 -7 -18 -23 -16 -23 2 0 9 10 15
26 15 14 0 23 4 19 10 -4 6 -10 8 -15 5 -5 -3 -11 -1 -15 5 -3 5 -3 10 2 10 4
0 13 11 20 25 6 14 7 25 2 25 -14 0 -11 30 5 45 12 13 32 98 27 119 -1 4 6 20
16 35 l18 26 6 -35 7 -35 -1 40 c-2 32 4 47 28 74 75 85 95 101 123 101 15 0
33 5 39 11 6 6 26 13 45 15 18 2 42 8 53 13 30 14 110 31 147 31 38 0 63 13
55 27 -4 6 8 10 26 11 17 0 35 -4 39 -11 4 -7 10 -2 16 13 9 27 9 60 -3 102
-4 15 -2 35 5 48 14 26 -2 50 -28 43 -13 -3 -17 2 -17 21 0 15 4 26 8 26 5 0
7 8 5 18 -4 19 -58 26 -71 8 -5 -6 -5 0 -2 12 6 22 5 23 -16 17 -21 -7 -22 -6
-10 9 12 14 11 16 -8 16 -12 0 -21 6 -21 15 0 8 -4 15 -10 15 -5 0 -10 7 -10
15 0 11 -12 15 -42 17 -24 0 -50 1 -58 2 -15 1 -34 70 -26 93 3 7 1 13 -4 13
-5 0 -7 6 -4 13 9 25 -14 64 -45 77 -33 13 -39 28 -19 48 9 9 8 12 -4 12 -21
0 -43 26 -28 35 6 4 2 14 -12 25 -13 11 -19 19 -14 20 5 0 2 8 -7 18 -8 9 -15
22 -15 27 0 6 -8 15 -20 20 -16 9 -18 15 -10 29 7 12 5 28 -6 54 -8 20 -15 31
-15 25 -1 -21 -17 -15 -19 7 -1 11 -2 28 -3 38 -1 9 -7 24 -13 32 -7 8 -13 40
-14 70 -1 30 -7 77 -13 104 -7 28 -9 73 -5 110 16 138 16 169 1 273 -9 59 -20
126 -25 147 -5 22 -7 44 -4 48 3 4 2 14 -3 20 -4 7 -8 20 -8 28 -1 33 -18 136
-23 145 -7 10 -5 70 4 128 l6 37 -5216 0 -5216 0 0 -8555z m5035 5848 c22 -8
57 -20 78 -26 20 -6 37 -16 37 -23 0 -6 8 -14 18 -17 9 -2 25 -8 35 -12 12 -5
17 -2 17 10 0 19 9 18 112 -8 69 -17 81 -26 116 -86 34 -59 49 -70 93 -71 50
0 64 -19 54 -78 -4 -26 -7 -59 -7 -74 1 -16 -3 -28 -8 -28 -6 0 -10 4 -10 9 0
5 -10 11 -22 13 -14 2 -29 16 -40 36 -24 48 -46 61 -94 55 -26 -3 -44 0 -49 7
-5 8 -13 7 -29 -3 -29 -19 -76 -11 -76 13 0 23 -54 37 -75 20 -9 -7 -15 -8
-15 -2 0 6 -31 8 -82 4 -167 -11 -249 2 -256 39 -4 21 25 29 101 29 36 0 56 4
52 10 -3 6 -16 10 -28 11 l-22 0 22 11 c12 6 23 19 26 29 3 13 11 17 21 13 10
-4 16 -1 16 8 0 9 -26 20 -72 32 -92 23 -122 41 -109 64 12 21 86 42 126 35
17 -3 48 -12 70 -20z m-65 -420 c32 -22 59 -54 60 -70 0 -9 -9 -8 -35 3 -33
14 -35 13 -51 -11 -13 -19 -14 -28 -5 -39 8 -10 9 -16 1 -21 -19 -12 -10 -26
26 -41 33 -14 38 -14 55 2 18 16 19 16 19 -5 0 -41 25 -16 28 27 2 23 7 42 11
42 10 0 21 -36 21 -71 0 -14 3 -29 7 -33 4 -4 9 -26 10 -49 2 -23 7 -43 12
-45 6 -2 7 -10 4 -18 -3 -8 1 -14 11 -14 8 0 18 -11 22 -24 4 -16 13 -24 27
-24 12 0 38 -3 57 -7 28 -5 42 -2 73 19 21 15 43 24 48 21 5 -4 9 -26 9 -50 0
-48 -17 -65 -64 -65 -33 0 -106 29 -130 52 -26 24 -93 27 -169 7 -26 -7 -55
-7 -93 1 -75 16 -78 25 -70 228 6 173 10 186 57 195 13 2 26 5 29 6 3 0 17 -7
30 -16z m98 -552 c67 -22 131 -36 152 -33 8 1 47 -5 85 -13 50 -11 82 -25 114
-50 24 -19 62 -40 83 -46 93 -25 117 -58 79 -110 -12 -16 -21 -33 -21 -39 0
-22 -38 -8 -70 25 -18 19 -48 39 -66 45 -28 9 -37 8 -70 -15 -41 -28 -68 -27
-114 3 -54 36 -77 44 -126 44 -58 1 -76 -6 -68 -26 3 -8 0 -17 -6 -21 -8 -5
-7 -12 4 -23 8 -10 15 -21 15 -27 1 -5 5 -10 10 -10 6 0 19 -10 30 -21 36 -39
141 -39 141 0 0 7 6 18 13 24 19 16 57 3 57 -18 0 -10 3 -20 8 -22 18 -8 52
-70 52 -96 l0 -28 -62 7 c-35 4 -81 16 -103 25 -28 12 -83 19 -180 24 -77 4
-148 11 -157 15 -25 10 -29 30 -18 107 7 49 7 82 -1 110 -8 32 -8 43 3 50 7 5
65 7 128 4 69 -3 107 -1 95 4 -11 5 -34 9 -52 9 -38 1 -56 21 -19 21 14 0 26
5 26 10 0 6 -7 10 -15 10 -8 0 -23 4 -33 10 -9 5 -43 17 -74 26 -55 15 -74 35
-45 48 22 10 147 -4 205 -23z m-76 -495 c20 -9 39 -20 42 -25 3 -4 29 -11 58
-15 71 -9 315 -65 347 -80 14 -6 36 -23 49 -38 19 -22 29 -26 52 -21 44 8 52
-21 18 -68 -9 -13 -5 -24 20 -55 38 -48 88 -167 142 -339 9 -28 8 -28 -5 -10
-8 11 -18 25 -22 30 -37 45 -55 89 -77 187 -5 22 -62 101 -118 162 -9 10 -22
31 -28 46 -8 19 -25 33 -54 44 -48 19 -76 13 -76 -15 0 -12 -7 -19 -20 -19
-24 0 -27 25 -4 34 10 4 14 12 10 22 -5 14 -1 16 24 11 16 -4 30 -4 30 -2 0
13 -55 37 -116 51 -166 36 -233 45 -249 33 -6 -5 -31 -1 -55 7 -25 9 -55 14
-67 11 -12 -2 -24 1 -27 7 -3 8 -7 8 -13 0 -4 -7 -17 -13 -28 -15 -11 -3 -20
-12 -21 -22 -1 -12 -1 -13 3 -2 5 18 15 19 31 3 9 -9 15 -9 23 -1 25 25 95 -6
112 -49 5 -14 15 -17 49 -14 23 3 44 9 46 15 5 15 32 -13 32 -33 0 -9 -11 -18
-25 -22 -30 -7 -34 -34 -4 -34 11 0 18 -4 15 -9 -12 -18 28 -35 83 -35 45 0
61 4 79 22 29 29 37 28 40 -4 1 -20 -5 -28 -33 -40 -19 -7 -50 -14 -70 -14
-20 0 -50 -7 -66 -16 -17 -8 -49 -17 -72 -20 -65 -7 -74 -12 -81 -46 -8 -42
-7 -181 2 -194 10 -15 38 -24 95 -30 75 -7 101 -23 105 -62 4 -38 -11 -41 -48
-12 -31 24 -47 25 -57 3 -11 -23 -10 -200 1 -230 13 -39 -12 -26 -29 14 -12
29 -14 56 -9 114 6 71 5 77 -20 105 -36 40 -49 20 -41 -63 7 -66 -6 -124 -33
-155 -8 -10 -19 -15 -23 -12 -5 3 -9 -9 -9 -25 0 -21 5 -31 15 -31 8 0 17 -12
20 -27 3 -16 10 -47 15 -71 19 -82 8 -175 -26 -211 -8 -9 -37 -15 -76 -16
l-63 -2 -3 -149 c-2 -82 0 -173 3 -203 l7 -55 18 54 c10 29 16 67 14 83 -2 16
1 37 6 46 9 15 9 15 10 0 0 -9 7 -85 15 -169 14 -132 22 -239 24 -302 1 -22
24 -23 44 -4 10 11 12 27 6 68 -3 29 -7 130 -8 223 -1 94 -4 185 -7 202 -4 19
-25 52 -50 80 -47 50 -57 87 -25 96 21 5 31 -10 31 -43 0 -21 34 -45 49 -35 5
3 12 -5 14 -17 3 -13 4 3 4 35 0 88 9 78 17 -18 3 -50 12 -92 20 -102 8 -10
30 -38 48 -62 59 -80 60 -77 53 155 -3 115 -8 219 -11 231 -3 12 -2 29 4 38
17 32 30 -34 51 -260 22 -237 26 -265 38 -274 13 -9 33 -60 33 -84 0 -12 9
-40 19 -62 l18 -40 2 205 c1 192 10 286 24 250 3 -8 13 -71 22 -140 20 -150
22 -160 36 -140 8 13 10 13 19 0 11 -17 30 -78 30 -97 0 -7 7 -13 15 -13 8 0
15 -4 15 -10 0 -5 -6 -10 -14 -10 -12 0 -14 -23 -14 -122 0 -68 2 -115 5 -105
7 25 25 21 21 -5 -2 -13 -9 -22 -16 -20 -6 1 -12 -2 -12 -8 0 -14 23 -13 38 2
17 17 23 7 29 -56 3 -30 10 -53 14 -50 5 3 9 0 9 -5 0 -6 -5 -11 -11 -11 -5 0
-7 -5 -4 -10 12 -20 35 11 35 48 0 19 3 32 7 29 6 -6 9 -42 12 -124 1 -31 31
-33 68 -6 l33 24 22 -22 23 -22 -29 7 c-19 5 -32 3 -37 -6 -13 -20 -11 -28 7
-28 11 0 14 -6 9 -20 -5 -15 0 -26 17 -40 21 -17 21 -19 6 -25 -25 -10 -23
-25 3 -25 17 0 19 -4 13 -22 -13 -41 -10 -53 15 -56 13 -2 26 -12 28 -23 3
-10 11 -19 18 -19 7 0 20 -10 29 -22 l17 -23 -4 28 c-2 15 -1 30 3 32 4 2 5
16 3 30 -4 17 0 27 11 31 21 8 21 22 -1 20 -11 -1 -17 7 -17 24 0 48 53 98 55
53 0 -14 2 -15 6 -3 3 8 11 18 17 22 6 4 3 9 -9 13 -11 4 -28 11 -38 16 -10 6
-28 7 -40 3 -22 -6 -22 -6 -2 10 23 18 51 21 60 6 3 -5 1 -10 -6 -10 -7 0 -9
-3 -6 -6 9 -9 38 16 31 27 -3 5 7 9 21 9 15 0 24 -4 20 -10 -3 -5 -2 -10 4
-10 5 0 12 6 14 13 3 6 6 2 6 -10 1 -32 -9 -53 -28 -54 -11 0 -9 -3 7 -9 21
-9 31 -30 13 -30 -10 0 -5 -32 10 -65 16 -38 32 -80 34 -95 20 -139 30 -192
42 -225 8 -22 16 -74 19 -115 4 -49 11 -81 22 -93 13 -14 14 -22 4 -37 -9 -14
-8 -20 1 -23 9 -3 9 -8 -2 -20 -9 -12 -10 -17 -2 -17 7 0 11 -6 10 -12 -3 -21
12 -48 27 -48 8 0 14 -4 14 -10 0 -5 -7 -10 -16 -10 -17 0 -16 -39 1 -53 7 -6
6 -10 -2 -13 -10 -4 -10 -10 0 -25 15 -24 23 -24 30 1 3 11 11 20 17 20 7 0
10 -8 7 -20 -3 -13 0 -20 10 -20 10 0 12 6 7 23 -5 12 -7 33 -7 47 1 14 -4 34
-10 45 -6 11 -10 30 -8 42 1 12 -4 50 -13 85 -15 64 -26 123 -32 167 -1 13 -8
27 -14 31 -9 6 -9 9 -1 14 6 4 10 10 7 14 -2 4 -7 32 -10 62 -4 30 -11 73 -17
95 -11 44 -39 202 -40 225 -1 8 -7 53 -14 100 -7 47 -14 92 -14 100 0 8 -6 40
-11 70 -6 30 -12 71 -14 90 -7 83 -28 206 -38 217 -5 7 -7 16 -4 22 4 5 -1 31
-10 56 -10 30 -12 51 -6 57 6 6 4 32 -6 71 -8 34 -16 84 -17 110 -2 26 -6 55
-10 65 -4 9 -9 37 -12 62 -3 25 -9 53 -14 63 -6 9 -11 45 -13 80 -2 34 -13 86
-25 115 -12 30 -19 57 -16 62 3 5 2 17 -3 27 -25 48 -32 70 -31 93 1 14 -1 44
-5 68 -11 58 13 48 47 -21 25 -49 79 -236 98 -337 10 -50 26 -127 58 -267 41
-183 62 -279 67 -313 3 -19 12 -52 20 -73 8 -20 14 -54 14 -75 0 -21 7 -48 16
-61 9 -13 18 -49 20 -86 4 -70 18 -115 34 -115 7 0 9 -8 5 -20 -3 -11 1 -30
11 -45 13 -19 15 -38 11 -78 -7 -58 14 -163 31 -160 7 2 9 -10 7 -33 -4 -25
-2 -33 6 -28 9 5 10 -3 5 -29 -6 -32 11 -117 24 -117 3 0 6 -23 8 -52 2 -29 7
-57 13 -64 5 -6 16 -40 23 -75 8 -35 23 -102 35 -149 34 -139 80 -357 101
-480 11 -63 25 -127 31 -142 6 -15 9 -35 5 -43 -3 -8 0 -26 6 -40 8 -18 8 -28
-1 -39 -10 -12 -10 -20 3 -38 9 -12 16 -33 16 -46 0 -13 5 -32 11 -44 11 -21
32 -137 31 -175 0 -13 4 -23 8 -23 5 0 12 -29 15 -65 4 -36 12 -65 17 -65 5 0
8 -6 7 -12 -1 -7 2 -22 6 -32 6 -13 5 -21 -3 -24 -9 -3 -8 -11 2 -30 14 -29
26 -84 32 -147 7 -81 27 -195 35 -195 4 0 7 -19 7 -42 1 -24 9 -90 19 -148 26
-156 24 -431 -5 -565 -32 -148 -67 -249 -139 -395 -21 -44 -21 -44 -1 -20 11
14 25 24 29 23 5 -2 9 2 9 8 0 5 5 7 10 4 6 -4 22 1 35 9 14 9 35 15 47 13 13
-2 17 -2 10 0 -10 4 -11 8 -1 20 10 12 10 16 0 23 -9 5 -10 13 -5 21 5 8 10
22 11 32 2 10 13 31 25 47 35 48 71 41 142 -26 58 -54 73 -78 55 -89 -12 -8
22 -75 37 -75 7 0 19 -9 27 -20 8 -11 17 -17 20 -14 3 4 9 -7 13 -22 4 -16 10
-34 15 -39 12 -17 18 -182 7 -193 -6 -6 -11 -58 -12 -115 -1 -71 -6 -109 -15
-121 -7 -9 -11 -24 -8 -35 3 -14 0 -17 -14 -14 -11 3 -19 0 -19 -6 0 -6 7 -11
15 -11 16 0 36 -39 28 -54 -11 -18 -14 -74 -4 -81 6 -3 11 -16 11 -28 0 -13 8
-33 17 -47 12 -17 13 -25 5 -28 -8 -2 -1 -17 18 -39 28 -32 30 -37 17 -56 -8
-12 -24 -22 -35 -22 -12 0 -22 -3 -22 -7 -1 -83 1 -93 15 -74 21 27 38 10 30
-31 -4 -21 -2 -40 6 -49 9 -12 9 -17 -4 -27 -13 -10 -13 -19 -3 -59 10 -38 10
-48 1 -48 -7 0 -20 -11 -28 -24 -15 -22 -14 -25 9 -47 13 -12 24 -18 24 -13 0
5 10 -6 21 -23 12 -18 28 -33 36 -33 8 0 12 -4 9 -9 -3 -5 1 -14 9 -21 8 -7
15 -17 15 -22 0 -5 14 -23 30 -40 17 -16 30 -36 30 -43 0 -8 12 -40 26 -72 37
-83 82 -292 90 -419 3 -60 17 -154 30 -209 13 -55 38 -175 54 -267 17 -92 37
-189 45 -215 8 -27 24 -118 35 -203 18 -134 50 -352 104 -710 8 -54 14 -148
12 -217 -1 -67 4 -164 11 -215 7 -51 13 -115 14 -143 0 -27 4 -86 9 -130 19
-155 36 -346 49 -527 5 -65 14 -124 20 -132 9 -10 9 -21 3 -33 -5 -10 -13 -47
-17 -82 -4 -36 -14 -71 -21 -79 -8 -7 -14 -20 -14 -29 0 -9 -6 -13 -15 -9 -10
4 -15 -1 -15 -14 0 -11 -4 -20 -10 -20 -5 0 -10 -11 -10 -25 0 -16 -15 -40
-43 -67 -36 -36 -43 -51 -45 -87 -5 -73 -43 -168 -62 -156 -5 3 -15 -2 -24
-10 -8 -8 -36 -18 -63 -21 -26 -3 -60 -10 -75 -16 -15 -6 -36 -7 -45 -3 -32
14 -63 16 -83 5 -15 -8 -20 -8 -21 2 -3 34 -17 -44 -18 -97 -3 -125 -49 -171
-161 -159 -102 10 -181 11 -186 3 -3 -5 -19 -9 -35 -9 -21 0 -32 -6 -37 -21
-7 -19 -9 -19 -21 -5 -41 50 -135 -26 -147 -118 -7 -52 -30 -86 -59 -86 -8 0
-15 5 -15 10 0 26 -123 46 -141 24 -16 -20 -59 -18 -59 2 0 13 -3 14 -13 5
-11 -8 -20 -4 -39 18 -24 26 -25 30 -10 53 13 22 13 29 1 57 -8 17 -19 31 -26
31 -7 0 -38 16 -69 34 -32 19 -62 32 -68 29 -26 -16 -104 -20 -158 -8 -60 14
-143 54 -179 88 -35 33 -57 96 -64 187 -4 47 -16 104 -26 127 -11 24 -24 55
-30 70 -10 26 -11 27 -24 10 -7 -10 -17 -18 -22 -18 -4 1 -23 -4 -40 -10 -58
-19 -75 -10 -78 40 -2 27 -10 48 -19 53 -9 5 -16 16 -16 23 0 18 -12 19 -29 3
-10 -11 -15 -10 -25 5 -7 9 -18 17 -24 17 -6 0 -9 7 -6 15 4 8 1 15 -6 15 -6
0 -31 16 -56 36 l-44 36 39 28 c21 16 42 33 45 39 8 13 65 41 83 41 8 0 21 -7
29 -15 9 -8 21 -15 28 -15 22 0 106 82 106 104 0 12 3 32 7 46 l7 25 8 -25 c4
-15 5 -3 2 27 -5 41 -3 54 9 58 9 4 12 15 9 32 -3 15 1 28 8 33 11 7 11 21 0
79 -16 86 -8 583 10 589 5 2 8 7 5 12 -6 9 -21 851 -18 1035 2 136 14 193 53
242 10 14 22 41 25 62 14 83 59 259 76 296 11 22 19 45 19 50 1 6 19 24 40 40
21 17 44 44 50 61 12 35 59 74 90 74 11 0 20 7 20 14 0 13 4 13 35 0 41 -17
45 -17 45 -3 0 5 -6 7 -12 3 -7 -4 -6 1 3 10 12 14 14 30 7 94 -5 42 -6 82 -4
89 3 7 1 13 -4 13 -13 0 -39 57 -30 67 5 4 10 43 12 86 2 43 8 81 14 85 14 9
11 55 -3 59 -14 5 -3 54 18 82 11 13 19 31 19 40 0 10 13 21 32 26 27 8 34 17
43 52 5 23 13 45 18 49 4 4 7 13 7 21 0 7 10 29 23 48 16 26 37 40 82 56 33
12 65 25 70 29 6 4 43 13 84 20 68 11 75 11 100 -7 37 -27 112 -56 122 -46 4
4 4 35 1 68 -7 62 3 105 25 105 15 0 12 25 -4 56 -16 28 -7 58 26 82 43 31 37
70 -14 96 -22 12 -40 27 -40 34 0 8 -8 19 -18 27 -15 11 -16 13 -2 19 27 10
16 24 -47 62 l-63 36 -32 -38 c-18 -20 -33 -44 -33 -53 -1 -14 -2 -13 -11 2
-5 9 -19 17 -30 17 -11 0 -17 4 -14 10 3 5 -5 12 -19 16 -44 11 -51 30 -18 49
28 17 92 123 92 153 0 6 11 12 25 12 25 0 55 -41 55 -75 0 -12 8 -15 27 -13
37 4 44 44 22 124 -9 33 -20 90 -23 126 -6 54 -4 67 9 71 8 4 15 15 15 26 0
10 7 21 15 25 17 6 21 36 5 36 -5 0 -10 8 -10 19 0 10 -7 24 -15 31 -8 7 -12
16 -10 21 3 4 -4 18 -15 29 -17 17 -20 31 -17 75 1 30 0 55 -3 55 -3 -1 -22
-27 -42 -60 -29 -47 -34 -61 -24 -70 8 -5 17 -42 20 -80 8 -74 -9 -130 -39
-130 -9 0 -21 -12 -28 -27 -19 -44 -42 -56 -50 -25 -3 12 -5 11 -6 -6 -1 -29
-17 -21 -23 13 -6 28 26 67 35 43 9 -25 27 44 26 97 l-2 53 -45 -41 c-25 -23
-51 -48 -59 -56 -8 -7 -17 -11 -20 -7 -4 3 24 51 60 105 108 158 210 382 119
259 -45 -61 -72 -90 -110 -117 -35 -24 -62 -22 -62 5 0 12 -11 7 -40 -20 -46
-41 -62 -44 -90 -16 -11 11 -34 23 -50 27 -17 3 -30 9 -30 14 0 5 -23 23 -51
40 -31 19 -48 37 -45 45 3 8 0 11 -9 8 -8 -3 -35 10 -61 30 -26 20 -51 36 -56
36 -5 0 -24 11 -42 25 -18 14 -37 25 -41 25 -12 0 -45 31 -45 42 0 5 5 6 10 3
13 -8 13 6 0 25 -9 13 -12 13 -21 -2 -5 -10 -21 -18 -34 -18 -15 0 -26 -7 -30
-20 -4 -11 -10 -18 -14 -15 -5 2 -11 -13 -15 -34 -3 -21 -17 -54 -30 -74 l-25
-37 20 -45 c28 -62 19 -79 -11 -21 -36 70 -42 72 -80 21 -19 -25 -39 -46 -44
-46 -6 -1 -65 -1 -131 -1 -76 0 -109 -3 -90 -8 17 -4 50 -8 74 -9 34 -1 42 -4
34 -12 -9 -9 -32 -8 -93 1 -73 11 -82 11 -100 -5 -20 -18 -40 -13 -40 11 0 27
-45 16 -64 -16 -24 -41 -54 -58 -98 -58 -33 0 -38 3 -38 24 0 13 -4 24 -10 24
-5 0 -10 -7 -10 -15 0 -9 -6 -18 -14 -21 -8 -3 -12 -12 -10 -19 11 -28 -18
-25 -45 4 -32 35 -41 38 -41 16 0 -22 -16 -18 -34 9 -22 34 -56 43 -72 21 -11
-14 -16 -15 -28 -6 -9 7 -29 9 -56 5 -26 -4 -45 -3 -49 4 -3 5 -19 8 -34 5
-19 -4 -25 -8 -16 -13 6 -5 -27 -7 -75 -7 -67 2 -89 -1 -96 -13 -6 -10 -10
-11 -10 -2 0 6 -11 12 -24 12 -15 0 -37 15 -61 41 -21 23 -42 38 -50 35 -8 -3
-23 -23 -34 -45 -12 -22 -25 -42 -31 -46 -10 -6 -7 4 24 78 16 36 15 40 -9
101 -14 34 -25 65 -25 69 0 3 -5 18 -10 32 -8 22 -13 25 -25 15 -11 -9 -14 -7
-13 12 1 13 1 43 0 67 -2 37 -4 42 -17 31 -12 -10 -15 -10 -15 2 0 8 -8 23
-19 34 -19 22 -28 104 -10 104 5 0 9 5 9 10 0 6 -11 10 -25 10 -14 0 -25 -4
-25 -10 0 -5 -4 -10 -10 -10 -5 0 -10 9 -10 19 0 11 5 23 10 26 15 9 12 35 -3
35 -9 0 -12 10 -9 30 5 38 -11 59 -41 53 -14 -3 -31 2 -41 12 -15 15 -15 18 1
45 14 24 14 33 3 59 -7 18 -10 34 -7 37 3 3 -1 20 -8 38 -15 36 -11 47 24 66
l25 13 -23 18 c-13 11 -32 19 -42 19 -10 0 -19 5 -19 10 0 6 6 10 13 10 9 0
13 12 13 35 -1 25 -5 35 -17 35 -14 0 -16 12 -14 83 1 45 5 94 8 110 4 15 9
38 12 52 3 14 10 23 15 20 6 -3 10 1 10 10 0 9 -4 14 -8 11 -4 -2 -9 22 -9 55
-1 32 2 59 7 59 6 0 10 7 10 16 0 14 1 14 16 0 8 -9 16 -16 17 -16 5 0 -6 106
-12 110 -17 14 -30 73 -20 93 7 12 9 40 5 68 -9 68 23 124 38 67 4 -19 7 -20
18 -9 10 10 10 15 1 18 -8 3 -9 12 -3 29 10 26 3 57 -11 48 -15 -9 -10 53 6
66 8 7 15 18 15 24 0 6 -4 5 -9 -3 -16 -25 -24 70 -11 120 7 24 13 81 15 125
1 45 5 87 9 93 4 7 2 18 -4 26 -9 10 -9 19 -2 28 18 22 49 345 44 457 -1 25 3
68 8 95 6 28 12 104 15 169 3 66 8 122 10 126 4 7 15 102 20 180 8 123 18 201
32 260 9 36 16 72 16 80 0 8 4 21 10 28 6 8 6 17 -2 26 -9 10 -8 15 4 20 17 6
21 36 4 36 -14 0 -7 92 7 97 6 2 15 -16 20 -39 6 -27 15 -44 26 -46 20 -4 30
24 33 90 l2 47 -30 -6 c-45 -9 -57 15 -57 109 0 85 17 214 31 238 7 13 9 13
10 0 2 -24 17 32 18 68 1 34 21 46 21 12 0 -26 8 -25 30 2 13 17 21 20 31 12
16 -12 29 -12 46 -1 15 9 27 -26 18 -53 -3 -11 -12 -20 -20 -20 -13 0 -32 -57
-22 -66 3 -3 11 7 19 22 8 18 23 29 40 31 22 3 28 -2 37 -29 6 -18 14 -53 17
-78 3 -25 8 -47 10 -49 10 -11 26 20 30 60 3 24 8 47 10 51 10 15 22 8 28 -17
4 -14 11 -25 17 -25 6 0 8 -11 4 -29 -3 -16 -1 -38 4 -48 6 -10 16 -31 21 -47
6 -16 13 -26 16 -24 3 3 7 50 11 104 3 55 7 101 9 103 11 12 14 -18 15 -163
l1 -158 21 23 c20 21 22 36 25 153 3 181 22 189 23 10 1 -76 0 -149 -1 -161
-1 -13 2 -28 7 -35 4 -7 7 -40 6 -73 -2 -33 0 -53 4 -45 3 8 12 18 19 23 9 5
10 16 3 42 -8 28 -6 44 11 82 23 51 34 138 45 345 l7 128 -30 47 c-17 27 -34
62 -38 78 l-6 30 27 -33 c34 -39 45 -30 45 39 l0 46 -45 13 c-25 7 -48 10 -52
6 -9 -8 -43 24 -43 40 0 12 39 41 43 32 16 -32 28 -43 46 -41 23 3 63 38 53
48 -4 3 0 10 8 15 11 7 12 16 3 44 -9 28 -8 34 3 29 11 -4 14 6 14 41 0 39 -4
48 -22 56 -13 5 -17 9 -10 9 6 1 12 6 12 12 0 6 -9 8 -20 4 -16 -5 -20 -2 -20
14 0 24 -25 28 -43 8 -32 -34 -41 -64 -38 -128 2 -61 0 -67 -23 -83 -15 -9
-26 -26 -26 -39 0 -12 -4 -28 -9 -35 -30 -47 -27 228 4 349 4 16 0 41 -11 65
-9 21 -18 60 -20 86 l-4 47 29 -5 c37 -8 47 18 30 75 -10 33 -15 39 -26 30 -7
-6 -13 -21 -13 -33 0 -11 -5 -28 -10 -36 -7 -11 -10 1 -10 42 0 62 -10 77 -34
52 -9 -8 -21 -14 -27 -12 -13 4 77 68 96 68 8 0 15 7 15 15 0 8 -6 15 -14 15
-7 0 -18 6 -24 13 -15 17 3 87 22 87 7 0 18 10 24 23 9 20 11 19 17 -20 8 -47
22 -54 49 -24 10 11 30 21 45 23 22 3 34 23 14 23 -18 1 -33 17 -33 36 0 20
-33 59 -50 59 -5 0 -12 -11 -16 -25 -3 -13 -13 -30 -22 -37 -13 -11 -14 -10
-9 14 8 32 0 58 -19 58 -8 0 -14 -3 -14 -8 0 -9 -49 -6 -200 14 -201 26 -241
46 -184 90 28 23 28 24 9 39 -17 13 -18 16 -5 25 8 5 22 7 30 4 8 -4 31 -7 51
-9 43 -3 59 -11 59 -30 0 -13 27 -13 118 1 47 7 41 31 -10 39 -24 4 -56 16
-71 27 -24 17 -38 19 -100 14 -119 -11 -157 -12 -157 -4 0 10 30 16 65 14 17
-1 44 4 60 13 17 8 44 14 62 12 17 -1 49 5 70 13 37 14 211 26 396 26 51 0 87
4 87 10 0 6 -55 10 -145 10 -102 0 -145 3 -145 11 0 9 78 10 298 6 240 -4 304
-8 334 -21z m-1102 -529 c0 -8 -6 -27 -14 -43 -8 -16 -22 -81 -31 -144 -20
-139 -22 -147 -42 -154 -43 -17 -58 95 -23 173 11 24 20 59 20 79 0 22 9 47
26 69 25 33 64 45 64 20z m-216 -206 c6 -9 -34 -229 -79 -441 -14 -63 -32
-153 -41 -200 -8 -47 -26 -127 -39 -179 -14 -51 -29 -132 -35 -180 -6 -47 -23
-138 -38 -201 -44 -188 -37 -82 14 210 26 146 50 288 54 315 5 28 17 91 28
140 28 126 80 382 88 430 15 98 31 134 48 106z m10921 -11 c3 -6 26 -15 51
-21 l44 -11 -40 -32 c-31 -23 -40 -36 -36 -51 4 -16 -1 -23 -23 -32 -30 -11
-61 -1 -61 20 0 7 -11 29 -25 49 -14 20 -25 43 -25 51 0 25 101 50 115 27z
m-10890 -742 c-1 -68 -13 -197 -25 -288 -32 -245 -89 -662 -106 -765 -17 -114
-54 -394 -54 -417 0 -10 7 -18 16 -18 11 0 14 6 9 20 -4 12 -2 20 5 20 8 0 10
9 6 28 -5 18 -4 23 3 13 7 -10 9 -3 10 25 0 36 7 102 11 114 1 3 1 15 0 28 -1
13 4 30 10 38 10 11 10 17 0 29 -6 8 -8 20 -4 27 5 7 9 19 9 28 5 56 17 90 32
88 9 -2 18 3 20 10 3 7 -1 10 -10 6 -22 -8 -30 28 -16 76 19 63 36 47 29 -29
-1 -15 2 -21 9 -16 6 3 9 11 6 16 -7 11 -3 11 19 3 9 -3 16 -11 16 -16 0 -6
-7 -8 -15 -4 -10 4 -15 -1 -15 -15 0 -11 4 -18 9 -14 5 3 12 1 16 -5 3 -5 11
-10 17 -10 7 0 7 5 -1 14 -9 11 -8 17 4 29 22 22 20 87 -2 87 -14 1 -12 5 10
21 15 11 27 28 27 37 0 12 4 11 16 -7 16 -22 16 -25 -3 -40 -15 -11 -20 -26
-19 -53 1 -21 -2 -38 -6 -38 -4 0 -8 -18 -8 -40 0 -22 -5 -40 -11 -40 -5 0 -7
-4 -4 -10 3 -5 2 -17 -3 -26 -8 -14 -13 -11 -36 17 -16 20 -24 26 -19 14 3
-11 11 -23 17 -27 6 -4 5 -12 -3 -22 -10 -12 -11 -19 -2 -30 8 -10 9 -16 1
-21 -12 -8 -13 -25 -1 -25 12 0 20 37 10 47 -4 4 -4 15 1 23 7 10 10 11 10 3
0 -15 36 -53 50 -53 6 0 10 5 10 11 0 5 4 8 8 5 5 -3 8 19 7 49 -2 30 1 52 6
49 10 -6 12 19 2 29 -12 13 -12 58 0 54 15 -5 36 22 37 46 0 11 8 17 25 17 30
0 33 -15 6 -32 -16 -10 -17 -14 -5 -25 19 -19 29 -64 17 -72 -6 -3 -11 -33
-11 -66 -1 -33 -4 -85 -7 -115 -3 -30 -7 -72 -8 -92 -1 -20 -6 -40 -10 -44 -4
-4 -2 -13 4 -21 9 -10 8 -13 -1 -13 -8 0 -10 -8 -7 -22 4 -12 2 -28 -4 -34
-15 -18 -19 -104 -5 -101 6 1 11 -5 11 -13 0 -9 -7 -14 -17 -12 -21 3 -24 -13
-5 -22 9 -5 9 -7 -2 -12 -10 -5 -11 -8 -1 -14 10 -6 9 -18 -3 -54 -9 -27 -13
-60 -10 -81 3 -20 1 -41 -6 -49 -6 -7 -9 -20 -5 -29 3 -8 1 -18 -5 -22 -6 -3
-11 -17 -11 -30 0 -13 -4 -26 -8 -29 -11 -7 -3 -66 9 -66 5 0 9 -7 9 -15 0
-17 -26 -20 -35 -5 -4 6 -16 8 -27 4 -13 -4 -24 0 -33 13 -17 21 -17 24 -7 41
11 17 42 4 52 -22 9 -21 9 -21 9 2 1 12 -4 22 -11 22 -6 0 -8 3 -5 7 4 3 2 12
-4 19 -7 8 -7 14 1 19 15 9 12 45 -4 45 -19 0 -29 30 -15 46 6 7 8 18 4 25 -4
6 -1 15 6 20 10 6 11 9 2 9 -7 0 -13 7 -13 16 0 9 5 12 13 8 9 -5 9 -4 0 6
-10 11 -9 17 4 32 13 14 13 21 4 32 -10 12 -10 20 3 37 11 17 13 26 4 36 -7 9
-7 17 1 27 6 7 9 21 5 30 -4 9 -1 16 6 16 10 0 10 3 1 14 -11 13 -7 108 5 127
8 14 -17 21 -30 9 -11 -8 -15 -8 -19 2 -4 9 -6 10 -6 1 -1 -7 8 -17 19 -23 11
-6 20 -17 20 -25 0 -8 -9 -15 -20 -15 -11 0 -20 -6 -20 -14 0 -24 -20 -29 -36
-10 -14 18 -14 17 -4 -5 9 -18 9 -25 0 -31 -6 -4 -10 -20 -9 -36 2 -16 0 -34
-4 -41 -4 -6 -4 -18 -1 -27 3 -9 1 -23 -6 -31 -11 -13 -7 -15 21 -15 31 0 32
-1 16 -17 -16 -16 -18 -16 -43 3 -19 14 -28 31 -31 59 -4 36 -25 64 -49 65
-11 0 -38 -140 -33 -170 1 -8 0 -22 -4 -30 -3 -8 -20 -118 -37 -245 -17 -126
-33 -249 -37 -272 -4 -35 -2 -43 11 -43 10 0 13 -6 10 -15 -4 -8 -12 -15 -20
-15 -8 0 -14 -1 -14 -2 -2 -31 -46 -297 -64 -393 -14 -71 -26 -144 -26 -161 0
-17 -9 -42 -19 -56 -22 -28 -51 -165 -51 -242 0 -38 3 -47 11 -36 7 11 8 -12
5 -75 -19 -312 -16 -415 11 -523 5 -21 3 -24 -11 -19 -10 4 -16 1 -16 -8 0 -8
-3 -15 -7 -16 -5 0 -18 -2 -29 -5 -12 -2 -26 2 -31 9 -19 24 -33 121 -33 220
0 112 10 183 50 387 26 131 110 770 130 994 5 50 13 118 19 151 24 136 24 130
8 116 -19 -15 -31 1 -22 28 3 10 -1 24 -10 31 -8 7 -15 18 -15 26 0 14 38 16
56 2 13 -9 32 95 38 204 2 37 7 71 10 76 3 5 10 38 16 73 26 174 30 204 34
237 2 21 17 120 34 222 54 328 66 397 101 590 16 91 34 206 41 255 6 50 22
145 36 211 13 67 24 124 24 128 0 3 4 6 9 6 6 0 8 -51 6 -122z m-466 -926 c-2
-15 0 -33 5 -40 4 -7 1 -19 -8 -28 -9 -8 -16 -17 -16 -18 0 -2 -6 -41 -14 -87
-22 -129 -28 -162 -31 -187 -2 -13 -8 -45 -14 -70 -6 -26 -18 -83 -26 -127 -8
-44 -22 -109 -30 -145 -8 -36 -24 -117 -36 -180 -55 -310 -66 -369 -84 -445
-9 -38 -22 -104 -30 -145 -28 -140 -32 -161 -40 -168 -11 -10 1 91 24 193 11
50 45 221 76 380 31 160 72 367 90 460 19 94 36 181 38 195 8 44 67 333 79
388 12 56 21 70 17 24z m-8 -359 c-17 -104 -45 -267 -62 -363 -16 -96 -39
-229 -49 -295 -22 -142 -59 -354 -65 -375 -7 -23 -80 -425 -114 -625 -52 -310
-60 -366 -72 -505 -6 -74 -15 -139 -20 -144 -12 -13 -11 -93 1 -116 19 -36 34
-217 18 -226 -12 -7 -21 44 -15 82 4 24 2 34 -7 34 -16 0 -26 64 -26 161 0 37
-4 79 -10 93 -6 17 -6 26 0 26 6 0 10 17 9 38 -1 20 4 66 10 102 6 36 15 112
21 170 6 58 20 152 32 210 11 58 21 124 22 148 0 23 3 42 7 42 3 0 6 6 6 13 0
13 31 197 43 262 5 22 14 69 20 105 7 36 18 96 25 135 9 49 10 74 3 82 -8 10
-6 13 6 13 10 0 15 3 12 8 -2 4 2 32 10 62 9 30 24 105 35 165 51 284 93 526
103 590 6 39 14 75 18 80 3 6 10 28 14 50 5 22 9 42 9 45 4 16 18 70 27 105
23 89 18 4 -11 -172z m5179 -908 c7 -8 10 -26 8 -40 -3 -14 -1 -25 3 -25 5 0
9 6 9 14 0 21 19 30 34 16 11 -8 15 -8 19 2 3 7 6 3 6 -9 1 -13 -3 -23 -9 -23
-18 0 -10 -22 10 -27 22 -6 28 -49 8 -55 -10 -4 -10 -10 -1 -31 8 -18 18 -25
28 -21 9 4 15 0 16 -7 1 -8 2 -32 4 -54 1 -22 4 -60 5 -85 2 -25 1 -50 -2 -55
-3 -6 -9 -25 -13 -43 -3 -18 -15 -37 -25 -42 -25 -13 -29 -62 -13 -134 8 -33
16 -74 18 -91 7 -54 17 -89 35 -115 9 -14 24 -43 32 -65 15 -37 18 -40 52 -38
48 3 106 41 192 128 40 41 86 81 103 89 16 9 59 36 94 61 80 56 107 66 288
110 124 31 258 27 384 -12 28 -8 66 -19 85 -25 19 -5 78 -31 130 -56 79 -39
109 -61 183 -134 48 -48 87 -92 87 -96 0 -5 9 -20 21 -33 65 -74 116 -169 152
-284 27 -85 34 -132 67 -420 34 -292 50 -388 68 -409 9 -10 46 -32 82 -48 148
-68 289 -139 302 -151 7 -6 31 -25 53 -42 177 -132 306 -368 340 -623 17 -132
39 -737 30 -829 -21 -214 -123 -442 -226 -508 -93 -59 -121 -79 -128 -93 -5
-10 -14 -53 -21 -97 -24 -168 -62 -257 -149 -348 -119 -126 -298 -210 -508
-242 -399 -60 -757 84 -959 385 -87 129 -146 290 -190 515 -23 120 -21 118
-147 119 -98 1 -127 -4 -94 -17 7 -3 5 -6 -5 -6 -10 -1 -18 -7 -18 -13 0 -29
-50 -117 -98 -175 -36 -43 -62 -65 -89 -73 -21 -6 -45 -14 -53 -17 -8 -3 -42
-7 -75 -9 -33 -2 -91 -11 -129 -19 -139 -32 -435 -28 -601 7 -122 26 -280 128
-358 231 -117 154 -138 307 -169 1232 -7 209 -13 511 -13 670 0 256 2 297 19
350 39 125 100 222 215 344 48 51 65 77 77 120 9 31 22 78 30 105 8 26 14 56
14 64 0 21 46 210 68 281 19 64 51 129 81 167 12 15 21 34 21 42 0 21 29 52
49 53 10 0 12 2 3 6 -9 3 -7 11 8 30 11 14 22 40 26 58 3 19 14 41 25 51 10 9
17 20 14 24 -6 10 152 170 168 170 14 0 77 72 77 89 0 11 5 23 10 26 8 5 8 11
0 20 -12 15 6 55 25 55 6 0 17 6 24 13 6 6 16 12 20 12 5 0 17 11 28 24 12 14
30 24 46 24 20 0 29 6 33 23 7 28 44 33 64 9z m-5252 -215 c-1 -49 -6 -90 -10
-90 -5 0 -8 -18 -8 -40 0 -21 -6 -59 -14 -82 -17 -52 -31 -118 -29 -138 1 -8
-3 -17 -8 -21 -5 -3 -11 -36 -14 -74 -2 -37 -9 -73 -15 -79 -5 -5 -10 -21 -10
-35 -1 -21 -2 -23 -10 -10 -6 10 -6 28 -1 47 5 17 7 40 4 52 -3 11 0 27 7 35
6 8 13 38 15 67 1 29 10 93 19 142 8 49 17 105 18 123 1 19 5 36 9 39 4 2 13
38 20 79 7 41 17 75 22 75 5 0 7 -40 5 -90z m377 -864 c18 7 31 -16 14 -27
-10 -6 -6 -9 13 -9 18 0 31 7 38 21 17 30 25 15 10 -20 -10 -26 -16 -29 -45
-25 -30 4 -33 2 -31 -22 1 -19 8 -27 28 -31 16 -3 28 -14 32 -26 6 -25 -18
-67 -39 -67 -22 0 -18 -18 5 -25 40 -13 19 -25 -36 -22 -48 3 -54 2 -40 -9 16
-11 16 -13 -2 -18 -20 -7 -24 -42 -8 -78 10 -23 4 -63 -11 -63 -6 0 -15 -4
-20 -9 -4 -5 4 -7 20 -4 25 5 30 1 39 -23 11 -32 16 -34 40 -16 11 9 18 31 20
68 2 42 7 55 21 57 19 4 25 -32 7 -43 -5 -3 -10 -26 -10 -50 0 -24 5 -47 10
-50 6 -3 10 -23 9 -43 0 -20 -3 -31 -6 -24 -2 6 -11 12 -18 12 -8 0 -17 9 -20
20 -6 18 -11 21 -32 19 -5 0 -7 -6 -5 -14 6 -29 -40 -45 -124 -45 -100 0 -114
4 -106 33 9 35 63 97 86 97 14 0 17 3 9 11 -12 12 -6 49 8 49 5 0 9 7 9 16 0
8 4 13 9 9 5 -3 12 -1 16 5 4 6 11 8 16 5 18 -11 9 34 -10 52 -11 10 -24 31
-30 46 -7 17 -18 27 -30 27 -14 0 -19 -5 -14 -16 4 -12 0 -15 -22 -12 -34 4
-49 43 -33 89 12 36 23 37 44 4 11 -17 25 -25 46 -25 17 0 27 -4 23 -10 -3 -5
3 -10 14 -10 10 0 25 -2 33 -3 7 -2 10 -2 5 0 -4 3 -5 9 -1 14 3 5 -2 9 -10 9
-10 0 -16 9 -16 24 0 13 -3 32 -6 41 -6 15 -4 15 15 4 11 -8 21 -22 21 -31 0
-13 8 -18 25 -18 28 0 34 15 9 24 -8 3 -12 10 -9 16 3 5 -1 10 -9 10 -24 0
-19 16 10 39 22 17 25 26 21 58 -2 21 -2 30 0 21 2 -9 10 -15 18 -12z m-603
-233 c5 -7 6 -18 2 -25 -11 -17 -11 -71 -2 -192 8 -111 21 -139 40 -86 l11 34
19 -43 c10 -24 25 -77 33 -117 9 -40 27 -98 40 -129 27 -61 32 -99 13 -93 -21
7 -56 77 -89 178 -17 52 -39 102 -49 111 -11 9 -21 36 -24 60 -3 24 -10 71
-16 104 -12 70 -13 239 -2 275 6 21 8 18 10 -20 2 -24 8 -50 14 -57z m2992
-1184 c-3 -6 0 -15 7 -20 12 -8 12 -11 -1 -19 -13 -8 -11 -11 7 -16 l23 -6
-22 -30 c-16 -23 -18 -32 -8 -38 9 -6 6 -12 -14 -25 -14 -10 -26 -27 -26 -38
0 -29 -54 -75 -151 -127 -110 -59 -142 -71 -344 -131 -213 -64 -266 -91 -368
-186 -112 -105 -214 -152 -268 -123 -15 9 -17 15 -9 30 7 13 7 21 0 25 -6 3
-9 19 -8 35 2 24 8 30 37 35 47 9 113 43 106 55 -4 6 -42 10 -86 10 -68 0 -79
2 -80 18 -2 41 -17 -37 -18 -95 -1 -59 -12 -81 -24 -48 -5 10 -17 13 -52 8
-36 -4 -45 -2 -45 10 0 20 19 33 58 42 30 6 43 27 24 39 -4 2 -32 7 -62 11
-29 3 -57 8 -62 11 -4 3 -8 0 -8 -7 0 -7 -6 -5 -14 6 -8 11 -20 16 -34 13 -14
-4 -22 0 -25 14 -4 15 -11 17 -31 12 -16 -4 -26 -2 -26 5 0 14 67 14 76 0 3
-6 20 -8 38 -5 80 15 105 16 110 7 4 -6 22 -5 50 3 43 13 45 13 65 -13 18 -23
22 -24 31 -10 17 29 140 41 182 18 12 -6 25 -6 39 1 46 25 29 -5 -47 -82 -43
-44 -70 -77 -59 -73 11 4 34 11 50 16 38 11 120 73 156 119 22 26 29 48 31 85
3 48 2 50 -26 53 -34 4 -76 29 -76 46 0 13 74 36 118 36 44 1 170 37 147 43
-11 2 -4 3 16 2 43 -3 48 0 71 39 18 33 61 59 128 76 25 6 60 15 78 20 19 4
39 15 45 23 7 8 35 25 64 37 28 12 54 28 57 36 6 17 68 44 121 54 60 11 67 11
59 -1z m-1308 -305 c-9 -34 18 -31 56 6 35 35 48 38 48 10 0 -11 -4 -20 -10
-20 -5 0 -10 -11 -10 -25 0 -14 4 -25 9 -25 14 0 18 -90 4 -101 -6 -6 -9 -17
-6 -25 3 -9 -1 -14 -13 -14 -23 0 -46 48 -46 96 0 27 -4 34 -16 32 -12 -2 -16
-15 -17 -53 0 -50 0 -50 -30 -46 -37 4 -44 14 -38 57 3 21 0 34 -6 34 -6 0
-11 16 -11 36 0 34 1 35 33 32 27 -2 33 1 35 20 2 12 8 19 14 16 5 -3 7 -17 4
-30z m1817 -5526 c3 -13 4 -36 2 -53 -2 -16 0 -34 4 -40 4 -5 3 -35 -2 -65 -8
-44 -11 -51 -18 -33 -8 22 -37 31 -104 32 -76 1 -131 12 -145 30 -7 11 -20 16
-31 14 -15 -4 -19 0 -19 18 1 28 17 51 45 66 36 19 129 36 183 35 28 -1 52 3
52 8 0 20 28 9 33 -12z"/>
<path d="M4772 11911 c-23 -21 -42 -47 -43 -57 -1 -11 -2 -28 -3 -39 -1 -20
-36 -35 -36 -16 0 6 -4 11 -10 11 -5 0 -10 -13 -10 -30 0 -25 4 -30 24 -30 14
0 30 -10 40 -24 14 -22 18 -23 46 -13 35 13 39 27 9 27 -18 0 -19 3 -9 15 6 8
9 19 5 25 -9 15 3 60 15 60 6 0 10 -21 10 -46 0 -38 3 -45 16 -40 9 3 20 6 25
6 12 0 12 115 0 138 -5 9 -12 25 -15 35 -8 24 -16 22 -64 -22z"/>
<path d="M4975 11358 c-6 -16 20 -306 28 -314 3 -3 9 16 13 43 7 54 18 78 46
110 16 17 19 28 13 50 -5 15 -9 30 -9 33 -1 3 -20 24 -44 48 -27 27 -44 38
-47 30z"/>
<path d="M6034 9596 c-9 -20 -8 -23 7 -19 17 5 19 -3 10 -57 -1 -3 -6 2 -11
10 -8 13 -10 13 -10 -1 0 -9 7 -20 16 -23 11 -4 14 -13 10 -29 -3 -12 -1 -28
3 -36 12 -20 1 -52 -17 -49 -9 2 -14 6 -11 9 4 5 -11 22 -42 46 -13 11 -15 7
-13 -32 2 -25 -1 -45 -7 -45 -5 0 -9 10 -9 23 -1 19 -2 20 -11 5 -6 -11 -16
-15 -27 -11 -14 5 -15 3 -4 -8 14 -16 16 -53 2 -44 -6 3 -10 -4 -9 -17 0 -13
3 -17 6 -10 2 6 9 9 15 6 5 -4 2 -14 -8 -25 -10 -11 -14 -25 -9 -36 5 -12 9
-14 12 -5 3 6 9 9 15 6 6 -4 14 0 19 7 7 11 9 10 9 -3 0 -10 7 -18 17 -18 21
0 9 -13 -15 -15 -9 0 -17 -5 -18 -10 0 -6 9 -8 20 -7 21 4 21 4 -1 -17 -27
-25 -39 -26 -47 -5 -4 9 -9 14 -12 11 -3 -3 -2 -12 2 -19 5 -7 9 -20 10 -28 1
-8 2 -26 3 -38 0 -15 9 -26 21 -29 18 -5 19 -7 4 -17 -14 -11 -14 -13 0 -25
14 -11 16 -11 16 3 0 9 7 16 15 16 18 0 20 -17 3 -22 -9 -3 -9 -6 0 -12 7 -4
14 3 18 19 4 16 13 25 25 25 10 0 19 4 19 10 0 6 -9 6 -22 2 -16 -6 -34 -3
-58 9 -19 10 -31 18 -25 19 5 0 4 5 -3 12 -13 13 -16 29 -4 27 27 -5 52 3 52
16 0 17 16 20 25 6 3 -6 -1 -13 -8 -18 -7 -4 -16 -16 -20 -25 -5 -15 -1 -18
22 -18 43 0 91 -11 91 -21 0 -5 -7 -9 -16 -9 -14 0 -14 -3 -4 -15 14 -17 40
-20 40 -5 0 6 5 10 11 10 5 0 9 -8 8 -17 -3 -22 9 -50 30 -76 18 -21 57 -45
47 -29 -3 5 -8 52 -11 103 -8 136 -21 219 -35 219 -4 0 -8 10 -9 23 -2 78 -26
172 -52 203 -6 7 -8 18 -4 24 4 6 -4 23 -16 37 -13 13 -23 25 -21 26 6 3 -10
37 -17 37 -3 0 -11 -11 -17 -24z"/>
<path d="M5746 9169 c-15 -14 -16 -22 -8 -32 7 -8 9 -16 6 -20 -3 -3 4 -8 16
-12 16 -5 19 -12 14 -28 -6 -20 -5 -21 11 -7 14 12 19 12 22 2 7 -18 23 -4 23
19 0 21 7 23 30 9 12 -8 12 -10 -3 -16 -14 -5 -15 -9 -6 -20 6 -8 7 -14 2 -14
-5 0 -18 -7 -29 -16 -16 -13 -16 -15 -1 -10 9 3 17 1 17 -4 0 -6 -7 -10 -15
-10 -8 0 -15 -2 -15 -5 0 -3 7 -22 15 -42 18 -44 20 -62 3 -45 -18 18 -25 15
-36 -16 -5 -16 -16 -29 -24 -29 -12 0 -13 6 -4 31 6 17 17 37 24 45 10 10 10
17 2 25 -8 8 -13 7 -19 -3 -5 -8 -14 -10 -21 -6 -9 5 -11 4 -6 -3 5 -8 0 -12
-12 -12 -22 0 -35 22 -35 57 0 12 -7 23 -17 26 -14 4 -19 -8 -29 -67 -7 -39
-13 -84 -12 -100 0 -26 -2 -28 -33 -24 -45 5 -37 -19 10 -28 19 -3 34 -11 34
-16 0 -6 -14 -28 -31 -49 -17 -21 -25 -39 -19 -39 6 0 10 -6 7 -12 -2 -7 -10
-12 -17 -10 -18 4 -40 -30 -30 -48 4 -8 5 -20 3 -26 -2 -6 5 -14 17 -17 11 -3
20 -1 20 4 0 5 5 9 10 9 18 0 10 -16 -25 -53 -34 -35 -46 -79 -25 -92 6 -3 10
-11 10 -17 0 -7 -4 -7 -13 1 -15 12 -27 5 -27 -15 0 -17 32 -27 41 -13 4 8 12
8 25 1 12 -7 18 -23 20 -56 1 -41 -1 -46 -17 -41 -16 5 -18 2 -15 -17 3 -13 5
-31 5 -42 1 -17 3 -17 25 -3 17 11 26 13 34 5 8 -8 15 -8 24 -1 7 6 32 13 55
17 l42 6 11 -42 c7 -23 13 -63 13 -89 1 -27 8 -54 14 -60 10 -10 11 5 6 67 -9
110 -9 134 -1 131 4 -1 13 5 20 14 7 9 29 22 48 28 20 6 42 20 50 31 16 22 31
27 27 8 -2 -14 -1 -13 76 7 26 7 58 11 70 10 12 -1 29 -3 38 -4 20 -1 45 -101
60 -236 6 -55 15 -120 20 -145 6 -25 10 -80 10 -122 0 -47 4 -80 11 -84 15 -9
4 201 -17 347 -30 199 -30 211 -10 225 28 21 33 18 45 -26 14 -52 26 -44 33
21 12 97 33 86 61 -31 11 -41 22 -79 26 -83 4 -5 11 16 14 47 5 40 3 64 -8 88
-8 18 -25 59 -36 91 -12 31 -27 57 -33 57 -7 0 -6 4 3 10 9 6 10 10 3 10 -6 0
-15 20 -18 44 -7 46 -39 78 -33 33 5 -40 -17 -29 -29 15 -6 24 -12 45 -14 48
-1 3 -2 12 -3 20 -1 8 -8 15 -16 15 -8 0 -15 6 -15 13 0 7 -7 17 -14 22 -12 7
-11 12 8 27 20 17 21 21 10 46 -13 29 -28 34 -47 15 -8 -8 -15 -8 -25 0 -10 9
-13 5 -11 -18 2 -32 -10 -40 -20 -14 -6 16 -26 11 -26 -7 0 -6 5 -7 10 -4 6 3
10 1 10 -4 0 -6 12 -11 27 -11 14 0 23 -3 20 -7 -4 -3 -2 -12 4 -19 11 -14 4
-34 -11 -34 -5 0 -13 12 -17 28 l-6 27 -13 -30 c-10 -23 -13 -25 -14 -10 0 17
-2 17 -10 5 -14 -22 -12 -30 9 -30 20 0 31 -17 24 -37 -3 -7 -12 -13 -20 -13
-14 0 -14 -3 2 -20 13 -15 16 -29 11 -59 -6 -41 -35 -101 -49 -101 -5 0 -6 4
-3 8 3 4 -9 7 -26 6 -17 -1 -37 0 -44 3 -14 5 -26 43 -13 43 18 0 8 16 -11 17
-14 1 -20 -4 -20 -19 0 -17 -5 -20 -35 -16 -19 2 -35 0 -35 -4 0 -4 7 -8 16
-8 8 0 12 -4 9 -10 -12 -19 -45 -11 -45 10 0 30 -23 23 -41 -12 -22 -46 -38
-47 -36 -2 2 21 8 39 15 42 17 5 15 22 -2 22 -8 0 -17 -7 -20 -16 -3 -8 -11
-12 -16 -9 -8 5 -7 11 1 21 7 9 8 14 1 14 -6 0 -14 -4 -17 -10 -3 -5 -11 -10
-16 -10 -11 0 17 51 44 81 14 15 22 17 32 9 9 -7 16 -6 24 3 8 11 6 18 -9 32
-11 10 -17 22 -14 26 10 16 24 9 24 -11 0 -11 6 -20 13 -20 6 0 23 -3 36 -7
20 -5 23 -3 18 10 -4 10 1 18 14 22 22 7 24 16 7 33 -9 9 -8 12 4 12 9 0 23
-8 30 -18 7 -10 19 -22 27 -26 10 -7 12 -3 6 13 -5 17 -2 21 14 21 12 0 21 -5
21 -11 0 -5 4 -8 9 -4 6 3 14 -2 19 -10 7 -13 10 -12 20 10 15 32 -4 70 -28
55 -8 -5 -18 -6 -24 -3 -5 3 -6 1 -3 -4 4 -6 -4 -13 -18 -15 -29 -6 -28 -7
-15 26 5 14 16 26 24 26 7 0 24 9 37 21 22 18 22 19 3 10 -12 -6 -24 -7 -28
-3 -4 3 -11 0 -16 -8 -8 -12 -10 -9 -10 10 0 20 -2 22 -10 10 -8 -13 -11 -12
-24 5 -9 11 -16 28 -16 39 0 15 -3 16 -15 6 -8 -6 -19 -9 -25 -5 -16 10 -12
45 6 45 8 0 12 -4 9 -10 -3 -5 -2 -10 3 -10 16 0 21 38 6 44 -14 5 -13 84 1
154 5 22 4 32 -4 32 -7 0 -9 -4 -6 -10 3 -5 1 -18 -4 -27 -9 -16 -10 -15 -11
7 -1 23 -2 24 -14 7 -12 -16 -14 -15 -26 13 -14 34 -14 34 -40 20 -14 -7 -21
-6 -27 4 -7 11 -12 10 -27 -5z"/>
<path d="M5812 8014 c-16 -17 -18 -38 -8 -83 7 -29 6 -33 -8 -28 -23 9 -20
-12 4 -31 12 -10 21 -26 21 -37 0 -29 -22 -119 -32 -129 -5 -6 -9 -19 -9 -30
0 -12 -6 -33 -14 -47 -7 -14 -17 -48 -21 -75 l-7 -48 33 32 c18 18 38 32 45
32 7 0 15 6 17 13 4 8 6 8 6 -2 1 -11 7 -9 24 6 22 20 23 20 92 3 39 -10 82
-22 96 -28 15 -6 30 -8 33 -5 12 12 6 33 -9 33 -8 0 -29 9 -47 20 -18 11 -48
20 -65 20 -18 0 -33 4 -33 8 0 4 -23 16 -51 27 l-52 18 8 91 c9 100 8 174 -3
222 -6 27 -9 30 -20 18z"/>
<path d="M5182 7138 c-8 -8 -9 -15 0 -25 13 -17 2 -31 -13 -16 -8 8 -23 -4
-55 -43 -24 -29 -44 -58 -44 -64 0 -6 32 -10 79 -10 l79 0 7 32 c6 25 3 35
-13 49 -14 10 -19 23 -15 37 7 29 -9 56 -25 40z"/>
<path d="M4087 7134 c-3 -6 -11 -40 -18 -76 -12 -65 -12 -66 17 -106 16 -23
34 -43 40 -46 21 -8 62 7 73 27 10 21 11 21 8 2 -2 -16 3 -19 23 -17 14 2 27
6 29 8 5 5 -20 34 -30 34 -19 0 -109 105 -122 143 -7 23 -16 36 -20 31z"/>
<path d="M6621 5338 c-6 -17 -11 -55 -11 -84 0 -29 -5 -99 -12 -154 l-11 -102
26 -24 c15 -14 27 -22 27 -19 0 3 14 -2 30 -12 17 -9 30 -21 30 -25 0 -4 5 -8
11 -8 35 0 109 -147 109 -216 0 -10 7 -32 16 -49 12 -22 14 -45 10 -90 -4 -40
0 -98 14 -175 11 -63 20 -119 20 -124 0 -5 9 -1 20 9 18 17 20 26 14 94 -6 70
-21 153 -58 321 -8 36 -18 110 -22 164 -6 87 -12 109 -45 175 -20 42 -41 90
-45 106 -4 17 -10 35 -14 40 -3 6 -12 30 -19 55 -15 51 -56 136 -70 144 -5 3
-14 -8 -20 -26z"/>
<path d="M16558 17065 c-3 -44 14 -75 43 -75 6 0 17 -7 25 -15 9 -8 26 -15 38
-15 12 0 51 -12 87 -26 35 -15 75 -26 88 -25 14 1 28 -5 33 -11 6 -10 8 -10 8
0 0 8 8 10 25 6 20 -5 27 -1 37 20 10 23 16 26 42 21 30 -7 31 -6 9 9 -12 9
-29 13 -40 10 -15 -6 -16 -4 -5 7 7 7 12 39 12 76 l0 63 -199 0 -199 0 -4 -45z"/>
<path d="M16110 14921 c-195 -99 -192 -96 -198 -139 -2 -15 1 -21 8 -17 5 3
10 -2 10 -14 0 -11 9 -26 20 -34 11 -8 18 -16 15 -19 -3 -3 2 -25 10 -48 9
-24 13 -50 11 -57 -3 -7 -1 -15 4 -18 6 -4 10 0 10 8 0 8 8 14 18 13 11 0 16
5 14 15 -1 11 9 21 30 28 51 18 126 74 139 103 7 17 8 39 3 60 -5 18 -7 48 -5
67 3 31 -15 81 -28 81 -3 0 -31 -13 -61 -29z"/>
</g>
</svg>
