<?xml version="1.0" standalone="no"?>
<!DOCTYPE svg PUBLIC "-//W3C//DTD SVG 20010904//EN"
 "http://www.w3.org/TR/2001/REC-SVG-20010904/DTD/svg10.dtd">
<svg version="1.0" xmlns="http://www.w3.org/2000/svg"
 width="1536.000000pt" height="983.000000pt" viewBox="0 0 1536.000000 983.000000"
 preserveAspectRatio="xMidYMid meet">
<metadata>
Created by potrace 1.16, written by Peter Selinger 2001-2019
</metadata>
<g transform="translate(0.000000,983.000000) scale(0.100000,-0.100000)"
fill="#000000" stroke="none">
<path d="M361 9768 c-7 -35 -16 -94 -21 -133 -33 -249 -33 -246 -20 -271 12
-22 32 -34 28 -16 -1 4 4 20 10 35 7 16 12 37 12 47 0 10 5 22 10 25 6 3 10
18 10 33 0 21 2 24 10 12 5 -8 10 -11 10 -7 0 4 -7 19 -16 32 -15 23 -15 25
11 49 24 23 25 25 8 35 -14 8 -15 12 -5 19 8 5 12 18 11 28 -2 11 0 25 4 32 5
7 3 12 -4 12 -9 0 -9 4 1 15 6 8 9 19 6 24 -4 5 -2 12 4 16 5 3 10 21 10 38 0
24 3 28 10 17 8 -13 10 -12 10 3 0 14 -9 17 -44 17 l-44 0 -11 -62z"/>
<path d="M566 9818 c-4 -11 -32 -233 -67 -528 -5 -47 -14 -123 -20 -170 -5
-47 -14 -114 -20 -150 -5 -36 -21 -146 -35 -245 -33 -239 -52 -338 -77 -410
-29 -84 -22 -217 17 -363 26 -94 14 -107 -69 -77 -29 10 -43 11 -52 3 -25 -20
-37 5 -23 47 8 24 15 33 20 25 15 -24 21 10 27 138 l6 128 -58 34 c-55 33 -83
57 -130 112 -11 13 -35 31 -52 41 l-33 18 0 -946 c0 -735 3 -950 12 -965 10
-16 10 -24 0 -40 -9 -16 -12 -684 -12 -3190 l0 -3170 23 -1 c12 -1 33 -2 47
-3 14 -1 40 -3 58 -4 21 -1 32 -7 32 -17 0 -8 7 -15 16 -15 8 0 12 4 9 10 -10
16 32 12 48 -5 10 -9 17 -11 19 -4 2 6 14 9 27 7 23 -3 23 -3 5 -26 -18 -22
-21 -22 -71 -10 -39 11 -72 11 -130 4 -43 -5 -80 -11 -82 -13 -3 -2 4 -10 15
-17 28 -21 624 -23 624 -2 0 7 -9 16 -20 19 -28 7 -25 36 5 47 13 5 68 12 121
15 53 3 101 8 107 12 5 3 18 6 28 7 11 1 19 6 18 11 0 6 -10 9 -22 7 -12 -1
-27 4 -33 13 -7 9 -29 17 -50 19 -55 5 -57 5 -78 21 -17 13 -17 15 7 39 15 14
38 26 52 26 18 0 25 5 25 20 0 11 7 20 15 20 8 0 15 7 15 15 0 9 9 15 25 15
14 0 25 5 25 10 0 6 -5 10 -11 10 -16 0 1 43 22 58 11 7 19 20 19 27 0 8 11
17 25 21 14 3 25 9 25 13 0 4 8 7 18 8 9 1 42 7 72 12 74 15 258 16 292 2 16
-6 30 -21 34 -35 3 -13 11 -27 18 -29 8 -3 15 -33 19 -74 4 -37 9 -77 12 -88
4 -13 -1 -29 -12 -41 -24 -28 -104 -76 -173 -105 -30 -12 -65 -32 -78 -43 -12
-11 -44 -30 -70 -43 l-47 -22 138 0 c119 -1 142 2 174 19 49 26 83 26 90 0 5
-18 14 -20 80 -20 l74 0 -5 33 c-3 17 -8 55 -10 82 -19 194 -48 360 -71 405
-37 72 -10 185 58 246 72 64 113 79 222 79 92 0 104 -2 154 -30 63 -35 117
-94 157 -170 16 -30 35 -55 42 -55 20 0 14 -12 -30 -57 -23 -23 -39 -46 -35
-49 8 -8 125 24 145 39 6 5 12 6 12 1 -1 -5 -19 -22 -41 -37 l-41 -28 7 -102
c4 -56 11 -129 16 -162 5 -33 9 -90 9 -127 l0 -68 63 0 c49 0 68 4 80 18 16
17 14 20 -23 51 -23 19 -40 42 -40 53 0 23 26 47 53 48 23 0 22 15 -4 52 -15
21 -23 50 -27 97 -4 67 -4 68 27 90 40 29 40 45 0 37 -33 -6 -59 7 -59 29 0
14 93 78 129 90 12 4 38 4 57 0 31 -5 34 -9 34 -40 0 -24 -6 -37 -21 -45 -31
-17 -18 -43 31 -61 39 -14 46 -22 57 -58 15 -53 24 -163 12 -155 -5 3 -9 -2
-9 -10 0 -8 -10 -16 -22 -18 -27 -4 -37 -37 -14 -50 22 -12 20 -47 -4 -83 -11
-17 -20 -33 -20 -37 0 -5 105 -8 233 -8 162 1 227 4 214 11 -23 13 -22 39 2
39 11 0 32 5 46 10 23 9 25 13 14 26 -7 9 -28 23 -47 32 -28 13 -36 24 -38 50
-4 30 0 34 44 55 l47 22 80 -40 c75 -38 80 -42 83 -76 2 -24 -3 -40 -16 -52
-13 -12 -17 -26 -14 -47 l4 -30 2129 0 c2082 0 2129 0 2129 19 0 39 75 44 92
6 11 -25 13 -25 124 -25 118 0 129 4 118 47 -6 23 17 46 39 37 9 -3 24 -23 34
-45 l17 -39 1076 0 c1064 0 1075 0 1088 20 16 26 52 26 85 0 23 -18 40 -20
196 -20 l170 0 -19 43 c-49 106 7 164 96 98 51 -37 78 -68 94 -108 l12 -33
144 0 c169 0 165 -4 104 106 -48 87 -51 121 -14 130 22 6 33 -2 77 -51 57 -63
87 -110 87 -137 0 -46 6 -48 131 -48 65 0 119 1 119 3 0 8 -63 132 -84 165
-33 53 -41 96 -21 116 28 27 48 18 118 -52 71 -71 97 -125 97 -199 l0 -33 64
0 64 0 -2 32 c-1 27 3 33 19 33 14 0 23 -10 30 -33 8 -29 13 -32 47 -32 21 0
47 6 58 12 16 10 24 10 40 0 15 -9 123 -12 439 -12 410 0 419 0 424 20 7 26
48 26 65 0 12 -20 23 -20 1297 -20 1285 0 1285 0 1285 20 0 11 7 23 15 26 19
8 48 -15 41 -33 -4 -10 7 -13 44 -13 l50 0 0 600 0 599 -37 26 c-22 15 -41 21
-46 16 -12 -12 -37 -3 -32 12 2 7 7 26 10 42 l8 30 11 -28 12 -28 28 26 c15
14 31 25 37 25 5 0 9 40 9 91 l0 91 -26 -6 c-27 -7 -64 -36 -46 -36 6 0 6 -10
-1 -25 -7 -14 -19 -25 -27 -25 -12 0 -13 2 -1 9 9 6 10 10 2 12 -8 3 -5 16 8
41 10 21 15 38 11 40 -4 2 -10 26 -13 54 -5 48 -4 52 34 92 21 23 43 42 49 42
13 0 14 475 0 500 -5 10 -17 60 -26 111 -13 75 -22 100 -47 131 -29 36 -34 39
-66 33 -19 -4 -49 -18 -65 -32 -52 -44 -122 -16 -144 58 -14 48 -14 99 -1 115
6 8 8 14 3 14 -5 1 20 11 56 24 84 30 150 65 157 83 3 8 1 25 -6 39 -10 23
-14 24 -78 18 -61 -5 -72 -3 -103 18 -34 23 -35 26 -31 79 2 29 7 56 11 59 4
3 10 15 14 27 10 31 -22 34 -51 5 -22 -22 -24 -22 -55 -6 -38 19 -98 73 -98
88 0 6 -11 34 -25 61 -30 61 -31 90 -6 186 12 48 17 92 14 126 -5 46 -8 52
-27 51 -11 0 -29 3 -38 7 -11 4 -18 3 -18 -4 0 -16 -43 -14 -66 4 -36 27 -41
19 -31 -54 15 -111 -2 -131 -125 -143 -10 -1 -18 -7 -18 -13 0 -5 -9 5 -20 23
-25 40 -34 141 -18 180 26 59 67 74 133 46 l38 -15 -7 28 c-4 15 -10 40 -13
55 -8 42 -31 53 -138 72 -115 19 -175 21 -175 5 0 -23 -51 2 -98 49 -42 40
-51 57 -66 116 -18 75 -15 136 10 157 22 18 64 13 135 -16 53 -23 78 -27 147
-26 68 1 86 5 102 21 23 23 97 28 132 9 28 -15 117 -16 148 -1 14 7 37 21 52
33 57 46 150 30 202 -35 75 -92 80 -113 81 -301 0 -163 2 -172 27 -228 18 -38
33 -57 45 -57 56 -1 116 -111 140 -258 3 -18 9 -35 14 -38 5 -3 9 578 9 1389
l0 1395 -43 -5 c-41 -5 -45 -3 -65 28 -11 19 -30 79 -41 133 -11 55 -24 102
-29 105 -19 14 -52 80 -58 119 -5 33 -3 47 11 62 14 16 17 30 11 74 -8 68 -1
86 33 86 28 0 86 47 96 79 7 23 31 31 63 19 l22 -8 0 1625 0 1625 -2915 0
c-1636 0 -2915 -4 -2915 -9 0 -11 119 -91 136 -91 7 0 15 6 17 13 3 6 6 0 6
-15 1 -16 -3 -28 -9 -28 -22 0 -8 -29 32 -68 71 -71 101 -49 96 69 -2 53 1 72
12 79 22 14 35 12 61 -9 24 -19 24 -23 25 -198 1 -218 1 -232 13 -214 7 10 22
12 57 8 37 -4 53 -1 67 11 14 13 22 14 37 5 15 -10 19 -9 25 5 6 16 7 16 19 0
7 -10 16 -18 20 -18 4 0 12 -5 19 -10 7 -6 21 -17 32 -25 l20 -15 -20 -13
c-11 -6 -31 -14 -45 -17 -14 -3 -26 -11 -26 -18 -1 -6 -2 -20 -3 -31 0 -10
-12 -26 -26 -35 -38 -25 -63 -4 -67 54 -3 39 -6 45 -23 42 -11 -2 -35 -6 -53
-9 -23 -4 -36 -13 -43 -30 -12 -32 -12 -46 1 -38 9 5 15 -15 11 -37 0 -5 6 -8
14 -8 21 0 19 -18 -2 -23 -11 -3 -7 -5 10 -6 15 0 27 -6 27 -12 0 -7 -12 -10
-28 -7 -28 4 -28 3 -27 -48 0 -29 3 -56 7 -59 4 -4 5 1 2 12 -2 10 5 29 16 43
l20 25 25 -30 c14 -16 22 -22 19 -12 -5 13 -1 17 15 17 24 0 27 -10 9 -29 -11
-10 -9 -12 8 -9 11 1 20 -1 20 -5 -2 -14 36 -31 43 -19 11 18 94 -12 169 -62
84 -56 97 -72 110 -141 6 -27 20 -93 32 -145 36 -161 57 -329 59 -470 3 -288
12 -504 21 -521 6 -10 10 -31 10 -47 0 -33 12 -46 50 -55 14 -4 31 -15 37 -26
18 -29 -13 -45 -49 -27 -21 11 -28 10 -47 -5 -54 -44 -121 -3 -106 65 14 59
11 141 -6 226 -9 47 -27 137 -39 200 -20 103 -33 150 -71 270 -6 19 -23 50
-37 69 -37 50 -63 127 -69 206 -2 38 -11 81 -19 95 -7 14 -16 33 -20 43 -3 9
-12 17 -19 17 -10 0 -8 10 6 40 23 47 24 83 4 100 -8 7 -12 16 -9 21 3 5 -1
12 -10 15 -9 3 -12 12 -9 22 4 9 3 14 -2 10 -4 -4 -13 0 -20 9 -14 19 -35 9
-35 -17 0 -10 -7 -20 -15 -24 -8 -3 -15 -13 -15 -23 0 -16 -2 -16 -11 -3 -8
11 -9 7 -5 -17 5 -28 3 -33 -14 -33 -11 0 -20 -7 -20 -15 0 -22 -15 -18 -33 8
l-15 22 -16 -36 c-21 -50 -34 -169 -29 -259 6 -82 -13 -150 -41 -150 -16 0
-52 41 -61 71 -8 26 -59 25 -85 -1 -27 -27 -81 -26 -105 0 -18 20 -18 21 2 48
11 14 31 29 44 32 18 4 25 13 26 35 1 17 5 62 9 101 7 75 8 72 -45 112 -32 25
-23 63 22 90 37 21 47 52 47 148 0 47 -3 54 -36 79 -42 32 -42 58 -1 89 28 21
88 27 119 12 28 -13 36 27 40 185 l3 144 -40 5 c-42 6 -60 15 -166 89 -68 47
-85 64 -125 125 l-26 38 -33 -36 c-18 -20 -40 -36 -50 -36 -27 0 -75 58 -75
91 l0 30 -108 -3 c-106 -3 -107 -3 -104 -27 1 -13 -2 -29 -8 -36 -10 -12 -22
-88 -24 -142 -1 -13 -6 -23 -13 -23 -17 0 -43 86 -50 163 l-6 67 -112 0 c-91
0 -114 -3 -119 -15 -3 -8 -15 -15 -26 -15 -11 0 -23 7 -26 15 -5 12 -28 15
-120 15 l-114 0 -2 -57 c0 -32 -2 -69 -3 -83 -6 -74 -6 -312 0 -358 8 -55 -8
-132 -27 -132 -5 0 -33 22 -61 49 l-52 50 0 88 c0 48 -5 97 -11 108 -6 11 -14
70 -17 131 -7 128 -10 137 -42 154 -14 7 -27 21 -31 32 -5 16 -19 18 -159 18
-92 0 -156 -4 -160 -10 -8 -13 -65 -13 -65 0 0 6 -117 10 -315 10 l-315 0 0
-95 c0 -115 -12 -148 -49 -138 -14 4 -37 7 -51 8 -24 0 -25 -2 -22 -55 3 -66
19 -82 73 -74 31 5 39 3 48 -14 13 -24 14 -71 3 -89 -5 -7 -26 -11 -52 -10
l-45 2 3 -150 c1 -82 13 -271 27 -420 13 -148 29 -326 35 -395 24 -303 31
-393 41 -525 5 -77 28 -336 49 -575 21 -239 41 -482 44 -540 4 -58 9 -138 13
-178 l6 -73 51 -27 c73 -37 106 -37 147 -1 36 32 72 35 77 6 2 -10 -2 -25 -9
-33 -10 -13 -15 -13 -36 1 -22 15 -25 15 -43 -7 -11 -13 -20 -34 -20 -48 -2
-64 -75 -87 -125 -40 -19 18 -28 21 -37 12 -7 -7 -20 -12 -30 -12 -26 0 -23
-36 5 -55 36 -23 110 -30 126 -12 7 9 18 14 25 11 7 -3 18 7 24 20 6 14 23 28
39 32 15 4 40 21 55 38 15 17 28 25 28 18 0 -6 11 -12 25 -12 13 0 30 -6 36
-13 7 -7 26 -11 45 -9 26 3 36 -1 49 -21 9 -14 18 -32 19 -39 2 -7 8 -26 14
-41 7 -16 12 -37 12 -48 0 -11 6 -30 14 -42 8 -12 15 -34 16 -49 3 -61 5 -76
9 -72 3 3 20 -27 38 -65 26 -57 40 -74 71 -90 47 -24 73 -52 55 -58 -8 -3 -11
-14 -7 -29 4 -15 2 -24 -5 -24 -6 0 -11 -9 -11 -21 0 -31 31 -91 44 -86 7 3
19 0 27 -7 12 -8 17 -39 22 -126 4 -63 13 -137 21 -165 8 -27 33 -111 54 -185
92 -317 104 -355 114 -365 7 -7 8 17 4 75 -4 47 -9 132 -11 190 -3 58 -7 119
-10 135 -2 17 -7 109 -10 205 -3 96 -8 207 -11 246 -4 48 -2 74 5 78 6 4 11
18 11 30 0 19 4 22 25 18 16 -3 25 -11 25 -24 0 -10 7 -32 15 -47 11 -22 16
-86 20 -267 3 -132 8 -270 10 -309 3 -38 5 -178 5 -310 1 -132 5 -270 10 -306
9 -61 77 -312 136 -504 22 -69 31 -140 36 -278 0 -17 -8 -37 -21 -50 -29 -30
-56 -13 -56 36 -1 20 -8 44 -16 54 -8 10 -32 71 -54 136 -28 87 -44 123 -62
134 -13 9 -23 25 -23 38 0 12 -7 28 -15 35 -8 7 -15 19 -15 27 0 17 -95 63
-132 63 -18 0 -33 -8 -44 -25 -9 -14 -20 -22 -25 -19 -5 3 -12 -2 -15 -10 -9
-25 -31 -19 -38 10 -7 25 -28 54 -40 54 -11 0 -6 -75 9 -148 9 -40 16 -105 17
-145 2 -94 5 -104 35 -112 18 -4 23 -9 15 -17 -11 -11 -52 -2 -52 13 0 5 -6 9
-14 9 -22 0 -58 143 -67 269 -4 64 -11 124 -14 134 -8 20 -40 22 -78 5 -24
-12 -27 -18 -27 -66 0 -30 5 -95 11 -147 10 -82 9 -96 -6 -119 -17 -26 -49
-35 -60 -16 -3 5 -31 10 -60 10 l-55 0 -30 60 c-16 33 -30 69 -30 82 0 12 -9
51 -21 87 -11 36 -27 89 -35 116 -8 28 -20 70 -28 95 -8 25 -33 115 -56 200
-23 85 -48 165 -56 178 -8 12 -12 27 -9 32 7 11 -98 404 -159 595 -25 77 -53
169 -62 205 -9 36 -20 70 -24 75 -4 6 -11 26 -15 45 -4 19 -16 54 -27 76 -10
23 -18 45 -17 50 1 5 -1 23 -5 39 -9 32 -107 328 -111 333 -1 1 -10 -1 -19 -4
-13 -5 -16 -14 -13 -33 5 -28 97 -381 129 -496 35 -125 56 -199 73 -255 9 -30
27 -98 41 -150 23 -85 31 -119 49 -197 4 -16 13 -23 30 -23 29 0 34 -24 8 -38
-14 -8 -15 -14 -5 -38 6 -16 18 -56 26 -89 8 -33 26 -105 41 -160 14 -55 34
-134 44 -175 29 -117 45 -170 52 -170 7 0 4 40 -12 139 -12 74 -5 92 11 30 31
-117 71 -259 85 -300 8 -26 15 -58 15 -73 0 -14 14 -55 32 -91 25 -49 29 -68
21 -76 -20 -20 -40 6 -47 63 -7 51 -39 158 -57 188 -7 12 -9 11 -10 -5 -1 -11
-1 -29 0 -40 2 -19 44 -161 58 -195 3 -8 5 -19 4 -24 -7 -32 13 -65 51 -82 22
-10 47 -28 55 -41 11 -17 25 -23 52 -23 49 0 63 -11 67 -54 5 -39 -13 -49 -36
-21 -18 21 -37 19 -43 -7 l-6 -21 -18 21 c-10 11 -38 37 -61 56 -53 43 -125
177 -142 263 -6 32 -16 73 -22 91 -5 19 -7 36 -4 39 3 3 -1 15 -9 27 -8 11
-15 34 -15 51 0 37 -22 70 -46 70 -25 0 -39 59 -24 105 10 31 8 46 -24 140
-36 106 -75 227 -100 310 -7 25 -25 83 -39 130 -14 47 -34 122 -46 168 -12 46
-35 127 -52 180 -53 171 -66 215 -89 297 -22 81 -72 246 -156 509 -25 79 -51
147 -58 149 -7 3 -13 22 -14 44 -2 61 -13 111 -25 121 -14 10 -121 49 -237 87
-47 15 -99 33 -117 41 -17 8 -38 14 -47 14 -9 0 -16 7 -16 16 0 13 8 15 44 11
24 -3 52 -10 63 -16 17 -9 113 -45 123 -46 3 -1 21 -8 40 -17 32 -15 125 -48
135 -48 14 0 2 39 -12 45 -10 3 -67 24 -128 45 -60 21 -141 50 -180 64 -38 14
-76 26 -84 26 -8 0 -31 17 -51 38 -20 20 -45 43 -54 50 -16 13 -16 15 -1 32 9
10 36 25 61 34 24 8 64 23 88 31 37 13 52 28 91 85 26 39 54 70 63 70 20 0
207 -95 249 -126 17 -13 44 -47 60 -76 35 -65 88 -108 142 -115 39 -5 41 -4
41 20 0 14 3 32 6 40 4 10 -10 27 -39 49 -26 18 -53 50 -64 73 -12 28 -30 45
-55 58 -21 9 -38 21 -38 25 0 4 -20 6 -45 4 -40 -4 -54 1 -107 37 -34 23 -67
41 -74 41 -7 0 -16 16 -20 36 -4 20 -20 50 -37 67 -28 29 -31 30 -41 13 -6
-10 -19 -29 -30 -43 -25 -33 -43 -16 -28 27 9 24 9 31 0 28 -7 -3 -22 7 -33
20 -16 18 -34 26 -73 30 -48 4 -51 3 -58 -21 -10 -43 27 -91 91 -117 30 -12
55 -25 55 -29 -1 -25 -32 -89 -52 -104 -21 -15 -140 -65 -210 -87 -37 -11 -45
2 -47 80 -3 113 -32 534 -38 560 -5 20 -8 13 -14 -30 -20 -145 -22 -151 -39
-134 -5 5 -10 35 -12 66 -2 38 -7 58 -15 58 -7 0 -13 9 -13 21 0 11 4 18 9 14
17 -10 20 9 26 156 7 140 4 154 -19 107 -20 -40 -58 -35 -105 14 -23 24 -58
59 -77 79 -33 33 -36 41 -39 109 -2 40 1 82 6 93 11 19 9 19 -36 12 -45 -6
-47 -5 -42 14 6 25 -6 29 -71 26 -42 -2 -56 1 -79 21 -15 13 -41 24 -56 24
-15 0 -41 7 -57 15 -33 17 -45 7 -36 -31 5 -20 2 -26 -20 -34 -36 -14 -64 -4
-64 24 0 17 -17 32 -75 65 -77 44 -124 86 -153 133 -8 15 -24 29 -34 31 -29 8
-86 -12 -92 -31 -10 -30 -54 -74 -67 -67 -6 5 -9 21 -6 40 3 17 1 38 -4 46 -6
10 -9 4 -10 -21 -1 -19 -1 -41 0 -47 1 -7 -3 -13 -9 -13 -15 0 -12 -72 5 -106
12 -26 48 -66 102 -115 17 -16 104 -59 118 -59 4 0 33 -16 66 -35 32 -19 65
-32 73 -29 16 6 86 -52 86 -71 0 -7 12 -20 26 -30 26 -17 27 -17 48 10 20 25
23 26 35 11 8 -9 16 -39 19 -65 4 -41 8 -50 27 -53 14 -3 26 2 33 13 9 13 18
16 39 10 26 -7 28 -12 33 -70 4 -53 9 -67 33 -87 51 -44 76 -28 97 62 15 67
16 68 57 80 58 17 80 9 88 -32 3 -19 4 -38 1 -43 -3 -4 -6 -90 -7 -190 l-1
-181 -24 0 c-13 0 -48 12 -79 27 l-55 27 0 92 c0 75 -3 94 -18 107 -39 35 -65
9 -72 -72 -4 -45 -9 -57 -24 -60 -16 -3 -174 64 -236 100 -8 5 -22 12 -30 15
-58 24 -174 82 -220 109 -30 18 -90 51 -133 73 -42 22 -122 66 -177 98 l-99
59 -1 80 c-5 380 -2 458 45 1005 13 157 29 346 35 420 6 74 15 180 20 235 5
55 9 117 10 138 l0 37 -308 0 -308 0 -13 -192 c-7 -106 -16 -237 -22 -292 -5
-54 -12 -177 -16 -273 -3 -95 -10 -176 -15 -179 -4 -3 -22 2 -40 10 -39 20
-42 20 -34 0 4 -9 1 -22 -5 -30 -8 -9 -8 -28 0 -66 12 -56 3 -140 -17 -160
-16 -16 -67 8 -124 56 -52 43 -56 51 -32 77 15 16 13 19 -24 38 -49 25 -57 36
-53 77 1 18 -4 38 -13 47 -9 9 -16 32 -16 51 0 53 -29 68 -127 65 -54 -1 -88
3 -108 13 -17 9 -45 19 -63 23 -32 7 -33 6 -30 -22 3 -27 6 -28 71 -37 62 -8
67 -10 67 -32 0 -30 -14 -31 -34 -3 l-15 22 -7 -27 c-8 -34 -29 -33 -48 2 -10
18 -15 21 -16 10 0 -18 -33 -33 -50 -23 -5 3 -10 14 -10 24 0 9 -6 26 -14 36
-12 17 -17 18 -55 5 -48 -16 -97 -1 -87 26 7 19 -11 39 -44 49 -113 34 -207
101 -245 175 -9 18 -23 30 -35 30 -25 0 -26 18 -1 44 22 25 39 136 21 136 -6
0 -8 5 -5 10 3 6 4 14 1 19 -8 12 -56 -11 -56 -26 0 -7 -3 -13 -7 -13 -13 0
-44 -61 -37 -72 7 -11 -26 -78 -39 -78 -5 0 1 -8 13 -18 l23 -19 -35 -21 c-20
-12 -38 -22 -42 -22 -12 0 -6 28 9 40 13 11 13 14 0 27 -10 10 -15 36 -15 81
l0 67 -19 -24 c-24 -31 -46 -121 -37 -154 3 -15 0 -37 -9 -53 -30 -56 8 -204
55 -219 11 -4 18 -11 15 -16 -4 -5 1 -9 9 -9 8 0 21 -6 28 -13 7 -7 53 -35
101 -61 69 -38 95 -47 122 -44 24 3 35 0 35 -9 0 -7 10 -18 23 -24 12 -7 25
-18 30 -25 4 -7 28 -23 53 -36 26 -12 50 -32 54 -43 4 -11 39 -48 76 -80 38
-33 84 -77 103 -98 40 -44 70 -61 123 -71 22 -4 42 -15 48 -26 15 -27 13 -165
-2 -178 -9 -7 -68 12 -203 67 -104 43 -215 89 -245 103 -74 35 -231 101 -354
149 -56 21 -149 63 -208 91 l-108 52 0 271 c0 148 7 383 15 520 8 138 15 256
15 263 0 18 -1819 18 -1824 0z m7509 -55 c28 -31 38 -59 33 -94 -3 -21 -8 -24
-43 -23 -22 0 -53 6 -70 12 -16 6 -47 14 -67 17 -47 7 -50 30 -10 68 56 53
118 61 157 20z m-385 -23 c11 -6 24 -28 30 -50 9 -35 13 -39 30 -30 48 26 136
-6 173 -63 25 -39 66 -77 82 -77 21 0 20 -56 -1 -64 -9 -3 -20 -3 -26 0 -5 3
-33 7 -61 8 -72 3 -167 50 -187 94 -10 21 -22 32 -37 32 -12 0 -29 10 -37 22
-19 26 -21 109 -4 126 15 15 15 15 38 2z m1345 -170 c3 -11 10 -20 14 -20 5 0
11 -13 15 -30 7 -39 19 -38 39 5 18 38 47 47 47 16 0 -11 4 -22 9 -26 6 -3 6
-17 1 -35 -6 -21 -4 -32 7 -41 8 -7 21 -29 29 -49 10 -24 26 -42 47 -51 34
-15 39 -43 12 -65 -22 -16 -16 -86 7 -92 10 -2 18 -7 19 -11 13 -151 8 -221
-16 -221 -16 0 -20 -16 -16 -63 1 -16 -3 -34 -9 -42 -21 -25 -8 -59 28 -70 26
-7 32 -14 32 -38 0 -15 -4 -26 -9 -23 -5 4 -7 -3 -4 -15 5 -18 2 -19 -23 -14
-24 5 -26 4 -11 -5 9 -6 17 -18 17 -25 0 -8 7 -15 15 -15 8 0 16 -6 17 -12 1
-15 5 -31 8 -38 9 -21 7 -80 -3 -80 -8 0 -8 -3 1 -12 16 -16 15 -28 -3 -28 -8
0 -15 -4 -15 -10 0 -5 7 -10 16 -10 11 0 14 -5 10 -16 -3 -9 -6 -20 -6 -25 0
-5 -6 -9 -13 -9 -20 0 -39 -54 -28 -83 5 -14 8 -27 5 -29 -2 -3 -4 -46 -5 -97
-1 -69 -4 -94 -15 -98 -19 -7 -18 -39 1 -47 8 -3 15 -17 15 -31 0 -23 -4 -26
-26 -23 -35 4 -53 31 -38 56 8 12 8 25 1 42 -17 41 -36 113 -37 139 0 16 -4
21 -15 18 -19 -8 -24 2 -31 65 -3 29 -7 60 -9 68 -2 8 -7 65 -10 125 -3 61 -8
148 -10 195 -15 229 -24 573 -17 597 2 7 8 10 13 7 5 -3 9 0 9 5 0 6 -3 11 -8
11 -8 0 -25 38 -37 80 -4 14 -15 33 -23 43 -19 21 -31 147 -14 147 6 0 14 -9
17 -20z m-5441 -562 c-3 -18 -9 -44 -13 -58 -4 -14 -4 -38 0 -54 5 -16 6 -33
3 -37 -2 -4 0 -10 6 -14 15 -9 12 -67 -5 -89 -8 -11 -15 -34 -15 -51 0 -17 -7
-40 -15 -51 -13 -16 -16 -17 -25 -4 -13 19 -3 100 15 120 10 11 11 20 4 33 -6
9 -7 17 -4 17 4 0 -5 14 -20 32 -24 28 -27 38 -21 81 3 28 12 57 21 67 8 9 15
22 15 28 0 7 13 12 30 12 28 0 29 -2 24 -32z m7491 -238 c3 -11 12 -20 19 -20
7 0 31 -14 52 -31 22 -17 57 -40 79 -51 22 -11 51 -30 65 -43 14 -13 50 -36
80 -51 30 -16 61 -34 68 -41 9 -9 26 -11 46 -8 42 8 57 -10 89 -110 22 -68 27
-101 29 -223 3 -120 6 -145 19 -153 10 -5 19 -28 23 -56 4 -27 12 -76 18 -110
12 -67 2 -98 -29 -86 -25 10 -11 -64 21 -111 14 -21 26 -46 26 -54 0 -26 51
-145 76 -179 29 -39 30 -54 3 -79 -12 -10 -26 -30 -31 -44 -12 -32 -18 -130
-8 -130 4 0 10 -14 12 -32 6 -39 -25 -77 -48 -57 -16 13 -19 65 -4 74 19 12
10 63 -17 95 -24 29 -25 35 -15 64 17 46 15 53 -13 60 -33 8 -48 39 -56 111
-11 105 -39 207 -79 295 -62 136 -72 191 -75 399 l-3 183 -41 37 c-26 23 -53
38 -73 39 -18 2 -35 6 -38 11 -6 9 -119 37 -166 40 -14 1 -44 66 -44 97 0 14
-6 37 -14 52 -7 15 -16 42 -19 60 -11 54 33 100 48 52z m-7285 -159 c0 -40 13
-61 25 -41 3 5 13 10 21 10 21 0 7 -19 -21 -30 -29 -11 -35 -48 -35 -217 0
-143 -9 -170 -54 -159 -21 5 -22 4 -14 -67 10 -107 9 -245 -2 -252 -18 -11
-28 37 -39 174 -10 121 -9 135 6 146 15 11 11 15 -30 33 -53 23 -53 26 -38
147 5 33 4 65 -1 71 -5 7 -2 16 7 24 10 9 15 31 15 74 0 54 3 65 31 94 26 28
37 32 80 32 l49 0 0 -39z m7350 -203 c0 -10 4 -18 9 -18 10 0 21 -55 25 -135
4 -66 3 -61 28 -84 30 -29 46 -83 53 -175 3 -44 8 -83 11 -87 3 -5 5 -30 5
-56 1 -27 8 -55 16 -65 8 -9 12 -21 9 -27 -3 -5 -8 -69 -11 -143 -3 -73 -8
-146 -11 -162 -6 -27 -53 -105 -64 -106 -3 0 -13 17 -23 38 -15 31 -17 65 -17
212 1 175 -8 276 -32 380 -7 30 -13 105 -14 165 0 71 -7 131 -18 170 -18 61
-23 146 -10 166 8 14 43 -46 44 -73z m845 46 c24 -24 152 -66 215 -70 63 -5
88 -24 99 -75 6 -29 12 -34 45 -41 22 -5 45 -16 52 -26 18 -23 18 -66 0 -59
-26 10 1 -84 35 -117 30 -29 30 -30 24 -105 l-7 -76 30 -16 c26 -14 31 -25 40
-80 9 -62 49 -170 65 -177 4 -2 7 -7 7 -12 0 -4 20 -38 45 -75 43 -64 45 -70
39 -119 -8 -65 -19 -84 -49 -92 -36 -9 -70 2 -109 37 -50 43 -53 62 -17 105
16 20 27 42 24 49 -6 18 -57 38 -100 39 -33 1 -38 -2 -47 -32 -9 -31 -7 -36
22 -58 50 -40 65 -132 26 -165 -8 -6 -14 -22 -14 -36 0 -30 -16 -36 -68 -25
-28 7 -44 6 -53 -2 -9 -8 -11 -7 -6 5 3 9 1 21 -5 27 -19 19 -12 85 11 103 12
10 21 23 21 29 0 7 9 28 21 46 20 33 20 34 1 34 -13 0 -22 9 -26 26 -5 17 -12
24 -21 20 -16 -6 -71 19 -82 37 -14 22 -9 107 6 107 7 0 11 -6 8 -14 -4 -9 5
-21 19 -31 14 -9 22 -21 18 -27 -4 -7 -3 -8 4 -4 6 3 16 -3 23 -16 l12 -22 18
23 c11 14 17 32 13 45 -2 11 -5 32 -5 46 0 14 -8 65 -17 113 -13 69 -13 92 -4
107 6 11 15 37 18 59 8 49 -5 57 -61 38 -27 -9 -68 -11 -128 -8 -49 4 -94 3
-100 -1 -17 -10 -1 -314 18 -341 24 -34 19 -107 -9 -142 -29 -36 -46 -30 -78
27 -20 34 -20 41 -8 91 9 38 10 85 5 158 -9 134 -9 264 0 310 7 35 6 36 -19
32 -25 -5 -26 -3 -24 28 1 19 11 49 21 67 14 24 18 43 13 75 -16 111 -18 180
-4 188 18 12 24 11 43 -7z m-2165 -145 c0 -6 8 -8 19 -4 15 4 21 -3 31 -40 11
-38 10 -60 -5 -143 -10 -53 -26 -114 -37 -134 -10 -21 -18 -53 -18 -73 0 -19
-4 -35 -10 -35 -5 0 -10 -9 -10 -21 0 -11 -4 -18 -9 -15 -5 3 -12 -20 -16 -52
-3 -31 -10 -73 -15 -92 -4 -19 -11 -75 -14 -125 l-6 -90 32 -18 c32 -18 33
-18 48 1 8 11 23 34 32 51 16 28 20 31 39 20 18 -9 21 -17 15 -53 -9 -65 -25
-111 -46 -135 -15 -19 -19 -36 -17 -95 1 -51 -2 -78 -12 -90 -12 -15 -12 -23
-2 -53 11 -28 11 -37 1 -43 -10 -6 -10 -18 -2 -49 14 -57 -4 -269 -26 -293
-17 -20 -47 -24 -57 -8 -7 11 -48 14 -58 4 -11 -11 15 -65 27 -56 17 13 54 7
76 -13 27 -25 34 -68 16 -104 -12 -23 -14 -36 -6 -57 8 -21 14 -24 22 -16 7 7
29 12 49 12 47 0 69 8 63 23 -8 25 15 40 72 46 56 6 59 8 64 36 4 24 10 30 30
30 21 0 25 -5 25 -30 0 -24 6 -32 30 -40 23 -8 31 -17 33 -41 2 -21 12 -35 33
-48 37 -22 46 -45 45 -116 -1 -49 -4 -56 -27 -67 -22 -11 -34 -10 -70 2 -47
17 -79 41 -79 60 0 7 -9 24 -20 37 -10 14 -17 28 -14 31 14 14 -76 17 -107 3
-19 -8 -27 -15 -17 -15 10 -1 22 -10 28 -21 8 -16 8 -20 -2 -18 -7 2 -12 -4
-10 -14 3 -16 0 -16 -35 -2 -27 12 -42 13 -54 6 -13 -8 -22 -5 -40 14 -13 14
-49 36 -80 50 -66 30 -91 54 -109 105 -15 42 -8 81 20 109 20 20 20 20 0 43
-12 12 -23 32 -27 45 -9 37 3 99 26 128 28 35 26 60 -4 96 -21 24 -25 37 -20
62 15 72 26 104 40 116 25 21 19 91 -10 119 -29 27 -30 40 -11 106 14 44 13
51 -3 84 -26 49 -24 113 3 175 15 33 25 80 28 131 4 58 13 96 32 135 23 48 25
56 11 66 -19 14 -19 43 0 68 8 11 15 30 15 42 0 12 9 28 19 35 15 10 24 38 36
108 8 52 20 100 25 106 6 7 7 15 3 18 -3 4 -1 7 5 7 7 0 12 -5 12 -11z m3152
-129 c59 -60 19 -130 -74 -130 -25 0 -48 -3 -51 -7 -4 -3 -20 -7 -37 -7 -21
-1 -30 4 -30 15 0 9 -6 22 -14 28 -22 18 -25 46 -9 79 19 40 46 51 122 50 57
0 68 -3 93 -28z m-7367 -161 c26 -15 33 -25 26 -32 -6 -6 -11 -33 -11 -60 0
-48 -13 -85 -34 -99 -14 -9 -22 -3 -40 33 -22 44 -7 179 20 179 1 0 19 -10 39
-21z m-2693 -93 c58 -27 248 -95 288 -103 14 -3 31 -10 38 -16 18 -14 246
-115 279 -123 15 -4 77 -31 138 -61 60 -29 122 -53 137 -53 31 0 117 41 140
67 8 10 37 55 63 101 26 45 49 82 51 82 6 0 -21 -53 -62 -121 -34 -56 -43 -86
-24 -74 6 3 10 1 10 -4 0 -6 -5 -11 -11 -11 -20 0 -39 -29 -39 -58 0 -17 -6
-33 -12 -36 -7 -3 -3 -3 8 -1 13 3 24 0 27 -8 2 -7 33 -28 68 -46 35 -18 69
-38 74 -45 6 -7 29 -21 52 -31 36 -16 45 -26 57 -64 18 -58 30 -181 17 -181
-5 0 -12 11 -15 25 -6 25 -39 35 -51 15 -8 -13 -40 -13 -63 -1 -9 5 -25 12
-34 15 -10 3 -18 15 -18 26 0 16 -6 20 -36 20 l-36 0 20 -32 c11 -18 34 -55
51 -83 50 -82 105 -194 140 -290 18 -49 40 -95 48 -102 11 -9 17 -49 24 -160
24 -409 46 -799 59 -1023 13 -235 18 -312 30 -430 5 -52 12 -147 15 -210 4
-63 9 -149 11 -190 3 -41 6 -157 7 -257 2 -100 6 -186 10 -189 4 -4 8 8 8 27
1 20 4 10 8 -26 14 -127 -14 -194 -82 -195 -24 0 -27 3 -21 25 5 20 2 25 -13
25 -10 0 -27 6 -38 14 -11 7 -34 17 -51 20 -37 8 -41 19 -50 121 -4 39 -10 75
-14 80 -4 6 -13 44 -20 85 -7 41 -18 104 -26 140 -8 40 -10 66 -4 68 6 2 9 16
9 30 -1 17 -3 21 -6 9 -2 -9 -9 -15 -14 -11 -6 4 -6 11 2 20 8 10 16 11 31 3
18 -10 19 -7 16 23 -3 30 -7 34 -43 41 -22 5 -49 14 -60 20 -11 6 -32 17 -47
25 -16 7 -28 20 -28 28 0 8 -4 14 -9 14 -4 0 -6 11 -4 24 6 28 1 32 -50 41
-33 6 -37 5 -37 -13 0 -11 11 -34 25 -50 22 -26 23 -31 10 -42 -8 -7 -15 -24
-16 -39 0 -24 -2 -23 -13 9 -12 32 -16 35 -52 35 l-39 0 3 -60 c3 -70 36 -251
57 -315 8 -25 13 -61 13 -81 -2 -34 -3 -35 -17 -18 -15 18 -147 47 -159 35
-10 -11 9 -36 28 -36 24 0 25 -8 3 -40 -16 -22 -16 -24 5 -38 17 -11 22 -24
22 -60 0 -43 -1 -45 -16 -26 -11 13 -17 15 -20 6 -11 -26 -24 1 -18 39 8 46
-10 54 -20 8 -3 -19 0 -42 9 -60 9 -17 11 -29 5 -29 -5 0 -10 7 -10 16 0 9 -9
18 -20 21 -25 7 -28 64 -5 87 11 10 12 17 4 22 -9 5 -9 36 -4 113 5 58 8 136
8 174 0 37 4 67 10 67 5 0 6 8 3 17 -4 10 -3 14 1 9 8 -8 44 154 36 166 -2 5
-17 8 -33 8 -16 0 -40 4 -54 10 -22 8 -26 7 -26 -8 -1 -9 -3 -42 -6 -72 -2
-30 -6 -95 -8 -145 -4 -98 -13 -153 -28 -172 -5 -6 -10 -41 -10 -77 -1 -44 -6
-67 -15 -70 -9 -4 -13 3 -13 20 0 17 -4 23 -12 18 -8 -5 -9 -2 -4 12 5 10 12
30 16 44 9 26 30 316 30 413 0 56 0 57 -29 57 -17 0 -33 -4 -36 -10 -3 -6 -11
-10 -17 -10 -15 0 -4 116 13 136 7 8 16 47 20 87 20 194 32 284 40 299 5 9 7
132 5 272 -3 151 -1 258 5 261 9 6 13 -27 9 -72 -1 -13 3 -23 9 -23 6 0 11 17
12 38 0 35 1 35 10 12 6 -14 12 -54 15 -90 3 -36 11 -87 19 -115 7 -27 16 -62
19 -77 4 -16 11 -27 18 -25 7 1 11 -17 12 -49 1 -33 7 -59 18 -70 9 -11 18
-35 19 -54 2 -19 9 -45 17 -56 13 -23 13 -59 -2 -82 -4 -7 -5 -21 -1 -30 17
-44 33 -162 27 -207 l-5 -50 24 17 c13 9 23 23 21 32 -4 25 13 19 28 -9 20
-37 32 -31 25 13 -5 32 -4 34 5 12 6 -13 19 -32 29 -42 18 -16 19 -15 14 25
-7 54 5 43 21 -20 9 -37 17 -49 34 -51 12 -2 22 2 22 9 0 6 -27 91 -60 188
-109 324 -225 763 -245 931 -6 52 -62 199 -77 200 -9 0 -22 -126 -13 -139 3
-6 2 -11 -3 -11 -5 0 -14 60 -19 133 -8 111 -11 128 -20 107 l-12 -25 -2 25
c-1 16 -3 19 -6 8 -2 -9 -11 -19 -20 -22 -12 -5 -14 -1 -9 16 3 13 6 42 6 65
0 40 2 42 35 49 25 4 35 11 35 25 0 23 -48 38 -60 19 -4 -7 -11 7 -15 36 l-8
49 -13 -65 c-7 -36 -13 -119 -12 -185 0 -66 -2 -136 -6 -156 -5 -23 -4 -39 3
-43 7 -5 3 -18 -12 -37 -20 -28 -22 -41 -20 -152 2 -102 6 -133 26 -187 35
-93 45 -352 23 -605 -20 -229 -25 -267 -38 -307 -19 -64 -29 -114 -46 -248
l-17 -135 -30 -1 -30 0 2 -89 c1 -55 -2 -83 -8 -74 -5 9 -8 -11 -7 -56 l1 -70
7 55 7 55 1 -68 c2 -48 -1 -66 -9 -61 -8 4 -9 -4 -4 -27 5 -19 8 -132 9 -251
l0 -217 -30 -38 c-35 -43 -77 -54 -109 -28 -18 15 -19 16 -1 11 26 -9 86 15
86 34 0 9 -3 11 -8 5 -4 -5 -27 -11 -52 -11 -86 -3 -84 -2 -70 -19 11 -13 10
-14 -4 -9 -18 7 -24 84 -6 84 6 0 10 -5 10 -11 0 -8 4 -8 13 -1 6 5 33 13 60
16 49 8 55 14 35 35 -11 10 -9 12 6 9 10 -1 21 4 24 12 3 8 2 12 -2 8 -4 -3
-23 0 -41 8 -45 18 -45 18 -45 -11 0 -31 -17 -33 -23 -2 -4 18 -4 17 -6 -6 -1
-22 -5 -27 -18 -24 -10 3 -30 8 -44 11 -24 5 -27 11 -27 52 -2 71 -39 272 -54
289 -4 5 -8 28 -8 52 0 30 -5 45 -15 49 -11 5 -15 22 -15 69 0 120 -1 122
-105 171 -60 28 -102 42 -125 40 -30 -2 -34 1 -48 36 -8 21 -19 38 -24 38 -4
0 -17 9 -28 20 -12 12 -25 18 -30 15 -14 -9 -4 -191 19 -315 11 -63 34 -155
50 -205 27 -85 31 -90 62 -98 19 -5 37 -12 41 -16 5 -4 13 -55 19 -114 9 -79
9 -111 0 -121 -8 -9 -8 -28 -1 -66 5 -29 10 -54 10 -56 0 -2 -7 -1 -16 3 -14
5 -15 3 -6 -14 9 -16 7 -23 -9 -37 -32 -27 -69 -38 -69 -21 0 9 6 12 15 9 10
-4 15 0 15 14 0 19 -4 21 -57 16 -33 -3 -63 -12 -69 -20 -29 -37 -67 -1 -44
41 7 13 10 33 7 45 -4 15 -2 19 6 11 7 -5 24 -9 39 -8 22 2 28 7 29 27 1 21 2
22 6 5 8 -30 25 -36 45 -15 32 35 26 42 -41 46 -59 4 -116 25 -133 49 -5 7 -8
6 -8 0 0 -6 5 -16 11 -22 6 -6 8 -16 4 -22 -10 -17 -38 16 -31 36 5 11 -4 26
-25 46 -25 22 -29 31 -19 37 7 5 18 23 24 42 6 18 18 33 26 33 22 0 30 15 30
63 0 41 -1 43 -27 40 -22 -2 -29 -10 -34 -35 -8 -41 -26 -63 -50 -63 -23 0
-24 13 -4 30 12 10 15 10 15 0 0 -8 3 -10 8 -6 4 4 8 42 8 84 1 42 14 135 29
206 14 72 27 147 27 167 0 23 6 40 15 43 9 4 13 17 11 38 -3 28 -9 34 -43 46
-22 8 -55 20 -72 28 -31 13 -33 12 -33 -6 0 -10 -4 -21 -9 -25 -6 -3 -10 -13
-10 -23 -1 -87 -12 -282 -17 -302 -3 -14 -6 -78 -5 -143 1 -98 -2 -119 -15
-124 -21 -8 -41 15 -49 57 -5 26 -4 31 4 20 9 -12 11 -9 10 15 -1 36 18 208
31 285 20 112 32 239 26 256 -5 14 -15 16 -52 10 -55 -7 -93 -33 -94 -63 0
-13 -4 -23 -10 -23 -5 0 -10 -9 -10 -20 0 -11 -8 -28 -17 -38 -10 -10 -19 -27
-21 -37 -7 -53 -22 -126 -27 -135 -3 -6 -1 -10 5 -10 7 0 5 -7 -4 -16 -11 -11
-14 -24 -9 -42 4 -15 7 -38 8 -52 0 -24 -2 -25 -63 -23 -71 2 -251 38 -297 59
-17 8 -40 29 -50 47 -18 29 -20 55 -23 282 -3 254 -7 298 -22 260 -6 -14 -9
-3 -10 38 -4 121 0 143 10 47 4 -38 7 28 7 160 0 124 -2 213 -4 197 -2 -15 -9
-25 -14 -22 -5 4 -5 -5 1 -20 7 -19 6 -33 -2 -48 -11 -19 -14 -10 -21 72 -5
55 -5 96 0 100 11 7 10 52 -1 69 -4 7 -2 12 3 12 6 0 11 7 11 15 0 8 -5 15
-11 15 -7 0 -8 16 -3 53 10 71 6 301 -6 305 -6 2 -10 24 -10 48 0 32 3 43 12
38 8 -5 9 -2 4 12 -17 43 -18 80 -2 93 14 12 16 4 18 -85 1 -55 3 -124 4 -154
1 -30 3 -140 4 -245 4 -202 18 -301 19 -130 2 164 -20 747 -28 790 -7 30 -8
18 -7 -52 1 -51 -2 -89 -6 -85 -4 4 -9 110 -10 235 -3 193 -1 229 12 238 13 9
12 10 -2 5 -14 -4 -18 1 -19 22 -1 15 -3 54 -5 87 -1 33 -3 60 -4 60 0 0 -2
88 -5 195 -2 107 -6 222 -9 255 -3 33 -8 113 -11 178 -5 134 -13 150 -78 154
-38 3 -39 2 -32 -25 5 -15 9 -193 10 -397 1 -203 6 -486 10 -628 7 -220 6
-257 -7 -252 -11 4 -13 28 -12 108 0 56 -2 107 -5 112 -3 6 -6 69 -8 140 -1
72 -5 177 -8 235 -3 58 -6 120 -5 138 2 124 0 166 -11 217 -1 6 -5 -15 -9 -45
-4 -30 -4 -62 0 -70 3 -8 4 -52 1 -98 -3 -46 -2 -87 3 -92 6 -6 5 -20 -3 -36
-8 -19 -9 -30 -1 -39 8 -10 8 -15 0 -20 -7 -4 -8 -20 -4 -43 4 -21 7 -83 8
-139 0 -56 4 -105 9 -109 10 -10 9 -44 -1 -44 -5 0 -7 -30 -5 -67 2 -38 5
-135 6 -218 1 -82 5 -154 8 -160 11 -17 8 -110 -3 -116 -7 -4 -8 -14 -2 -25 9
-22 11 -34 17 -179 3 -77 8 -110 17 -113 10 -4 12 4 7 30 -5 36 6 68 20 54 10
-10 17 -226 8 -283 -5 -34 -10 -43 -21 -39 -19 7 -30 -22 -15 -37 8 -8 11 -8
11 1 0 17 17 15 24 -4 9 -22 -3 -37 -19 -24 -9 8 -14 6 -19 -6 -4 -10 -1 -21
5 -25 7 -4 9 -17 5 -32 -4 -18 -1 -29 9 -34 9 -6 17 -29 19 -62 3 -30 11 -58
18 -62 10 -7 10 -9 0 -9 -10 0 -11 -38 -7 -177 9 -324 16 -508 21 -526 8 -25
-22 -67 -46 -67 -24 0 -25 -8 -4 -38 8 -12 13 -26 10 -31 -10 -15 6 -43 20
-37 10 4 14 -3 14 -19 0 -56 -37 -7 -64 85 -18 60 -20 103 -31 1005 -3 259 -7
513 -10 565 -3 52 -7 192 -10 310 -3 118 -8 251 -10 295 -2 44 -7 208 -10 365
-10 456 -13 524 -21 544 -12 31 -32 -66 -28 -137 2 -34 -1 -89 -6 -122 -5 -33
-14 -150 -20 -260 -5 -110 -15 -263 -20 -340 -20 -286 -32 -494 -36 -635 -2
-80 -6 -158 -8 -175 -5 -32 -9 -193 -6 -210 1 -5 2 -29 1 -52 -1 -34 -4 -41
-16 -37 -12 5 -14 19 -10 68 3 33 12 282 20 551 9 270 20 624 25 788 13 376
13 410 0 402 -6 -4 -10 9 -10 32 0 26 -3 34 -9 24 -7 -11 -10 -9 -15 10 -3 13
-3 -9 0 -48 2 -46 0 -73 -6 -73 -5 0 -10 9 -10 20 0 28 -39 65 -53 51 -7 -7
-14 -5 -23 7 -11 14 -15 15 -23 3 -7 -11 -10 -10 -13 5 -2 10 -4 -2 -4 -28 1
-25 3 -45 6 -43 7 4 1 -136 -7 -155 -3 -8 -6 -57 -7 -109 0 -55 -5 -96 -11
-98 -7 -2 -10 22 -9 67 2 38 -2 70 -7 70 -5 0 -9 -10 -8 -22 0 -13 -3 -44 -7
-70 -12 -87 -22 -40 -20 96 1 74 -1 156 -4 183 -6 45 -7 47 -18 23 -10 -24
-11 -24 -11 10 -1 19 4 64 10 100 7 36 12 121 13 190 1 69 6 189 11 268 7 120
6 143 -6 140 -8 -2 -15 7 -17 20 -5 31 -14 28 -54 -18 -37 -42 -40 -54 -53
-273 -2 -34 -6 -108 -10 -164 l-6 -101 33 8 c18 5 43 12 55 15 29 9 29 10 2
-249 -23 -224 -35 -310 -39 -261 l-2 30 -10 -35 c-6 -19 -13 -29 -16 -21 -4
11 -6 11 -13 0 -5 -9 -9 10 -10 51 0 36 -4 90 -8 120 l-7 55 -7 -45 c-4 -25
-12 -85 -18 -135 -9 -79 -8 -91 6 -101 13 -10 14 -17 6 -33 -7 -13 -8 -22 -1
-26 5 -3 10 -15 10 -27 0 -17 -3 -18 -15 -8 -18 15 -25 -9 -28 -90 -1 -40 2
-54 10 -52 14 2 18 -27 14 -93 -4 -61 -17 -77 -29 -35 -8 32 -10 28 -17 -50
-4 -47 -10 -79 -12 -73 -5 14 24 409 34 462 4 24 2 32 -6 27 -6 -4 -11 -25
-11 -46 0 -46 -13 -58 -32 -31 -9 13 -19 17 -27 12 -8 -5 -25 -3 -40 5 -14 8
-36 14 -48 14 -13 0 -23 5 -23 10 0 6 -9 10 -21 10 -13 0 -23 -10 -31 -31 -8
-23 -15 -29 -29 -26 -11 3 -19 2 -19 -1 0 -4 -15 -8 -33 -9 -28 -2 -36 2 -46
23 -14 31 -34 27 -41 -9 -3 -15 -13 -36 -23 -48 -14 -15 -16 -24 -8 -32 14
-14 14 -204 0 -246 -11 -30 -29 -43 -29 -19 0 26 -19 -9 -23 -42 -2 -19 -5 49
-5 153 -1 114 -6 187 -12 187 -5 0 -19 -18 -30 -40 -11 -22 -25 -40 -32 -40
-7 0 -9 -17 -3 -57 9 -68 9 -95 1 -185 -3 -41 -1 -80 7 -100 l11 -33 7 30 c9
38 12 -90 9 -389 -1 -178 1 -227 11 -221 9 6 11 -30 6 -167 -6 -173 -21 -303
-37 -313 -21 -13 -24 314 -4 430 4 22 -1 37 -15 54 -20 23 -21 36 -22 310 -1
157 -4 311 -8 341 l-7 55 -8 -50 c-5 -27 -11 -54 -15 -60 -10 -17 -17 228 -7
270 l10 40 8 -35 c4 -19 5 -54 2 -76 -3 -23 -2 -44 3 -47 6 -4 11 33 12 90 1
76 -1 94 -12 90 -9 -3 -13 5 -14 30 -1 20 -10 44 -22 57 -12 13 -21 36 -21 53
0 24 6 33 29 43 20 8 32 21 36 41 8 34 25 29 25 -7 0 -20 11 -31 23 -21 2 1
11 -6 21 -15 10 -10 28 -18 42 -18 13 0 24 -6 24 -12 0 -7 6 -4 12 6 13 23 2
375 -12 390 -5 5 -3 20 4 35 7 14 17 47 20 74 l7 47 42 -6 c52 -8 143 -42 224
-83 38 -19 64 -27 68 -21 4 6 4 39 1 74 -8 76 -1 96 29 96 32 0 55 40 55 95 0
25 4 76 10 113 5 37 14 130 20 207 22 269 40 300 167 282 13 -2 26 -6 29 -10
14 -14 47 -6 76 18 37 31 61 31 167 0 47 -14 86 -25 86 -25 1 0 7 17 13 38 21
67 74 108 106 83 6 -4 25 -11 41 -15 38 -8 82 -25 335 -125 156 -61 216 -80
250 -80 25 1 63 -6 86 -15 26 -11 62 -16 100 -14 58 3 59 3 59 -24 0 -19 10
-33 38 -52 21 -14 44 -26 52 -26 8 0 17 -4 20 -10 3 -5 16 -10 27 -10 12 0 49
-15 84 -34 34 -19 65 -32 68 -29 3 4 6 32 6 64 0 48 3 57 20 62 11 3 20 10 20
15 0 6 -9 9 -20 7 -15 -3 -20 2 -20 16 0 11 4 18 9 15 5 -3 11 1 15 9 3 10 -1
15 -14 15 -23 0 -31 35 -26 108 4 52 27 102 47 102 6 0 33 -16 59 -35 l48 -35
11 48 c19 74 35 92 81 92 22 0 63 -11 92 -24z m10541 -57 c40 -11 47 -28 21
-50 -20 -17 -220 -17 -236 -1 -6 6 -17 8 -24 5 -8 -3 -14 -1 -14 4 0 5 21 15
48 22 26 7 58 17 72 21 35 12 89 12 133 -1z m247 -258 c13 -25 13 -78 0 -86
-13 -8 -29 -11 -185 -31 -192 -24 -252 -20 -317 24 l-38 25 25 25 c22 22 38
26 123 34 53 4 133 9 177 9 44 1 98 5 120 9 66 13 84 11 95 -9z m-7828 -286
c26 -3 49 -5 50 -4 2 1 13 -3 25 -10 41 -21 50 -58 58 -219 6 -120 11 -154 23
-161 23 -13 7 -28 -54 -50 -64 -25 -88 -27 -81 -7 8 20 -13 36 -46 36 -18 0
-42 11 -64 30 -18 17 -38 30 -44 30 -5 0 -57 23 -114 50 -57 28 -106 50 -109
50 -2 0 -6 -9 -9 -20 -6 -24 -52 -28 -61 -4 -3 8 -10 12 -16 9 -6 -4 -10 5
-10 19 0 32 -13 33 -33 4 -13 -18 -16 -19 -16 -7 -1 14 -7 16 -38 8 -53 -12
-51 -13 -62 29 -14 47 -14 75 -1 67 5 -3 18 -1 29 5 16 8 48 0 153 -36 73 -25
166 -56 206 -69 41 -13 80 -29 87 -35 15 -13 152 -60 174 -60 14 0 15 13 10
97 -4 54 -7 115 -8 136 -1 20 -5 37 -11 37 -10 0 -120 80 -120 87 0 2 8 2 18
0 9 -3 38 -8 64 -12z m7396 10 c19 -5 22 -10 16 -28 -4 -12 -12 -25 -18 -30
-13 -9 31 -46 56 -47 27 0 48 11 48 27 0 7 11 25 25 38 54 55 147 19 160 -61
3 -22 10 -65 16 -97 9 -49 8 -63 -6 -83 -14 -22 -22 -24 -85 -24 -38 0 -71 -4
-75 -9 -3 -6 7 -21 21 -35 26 -24 54 -84 54 -118 0 -11 21 -30 53 -48 30 -17
60 -42 67 -58 8 -17 14 -76 16 -157 2 -71 6 -168 10 -215 3 -47 7 -152 10
-235 4 -164 14 -205 49 -205 25 0 35 -17 35 -60 0 -41 -10 -60 -30 -60 -11 0
-22 -4 -25 -10 -10 -16 -23 -12 -30 9 -3 11 -28 43 -55 72 -56 60 -58 65 -139
471 -27 135 -59 268 -71 295 -11 28 -28 76 -36 109 -8 32 -21 81 -27 107 -15
58 -27 66 -92 66 -67 0 -126 30 -164 84 -23 34 -31 60 -40 134 -18 147 -1 164
169 171 36 1 75 0 88 -3z m-539 -75 c5 0 11 -27 15 -61 3 -33 8 -65 12 -70 3
-5 23 -9 46 -9 32 0 46 -6 69 -31 27 -28 28 -33 16 -62 -19 -46 -64 -49 -107
-7 -31 30 -37 31 -101 14 -17 -5 -19 0 -23 96 -2 72 25 145 52 135 7 -3 17 -5
21 -5z m-8049 -136 c75 -25 100 -38 96 -50 -4 -10 21 -44 71 -96 26 -28 89
-24 109 6 13 21 19 23 40 15 33 -12 34 -12 34 6 0 9 -14 17 -40 21 -21 4 -46
14 -55 24 -15 17 -14 20 20 52 36 32 81 53 89 40 11 -19 17 -110 7 -117 -30
-18 19 -95 84 -131 18 -10 18 -13 6 -28 -19 -23 -69 -16 -211 29 -58 18 -157
48 -220 65 -63 18 -149 43 -191 56 -87 26 -115 23 -124 -13 -3 -14 -9 -23 -12
-20 -3 4 0 21 7 38 12 27 11 32 -3 41 -22 12 -21 24 2 50 35 37 197 44 291 12z
m-4500 -45 c0 -6 6 -9 13 -6 7 3 21 -1 31 -9 17 -12 17 -19 8 -76 -16 -92 -24
-164 -27 -243 -2 -38 -5 -77 -9 -85 -3 -8 -4 -24 -3 -34 1 -10 -4 -21 -12 -24
-10 -3 -12 1 -9 16 3 11 0 29 -7 39 -18 26 -30 372 -14 407 12 26 29 35 29 15z
m11148 -83 c22 -25 29 -41 25 -58 -10 -38 -41 -75 -69 -82 -40 -10 -54 9 -54
71 0 46 4 58 26 78 15 14 30 25 34 25 5 0 22 -16 38 -34z m-10221 -223 c-13
-392 -27 -778 -37 -1008 -6 -126 -13 -315 -16 -419 -2 -104 -9 -197 -14 -207
-13 -23 -13 -69 -1 -69 5 0 8 -19 6 -42 -2 -24 -5 -63 -6 -88 -1 -27 -5 -7
-10 50 -9 116 -8 631 2 604 5 -14 9 -5 14 31 5 27 4 50 -1 52 -12 4 -9 135 5
248 6 50 18 286 27 525 16 439 21 530 32 530 3 0 2 -93 -1 -207z m11644 -40
c14 -37 11 -72 -9 -101 -25 -35 -34 -62 -22 -62 6 0 10 -7 10 -15 0 -8 9 -24
20 -35 22 -22 33 -79 20 -101 -6 -8 -22 -12 -45 -11 -47 5 -61 -27 -34 -73 21
-33 25 -89 10 -128 -11 -27 3 -97 21 -108 7 -5 7 -33 -2 -89 -12 -78 -12 -83
9 -110 11 -16 21 -33 21 -37 0 -4 14 -17 31 -28 56 -36 74 -105 34 -130 -17
-10 -31 -9 -85 9 -89 29 -282 136 -323 179 -24 26 -71 41 -166 56 -34 6 -77
19 -95 29 -31 18 -31 19 -30 96 2 91 12 109 37 63 15 -27 27 -35 70 -45 29 -6
101 -23 162 -37 146 -33 145 -34 145 14 0 22 -6 44 -15 51 -8 7 -15 23 -15 36
0 16 -6 24 -17 25 -10 1 -25 2 -33 3 -8 0 -15 9 -15 18 0 21 -33 47 -61 48
-31 0 -58 34 -50 63 10 42 34 40 62 -4 17 -27 30 -39 40 -35 9 3 23 2 32 -3 9
-5 35 -6 57 -2 54 9 68 40 75 166 4 64 13 113 23 134 9 19 17 49 17 67 0 66
42 136 71 118 5 -3 9 -1 9 5 0 19 31 -1 41 -26z m-574 -79 c17 -23 17 -49 -1
-66 -7 -8 -16 -24 -20 -35 -4 -12 -16 -25 -27 -28 -10 -4 -17 -11 -14 -16 4
-5 2 -9 -3 -9 -16 0 -42 83 -42 134 l0 49 47 -6 c29 -3 52 -12 60 -23z m-6399
-9 c48 -23 52 -28 52 -60 0 -19 5 -35 10 -35 6 0 10 9 10 19 0 39 44 35 178
-19 46 -18 89 -42 97 -54 19 -26 20 -105 1 -112 -16 -6 -173 47 -236 80 -25
13 -76 31 -115 40 -38 10 -75 22 -82 28 -14 11 -18 119 -6 131 12 13 39 7 91
-18z m9080 -187 c13 -18 52 -177 46 -193 -3 -6 2 -45 11 -86 8 -41 15 -100 15
-131 0 -32 4 -58 10 -58 13 0 13 -56 0 -81 -6 -10 -17 -19 -24 -19 -20 0 -46
45 -46 80 0 32 -19 56 -75 95 -30 22 -26 5 -71 292 -8 51 3 68 61 94 48 22 59
23 73 7z m-403 -24 c17 -13 20 -27 21 -97 1 -45 7 -131 14 -192 6 -60 14 -130
17 -155 2 -25 0 -61 -5 -80 l-10 -35 -12 33 c-7 17 -18 32 -25 32 -7 0 -18 15
-24 33 -7 22 -21 36 -40 44 -43 16 -58 54 -72 186 l-12 118 30 32 c16 18 35
45 41 60 7 15 16 26 21 22 5 -3 12 -1 16 5 8 13 16 12 40 -6z m-8040 -35 c58
-14 187 -60 210 -76 11 -7 27 -13 37 -13 31 0 39 -69 18 -150 -7 -26 -18 -39
-42 -49 -66 -30 -196 -48 -225 -32 -24 12 -33 6 -61 -41 -24 -38 -27 -68 -16
-129 3 -22 1 -46 -6 -59 -11 -21 -17 -22 -72 -16 l-60 7 6 -43 c4 -30 2 -49
-7 -62 -13 -18 -15 -18 -54 2 -35 18 -41 27 -47 64 -20 130 -52 140 -43 14 6
-90 18 -130 46 -155 21 -18 38 -101 20 -101 -21 0 -4 -45 18 -48 18 -3 21 0
16 14 -4 12 -2 15 8 12 8 -3 14 -13 15 -24 1 -11 6 -35 12 -54 26 -83 49 -371
33 -413 -8 -20 -6 -29 10 -43 10 -9 19 -25 19 -34 0 -9 5 -31 11 -49 8 -23 17
-31 35 -31 13 0 25 -4 26 -10 4 -30 1 -34 -32 -34 -28 -1 -36 -5 -38 -23 -3
-20 -10 -23 -43 -23 -64 0 -115 70 -78 107 14 14 2 36 -16 29 -19 -7 -32 12
-54 75 -10 30 -30 86 -45 126 -59 158 -97 339 -106 497 -6 98 -13 152 -21 157
-18 11 -5 119 25 214 37 115 37 113 -36 117 -59 3 -62 4 -65 31 -5 34 8 35 76
2 28 -14 56 -23 62 -20 5 4 9 22 9 40 0 54 19 57 155 25 66 -16 126 -29 133
-30 9 0 12 24 12 89 0 102 10 138 42 150 23 9 34 8 113 -10z m6795 -1 c0 -5 4
-7 9 -4 10 7 44 -83 67 -179 14 -58 21 -238 15 -350 -2 -24 -49 45 -55 80 -4
22 -14 47 -22 56 -8 9 -28 70 -44 135 -30 121 -38 204 -20 204 6 0 8 11 4 25
-5 19 -2 25 10 25 10 0 13 6 10 15 -5 11 -2 13 10 9 9 -3 16 -10 16 -16z
m-3944 -15 c14 -9 29 -26 33 -37 11 -27 166 -71 236 -66 156 11 253 -9 304
-64 13 -14 28 -23 32 -20 5 3 20 -3 35 -13 31 -20 69 -19 138 3 44 15 49 15
64 0 10 -10 16 -34 17 -63 1 -27 5 -78 9 -114 8 -61 7 -68 -14 -89 -19 -19
-29 -21 -65 -17 -33 5 -44 3 -49 -9 -8 -20 -167 -12 -202 11 -31 20 -31 55 1
93 30 35 31 42 7 42 -10 0 -27 -18 -42 -46 -30 -56 -50 -67 -100 -59 l-39 7
-3 -39 c-2 -30 -9 -41 -31 -51 -33 -16 -99 -8 -96 11 2 12 -8 74 -17 109 -3
11 -19 19 -42 23 -194 30 -218 58 -239 281 -4 45 -1 69 11 92 19 37 19 37 52
15z m-4758 -9 l22 -6 -4 -221 c-3 -149 -8 -223 -15 -225 -14 -5 -14 -35 0 -49
16 -16 -6 -26 -42 -18 l-30 7 5 201 c4 145 2 204 -6 214 -8 11 -9 16 -1 21 6
4 14 24 18 45 7 38 13 41 53 31z m652 -134 c11 0 37 -18 59 -40 26 -27 48 -40
66 -40 14 0 35 -5 46 -10 17 -10 19 -7 19 33 0 25 6 49 14 56 17 15 101 3 127
-18 38 -31 37 -154 0 -166 -11 -3 -40 0 -66 6 -35 9 -52 20 -64 40 -9 16 -20
28 -26 27 -5 -1 -23 2 -38 7 -15 4 -30 5 -33 3 -2 -3 15 -45 38 -93 37 -78 43
-85 51 -66 7 14 19 21 36 21 47 -1 102 -18 116 -37 17 -22 20 -116 4 -144 -9
-18 -17 -20 -60 -14 -27 4 -49 4 -49 1 0 -26 29 -57 67 -71 l44 -17 -3 -81 -3
-82 -42 -3 c-44 -3 -48 -9 -37 -48 4 -14 12 -20 22 -17 10 2 26 -2 36 -10 16
-12 19 -26 17 -83 -1 -58 -5 -72 -24 -90 -22 -19 -23 -22 -10 -60 18 -50 30
-192 48 -567 4 -65 10 -141 15 -170 6 -28 15 -88 21 -132 6 -44 37 -213 69
-375 33 -162 60 -306 62 -320 3 -25 2 -25 -73 -28 -53 -2 -79 1 -86 10 -5 7
-31 81 -58 163 -89 282 -202 570 -340 870 -13 28 -42 91 -65 140 -85 183 -120
304 -145 491 -17 126 -19 287 -5 314 9 16 13 17 50 4 23 -8 72 -19 109 -24 38
-5 79 -14 92 -19 27 -10 33 -11 55 -11 8 0 13 -4 9 -9 -8 -15 15 -25 28 -12 6
6 27 11 48 11 58 0 100 19 113 52 12 28 14 29 29 13 10 -9 17 -25 17 -35 0
-10 5 -22 10 -25 6 -4 10 13 10 44 0 44 -3 51 -22 56 -21 4 -183 25 -200 25
-16 0 -30 41 -18 55 8 10 8 15 0 20 -7 4 -10 18 -7 31 2 13 -2 29 -9 35 -8 6
-11 22 -8 37 4 21 -1 33 -21 52 l-27 25 -23 -30 c-19 -22 -21 -32 -13 -43 9
-10 9 -19 -1 -34 -8 -14 -9 -24 -3 -30 7 -7 7 -17 -1 -30 -10 -15 -9 -20 3
-28 12 -7 12 -13 1 -34 -12 -21 -19 -24 -50 -19 -20 2 -49 9 -65 14 -16 5 -44
9 -62 9 -40 0 -41 4 -15 110 68 270 137 415 189 395 8 -3 22 -5 32 -5z m3350
-90 c28 -20 30 -26 30 -82 0 -46 4 -64 18 -74 12 -9 17 -26 17 -64 0 -51 1
-52 44 -75 24 -13 53 -33 65 -44 24 -22 61 -28 71 -11 4 6 16 5 33 -4 15 -7
46 -16 68 -20 41 -6 42 -5 48 27 6 29 8 30 20 14 13 -17 14 -16 19 3 6 23 49
28 69 7 10 -11 16 -9 37 15 21 26 26 28 38 15 30 -29 -20 -94 -51 -68 -7 6
-16 8 -20 4 -4 -4 -19 -8 -34 -9 -15 -1 -37 -2 -49 -3 -25 -1 -32 -21 -8 -21
37 0 145 -44 146 -59 4 -57 9 -106 18 -176 6 -44 18 -141 26 -215 8 -74 23
-202 34 -285 31 -230 40 -307 56 -475 9 -85 20 -175 25 -200 5 -25 12 -112 15
-195 5 -144 25 -401 45 -590 5 -49 12 -121 15 -160 9 -111 44 -318 77 -465 24
-107 29 -149 25 -203 -4 -41 0 -100 9 -150 8 -45 19 -147 24 -227 9 -142 8
-145 -13 -163 -18 -16 -35 -18 -102 -15 l-80 3 1 -45 c1 -25 2 -80 4 -123 1
-57 -2 -84 -14 -102 -20 -30 -20 -30 0 -49 17 -17 99 -22 122 -7 7 4 21 23 30
42 12 25 25 35 46 37 16 2 33 -1 39 -7 7 -7 20 -5 41 7 26 15 61 17 236 16
238 -1 256 -5 247 -61 -4 -19 -14 -42 -24 -50 -17 -13 -16 -13 7 -6 54 17 108
9 139 -22 35 -32 48 -83 32 -114 -11 -19 -20 -21 -101 -21 -97 0 -110 8 -110
63 0 18 -9 29 -34 41 -45 21 -84 20 -124 -4 -41 -25 -193 -40 -216 -20 -27 22
-85 29 -119 15 -37 -15 -171 -5 -190 14 -6 6 -26 11 -44 11 -36 0 -53 21 -35
43 6 7 10 22 8 32 -4 25 -38 31 -88 14 -33 -10 -50 -10 -111 4 -40 10 -89 17
-110 17 -36 0 -39 3 -58 45 -12 27 -20 66 -19 98 1 124 -22 343 -39 375 -21
40 -69 359 -85 567 -8 105 -26 277 -31 300 -2 11 -9 76 -15 145 -5 69 -15 163
-20 210 -5 47 -19 166 -31 265 -11 99 -27 232 -35 295 -8 63 -24 203 -34 310
-11 107 -40 364 -65 570 -70 566 -70 568 -59 736 8 110 7 158 -1 183 -13 38
-2 135 17 159 16 19 69 10 108 -18z m-4006 -572 c-3 -130 -7 -165 -19 -174
-17 -13 -20 -34 -5 -34 6 0 10 -7 10 -15 0 -11 -8 -13 -32 -8 -41 8 -47 16
-39 56 5 25 13 33 36 38 21 5 24 7 9 8 -32 2 -41 20 -39 81 2 30 3 76 4 103 1
50 12 58 43 30 10 -9 18 -11 18 -5 0 6 -13 19 -30 29 -47 27 -39 53 16 53 l32
0 -4 -162z m6420 141 c19 -15 26 -30 26 -54 0 -60 -60 -92 -145 -78 -43 7 -69
47 -59 89 15 58 125 85 178 43z m-1422 -119 c49 -10 173 -56 248 -93 35 -17
45 -27 45 -47 l0 -25 -90 3 c-92 4 -146 23 -159 57 -3 8 -12 15 -21 15 -8 0
-15 5 -15 10 0 15 -61 50 -86 50 -12 0 -24 7 -28 15 -6 17 23 37 44 29 8 -3
36 -9 62 -14z m2582 4 c16 -16 12 -39 -5 -29 -5 4 -9 -3 -9 -14 0 -17 -6 -21
-36 -21 -19 0 -43 -4 -52 -9 -9 -4 -36 -11 -59 -15 -34 -5 -41 -3 -37 8 3 7
-2 16 -10 19 -9 4 -13 13 -10 22 3 8 10 13 14 10 4 -3 7 3 6 13 -1 21 42 28
85 13 22 -8 32 -7 42 4 16 19 52 19 71 -1z m1445 -154 c38 -10 52 -26 49 -55
-3 -18 -12 -20 -90 -23 -108 -3 -158 13 -158 53 0 52 39 68 115 47 28 -7 65
-17 84 -22z m-1919 -20 c4 0 10 -12 13 -28 5 -27 48 -52 89 -52 9 0 19 -7 22
-16 4 -9 9 -14 12 -11 14 13 107 -52 121 -83 8 -21 18 -30 27 -27 8 3 17 0 20
-8 3 -8 13 -11 24 -8 11 2 23 0 26 -6 11 -17 26 -13 26 8 0 10 7 24 15 31 8 7
15 19 15 27 0 10 6 13 16 9 9 -3 20 -6 25 -6 5 0 9 -6 9 -14 0 -8 5 -16 12
-18 16 -6 18 -48 2 -48 -13 0 -13 -44 -1 -57 4 -3 7 -14 7 -22 0 -9 9 -22 20
-29 11 -7 20 -18 20 -25 0 -6 9 -23 20 -37 21 -27 26 -60 10 -60 -5 0 -7 -12
-4 -28 5 -24 2 -29 -28 -37 -23 -7 -32 -15 -30 -27 2 -10 -1 -18 -7 -18 -9 0
-6 -65 5 -82 3 -4 0 -22 -8 -38 -10 -24 -19 -30 -44 -30 -17 0 -37 7 -44 15
-6 7 -32 17 -56 21 -24 3 -47 10 -50 15 -9 15 -41 10 -55 -7 -8 -9 -13 -29
-11 -43 3 -29 30 -98 47 -121 14 -19 49 -134 92 -305 27 -108 27 -113 6 -112
-10 1 -22 8 -28 14 -7 10 -20 10 -45 4 -67 -18 -99 -20 -111 -5 -9 11 -8 18 2
30 32 39 35 57 13 81 -12 13 -26 23 -32 23 -6 0 -16 10 -23 21 -8 15 -8 19 0
15 6 -4 11 -3 11 3 0 5 -4 12 -9 15 -5 3 -12 22 -15 42 -6 28 -2 44 18 79 14
24 26 50 26 58 0 9 6 17 13 20 16 5 -19 46 -51 58 -13 5 -21 13 -17 18 3 5 -4
29 -17 52 -19 37 -20 48 -11 92 11 55 0 112 -28 140 -16 15 -24 15 -95 2 -46
-9 -84 -22 -91 -31 -10 -14 -17 -14 -48 -4 -38 13 -85 7 -85 -11 0 -5 8 -12
18 -16 9 -3 40 -23 67 -44 28 -21 62 -44 76 -51 15 -8 43 -28 63 -46 40 -35
38 -24 36 -177 0 -16 -5 -31 -10 -33 -18 -6 -11 -17 20 -30 16 -7 32 -22 35
-33 8 -24 -17 -65 -45 -74 -25 -8 -27 -35 -2 -35 30 0 42 -54 32 -140 -5 -41
-14 -88 -21 -105 -6 -16 -15 -47 -19 -68 -7 -38 -7 -38 21 -32 37 8 127 -40
135 -73 7 -24 -19 -72 -39 -72 -34 -1 -39 -17 -18 -59 12 -22 24 -41 27 -41 3
0 19 11 36 25 20 17 42 25 68 25 43 0 59 -14 34 -28 -13 -7 -15 -17 -11 -39 6
-33 -8 -68 -43 -103 l-23 -23 24 -19 c57 -44 69 -58 69 -82 0 -14 -10 -33 -25
-44 -13 -11 -22 -22 -19 -24 2 -3 -2 -11 -11 -18 -8 -7 -15 -21 -15 -32 0 -10
-23 -42 -51 -71 -57 -57 -72 -86 -57 -104 14 -18 85 -16 142 3 41 14 50 23 76
73 15 31 33 83 39 115 6 31 14 63 18 69 4 7 11 32 15 57 4 25 12 74 19 110 6
36 13 80 15 98 6 39 21 42 34 6 26 -67 -4 -344 -45 -427 -8 -17 -15 -34 -15
-40 0 -5 -6 -23 -14 -40 -32 -75 -36 -90 -36 -131 0 -39 10 -77 53 -191 16
-43 15 -55 -10 -235 -9 -63 -17 -137 -18 -165 -1 -27 -5 -80 -10 -117 -4 -40
-3 -100 4 -145 6 -43 11 -116 12 -163 1 -47 6 -95 11 -108 5 -15 4 -21 -2 -17
-6 3 -10 -1 -10 -9 0 -9 3 -16 8 -16 4 0 7 -23 8 -52 0 -33 -2 -45 -7 -32 -7
17 -8 17 -8 -3 -1 -13 -6 -22 -13 -20 -6 1 -14 -11 -17 -28 -9 -40 -5 -315 4
-387 l7 -58 47 0 c58 0 289 -46 310 -62 50 -38 68 -102 36 -128 -17 -14 -70
-9 -288 25 -54 8 -102 13 -106 10 -10 -6 -23 -149 -15 -170 4 -9 19 -15 41
-15 53 0 324 -40 356 -52 63 -24 76 -96 28 -150 l-28 -32 -164 28 c-90 16
-178 30 -196 33 -50 8 -55 -13 -51 -217 3 -178 3 -179 -20 -191 -26 -15 -39
-6 -46 33 -2 15 -17 47 -31 73 -21 35 -25 52 -19 73 10 37 14 379 5 422 -7 32
-8 30 -15 -31 -4 -36 -4 -77 -1 -91 4 -16 1 -29 -9 -37 -21 -18 -46 -7 -46 20
0 17 -3 19 -13 11 -10 -8 -17 -7 -28 6 -25 29 -29 49 -14 69 8 10 15 31 15 46
0 15 7 44 15 63 8 19 14 38 14 42 -1 4 0 9 1 12 1 3 4 25 6 49 2 26 12 53 24
66 18 19 20 35 20 177 0 86 5 200 10 254 8 75 7 141 -4 272 -15 174 -20 197
-37 187 -5 -4 -9 1 -9 9 0 9 4 16 10 16 5 0 16 15 24 33 13 26 14 50 7 131 -4
54 -13 101 -19 105 -15 9 -17 30 -8 79 5 26 15 46 24 50 31 11 42 36 41 97 0
33 4 87 10 120 15 89 29 226 26 261 -2 34 -30 76 -57 87 -10 3 -45 1 -79 -5
-56 -10 -64 -9 -76 8 -7 10 -13 43 -13 76 0 52 -3 60 -24 69 -48 22 -41 89 9
89 13 0 26 7 29 16 10 25 7 54 -5 54 -7 0 -23 12 -36 27 -18 19 -23 33 -20 53
4 19 0 30 -16 40 -34 22 -79 36 -117 35 -31 0 -36 -4 -45 -32 -10 -36 -16 -38
-81 -22 -36 9 -48 9 -67 -4 -22 -14 -23 -20 -17 -61 4 -25 5 -46 3 -46 -2 0 7
-19 20 -42 13 -24 28 -68 35 -98 15 -73 21 -180 9 -180 -5 0 -5 -6 1 -13 12
-14 6 -46 -15 -87 -7 -14 -13 -30 -13 -36 0 -12 -29 -28 -36 -21 -4 4 -7 142
-5 232 3 108 -28 205 -84 261 -24 24 -35 44 -35 64 0 17 1 31 2 33 2 1 -5 13
-15 27 -9 13 -17 36 -17 49 0 44 49 188 66 195 9 3 33 2 54 -4 28 -7 46 -7 64
1 32 15 49 2 76 -57 14 -32 25 -44 40 -44 30 0 70 -23 109 -64 l34 -35 46 25
c25 13 52 24 58 24 7 0 13 5 13 11 0 5 4 8 9 5 5 -3 11 5 13 19 3 14 1 25 -3
25 -5 0 -9 10 -9 23 -1 20 -2 21 -14 5 -9 -13 -16 -14 -24 -6 -8 8 -13 7 -18
-5 -9 -24 -61 -22 -74 2 -15 30 -12 49 11 61 16 9 26 8 45 -5 22 -14 24 -14
24 3 0 10 -5 23 -12 30 -7 7 -9 12 -4 12 4 0 -2 13 -13 29 -12 16 -21 35 -21
42 0 10 -3 10 -12 1 -18 -18 -63 -15 -81 6 -9 10 -22 33 -28 50 -8 24 -16 31
-33 30 -12 -1 -35 8 -53 21 -35 26 -54 21 -95 -27 -13 -15 -32 -31 -42 -35
-21 -8 -86 10 -86 24 0 5 -12 9 -27 9 -20 0 -24 3 -14 9 18 11 6 63 -26 114
-42 66 -61 122 -88 250 -14 67 -25 125 -25 129 0 10 -60 -22 -82 -44 -11 -11
-26 -17 -34 -14 -8 3 -26 1 -40 -5 -25 -9 -26 -12 -20 -59 5 -40 4 -50 -8 -50
-8 0 -21 -3 -29 -6 -35 -13 -78 64 -100 180 -9 48 -21 80 -36 95 -25 25 -26
37 -5 86 8 21 13 44 9 53 -3 8 -10 70 -15 138 -7 83 -17 137 -30 166 -11 24
-20 55 -20 70 0 29 -44 88 -65 88 -28 0 -43 39 -38 98 8 107 32 141 99 142 58
0 77 -26 124 -165 22 -66 40 -122 40 -126 0 -10 -41 -23 -61 -21 -9 2 -27 -2
-41 -7 -51 -19 -3 -91 61 -91 11 0 22 -4 25 -9 3 -5 37 -17 76 -26 72 -18 110
-47 110 -86 0 -24 10 -49 21 -49 5 0 9 24 9 54 0 35 5 58 14 66 21 17 146 7
231 -18 89 -27 113 -27 134 -1 11 14 30 22 56 23 70 5 138 17 223 39 74 20 82
24 77 42 -4 11 -8 32 -10 48 -3 15 -12 49 -21 76 -15 48 -17 49 -51 46 -28 -3
-36 1 -40 16 -3 10 -9 17 -13 14 -15 -9 -20 28 -8 61 10 28 17 34 40 34 21 0
28 5 28 20 0 15 -7 20 -25 20 -14 0 -29 8 -35 20 -9 16 -8 20 5 20 8 0 15 7
15 16 0 12 6 15 25 10 17 -4 25 -2 26 6 0 7 5 3 11 -9 6 -13 14 -23 18 -23z
m-1656 -56 c16 -7 32 -12 36 -9 15 9 20 -28 9 -66 -11 -34 -9 -43 11 -83 22
-41 23 -47 11 -100 -21 -93 5 -184 42 -147 15 15 54 14 60 -1 6 -17 -10 -58
-23 -58 -6 0 -19 6 -30 13 -17 10 -22 9 -30 -3 -15 -23 -12 -66 5 -80 19 -16
45 -102 45 -150 0 -20 7 -60 15 -88 14 -45 19 -52 42 -52 25 0 25 2 19 43 -22
133 -19 151 24 162 22 5 30 0 53 -35 15 -23 27 -49 27 -57 0 -13 3 -13 16 -3
24 20 46 -9 49 -66 3 -53 -3 -74 -16 -53 -7 11 -9 9 -9 -6 -1 -19 -2 -19 -20
3 -14 17 -25 21 -44 16 -29 -7 -43 -23 -30 -33 11 -7 26 -32 55 -86 12 -22 30
-50 41 -61 17 -19 18 -29 11 -70 -4 -27 -7 -53 -7 -59 1 -5 4 -37 8 -70 5 -43
3 -66 -7 -79 -12 -16 -16 -15 -53 21 -48 44 -64 72 -64 107 0 14 -5 28 -11 31
-18 12 -29 54 -33 127 -4 72 -15 96 -36 83 -8 -5 -11 -26 -8 -60 4 -48 2 -54
-18 -64 -20 -9 -23 -7 -29 27 -7 38 -30 86 -52 110 -14 14 -14 19 -18 92 -3
78 -17 150 -36 187 l-18 35 -8 -28 c-23 -88 4 -333 48 -433 22 -51 18 -74 -16
-89 -13 -6 -36 -29 -50 -52 -59 -94 -93 -24 -112 235 -3 44 -14 113 -24 154
-22 87 -24 112 -6 109 6 -2 12 4 12 12 1 8 6 25 13 37 23 41 14 83 -22 96 -17
7 -17 9 -2 32 21 32 20 38 -4 30 -16 -5 -20 -2 -20 15 0 16 4 20 19 15 15 -5
21 0 26 24 4 17 1 37 -6 49 -15 25 -79 47 -107 37 -20 -6 -21 -3 -16 27 9 51
26 90 54 121 27 31 30 41 19 73 -9 25 1 42 31 57 13 7 30 26 39 44 9 18 23 34
31 37 22 6 81 -3 114 -20z m971 -69 c22 -4 67 -2 99 4 32 6 63 8 68 5 13 -8
-23 -33 -48 -34 -12 0 -27 -7 -34 -15 -7 -8 -17 -15 -22 -15 -15 0 -46 -34
-50 -55 -2 -15 -18 -24 -56 -34 -68 -18 -75 -10 -66 74 7 69 19 88 48 81 12
-3 39 -8 61 -11z m-1353 -196 c9 -26 8 -33 -6 -41 -22 -12 -20 -34 4 -58 21
-21 41 -22 76 -2 19 10 23 9 27 -8 12 -47 -28 -85 -61 -57 -11 9 -19 6 -38
-16 -24 -29 -32 -57 -15 -57 6 0 13 -20 16 -44 6 -35 11 -43 24 -39 10 3 12 2
5 -4 -10 -7 -16 -22 -31 -78 l-5 -20 15 20 c16 20 16 19 10 -4 -6 -22 -4 -23
20 -17 17 4 27 2 27 -4 0 -6 10 -24 21 -39 17 -23 20 -38 15 -68 -3 -21 -7
-60 -9 -86 -4 -79 -62 -98 -116 -39 -22 25 -23 31 -16 102 8 77 8 95 0 263 -3
70 -9 102 -20 113 -17 18 -21 89 -4 99 6 4 7 19 3 38 -9 41 -7 73 7 99 l11 20
14 -21 c8 -11 20 -35 26 -52z m5510 -10 c10 -13 25 -59 34 -101 19 -86 12
-108 -32 -108 -21 0 -24 5 -24 38 0 20 -11 58 -25 83 -29 56 -38 98 -24 115
14 17 48 4 71 -27z m-438 -82 c34 -44 37 -126 6 -157 -26 -26 -29 -25 -68 10
-58 54 -70 124 -26 159 37 29 59 26 88 -12z m-8020 -184 c36 -607 72 -1711 62
-1904 -3 -59 -1 -122 4 -140 14 -46 31 -300 34 -494 2 -88 10 -317 19 -510 29
-615 27 -602 48 -623 15 -17 16 -22 4 -38 -7 -11 -27 -19 -45 -20 -21 -1 -28
1 -19 7 10 6 6 11 -14 18 -16 6 -33 11 -38 11 -6 0 -19 20 -30 44 -21 49 -24
111 -35 686 -3 168 -5 310 -5 315 -1 6 0 21 1 35 1 14 -1 97 -4 185 -10 319
-13 943 -5 1070 12 197 11 720 -2 1095 -12 315 -10 398 10 386 4 -3 11 -58 15
-123z m5886 62 c71 -12 80 -15 80 -33 0 -10 5 -23 12 -30 28 -28 -40 -52 -150
-51 -40 0 -85 -41 -80 -74 2 -18 14 -24 63 -34 33 -8 69 -18 81 -24 14 -7 32
-8 57 -1 36 10 37 10 37 -16 0 -16 10 -35 27 -49 33 -29 53 -29 53 0 0 12 4
28 9 36 15 23 43 -13 45 -59 1 -26 10 -48 25 -64 20 -21 25 -42 34 -128 8 -87
13 -106 33 -125 14 -15 25 -40 29 -70 4 -27 15 -82 25 -123 10 -41 28 -127 40
-190 12 -63 33 -158 46 -210 14 -52 31 -121 39 -153 10 -40 26 -69 48 -91 76
-77 83 -103 61 -211 -28 -138 -9 -390 40 -521 8 -23 20 -86 26 -140 18 -162
25 -197 50 -237 12 -21 27 -58 31 -83 5 -24 23 -73 40 -109 37 -78 34 -121
-12 -167 -16 -16 -29 -37 -29 -46 -1 -21 -35 -62 -77 -91 -29 -20 -37 -21 -66
-10 -30 10 -42 8 -128 -25 -123 -48 -123 -48 -127 -81 -7 -57 6 -91 43 -111
33 -18 35 -21 34 -66 -1 -27 1 -51 4 -55 4 -3 28 -2 53 4 53 12 100 -4 113
-40 8 -21 6 -138 -8 -381 l-7 -139 -42 -39 -42 -39 -83 7 c-45 3 -94 13 -110
21 -21 11 -32 11 -49 2 -18 -10 -24 -8 -35 7 -15 21 -18 161 -4 214 6 19 12
55 15 80 2 25 9 59 14 77 6 17 8 34 4 37 -3 3 -1 6 4 6 5 0 10 40 11 88 1 48
8 119 15 158 7 39 11 96 10 126 -4 60 -11 67 -73 73 -90 9 -97 26 -108 242
-11 211 -67 565 -133 833 -24 98 -33 155 -48 300 -6 58 -16 137 -22 175 -6 39
-14 95 -18 125 -4 30 -20 109 -34 175 -15 66 -36 158 -47 205 -23 106 -65 355
-73 435 -3 33 -2 76 2 95 5 23 3 54 -7 92 -19 71 -7 102 47 125 20 8 45 22 55
31 21 19 23 81 2 108 -15 19 -16 18 -38 -7 -25 -30 -62 -42 -76 -25 -5 6 -12
52 -16 102 l-7 90 28 19 c16 10 35 18 43 18 9 0 36 13 61 29 47 31 47 31 160
13z m-6859 -35 c-9 -5 -7 -11 5 -21 9 -8 20 -12 23 -9 3 3 8 -13 12 -35 12
-68 31 -423 24 -444 -8 -26 -53 -35 -104 -21 -36 10 -57 30 -31 30 6 0 10 7
10 16 0 10 7 14 23 12 19 -3 22 1 19 25 -2 19 2 27 13 27 9 0 15 6 12 13 -2 6
-10 11 -16 9 -6 -1 -11 5 -11 13 0 8 3 14 8 14 38 -6 45 26 7 35 -23 6 -36 26
-17 26 12 0 -4 108 -18 125 -9 11 -8 19 4 37 20 28 20 38 1 38 -8 0 -15 -5
-15 -12 0 -6 -3 -8 -6 -5 -4 4 1 18 10 32 16 24 13 29 -14 27 -3 0 -7 10 -8
24 -1 14 4 24 11 24 8 0 22 8 33 19 10 10 23 16 28 13 4 -2 3 -8 -3 -12z
m9057 -97 c31 -43 4 -98 -54 -108 -69 -13 -105 74 -50 122 22 18 31 20 58 12
18 -5 39 -17 46 -26z m-9722 -320 c4 -13 4 -45 1 -69 -2 -25 0 -59 7 -75 9
-24 8 -32 -4 -39 -10 -6 -16 -27 -17 -62 -2 -80 -9 -150 -17 -181 -5 -17 -4
-32 3 -41 8 -9 8 -15 2 -18 -6 -1 -12 -39 -15 -84 -3 -45 -9 -89 -12 -99 -5
-12 -4 -16 3 -12 11 7 9 -58 -2 -94 -3 -10 -1 -20 5 -24 11 -7 4 -25 -10 -25
-4 0 -11 7 -14 16 -5 14 8 363 19 504 2 25 7 111 11 192 6 117 10 145 21 141
7 -3 16 -16 19 -30z m5131 -303 c20 -23 43 -93 43 -132 0 -34 -24 -58 -60 -58
-48 0 -67 27 -75 102 -6 59 -4 69 14 87 26 26 56 27 78 1z m-2067 -62 c11 -18
20 -39 20 -47 0 -8 8 -23 17 -33 9 -10 20 -42 25 -71 4 -28 12 -74 16 -100 7
-35 5 -60 -6 -94 l-15 -46 -19 37 c-18 36 -20 44 -36 143 -5 28 -13 57 -19 65
-6 7 -14 50 -17 96 -8 91 1 104 34 50z m-949 -183 c10 -21 20 -154 19 -246 -1
-39 4 -61 14 -72 9 -9 16 -20 16 -26 0 -6 4 -11 8 -11 8 0 19 -28 38 -99 3
-13 18 -35 31 -47 24 -22 27 -35 39 -181 8 -86 18 -159 23 -162 20 -14 23 -54
5 -86 -14 -27 -16 -38 -7 -58 7 -15 9 -48 6 -80 -4 -36 -2 -57 6 -61 8 -5 9
-27 5 -69 -4 -36 0 -116 9 -192 9 -71 19 -184 22 -250 16 -291 21 -334 71
-590 14 -71 34 -158 45 -192 20 -60 21 -62 49 -56 26 5 32 1 51 -31 11 -20 24
-36 28 -36 17 0 51 34 76 77 24 40 26 51 17 77 -14 40 -28 141 -43 295 -6 69
-15 138 -20 154 -4 15 -9 96 -10 179 -1 133 -4 152 -20 166 -22 19 -28 112 -7
112 8 0 9 29 4 108 -3 59 -11 177 -16 262 -13 206 -14 645 -2 666 8 15 12 14
26 -12 16 -29 16 -29 12 31 -16 215 -9 259 34 220 11 -10 20 -31 20 -46 0 -15
5 -31 10 -34 6 -3 10 -23 10 -44 0 -20 4 -62 10 -92 5 -30 12 -90 14 -134 5
-91 15 -145 27 -145 14 0 29 -71 19 -91 -13 -24 -13 -29 5 -29 9 0 16 -14 20
-37 4 -21 11 -49 17 -63 10 -23 14 -50 38 -235 5 -38 18 -99 30 -134 22 -68
16 -95 -15 -61 -10 11 -24 20 -30 20 -14 0 -22 56 -29 190 -9 156 -15 233 -21
238 -3 3 -11 0 -17 -6 -8 -8 -6 -63 11 -219 13 -114 27 -273 32 -353 11 -163
12 -170 34 -170 12 0 15 6 10 20 -4 12 -2 20 5 20 8 0 10 -10 8 -25 -7 -36 9
-41 38 -14 21 20 26 21 34 9 5 -8 10 -21 10 -29 0 -8 8 -23 17 -34 16 -17 16
-20 2 -31 -15 -10 -16 -24 -8 -106 5 -52 12 -102 16 -110 10 -24 12 -110 2
-110 -5 0 -9 -11 -9 -25 0 -14 5 -25 10 -25 6 0 10 -7 10 -15 0 -8 -4 -15 -10
-15 -5 0 -10 -7 -10 -15 0 -9 -7 -18 -15 -21 -20 -8 -19 -54 3 -140 10 -38 17
-88 16 -110 -2 -56 11 -78 26 -40 44 118 50 804 10 1171 -27 238 -86 624 -117
760 -9 39 -22 111 -29 160 -7 50 -16 101 -20 114 -5 17 -4 23 6 19 13 -4 26
-52 64 -233 9 -44 24 -109 33 -145 8 -36 19 -85 23 -110 4 -25 14 -72 23 -105
8 -33 20 -109 27 -170 6 -60 15 -139 21 -175 20 -133 38 -319 44 -450 6 -110
10 -140 26 -162 23 -33 24 -44 3 -52 -15 -6 -16 -30 -12 -224 4 -156 10 -228
20 -257 l15 -40 62 -3 c51 -2 64 -7 77 -26 9 -14 12 -34 9 -48 -4 -16 -1 -29
9 -37 22 -18 20 -48 -3 -61 -11 -5 -40 -10 -65 -10 -56 0 -67 -16 -59 -92 5
-51 3 -57 -24 -88 l-30 -34 -206 -9 c-130 -6 -231 -6 -273 0 -57 8 -71 7 -102
-9 -65 -33 -95 -25 -163 47 -31 32 -40 73 -78 365 -32 239 -40 347 -45 590 -6
294 -20 472 -60 775 -2 17 -13 104 -25 195 -12 91 -28 217 -36 280 -18 132
-22 185 -31 402 -4 86 -3 169 1 185 l7 28 10 -30 c5 -16 14 -39 19 -50z m3758
-243 c62 -38 79 -97 41 -145 -13 -16 -16 -28 -10 -32 5 -3 10 -1 10 4 0 25 18
9 22 -19 3 -18 0 -30 -7 -30 -11 0 -39 29 -42 43 -3 17 -10 23 -48 42 -60 31
-113 154 -72 168 16 5 75 -11 106 -31z m-469 -61 c28 -20 43 -74 38 -136 -3
-39 -5 -40 -44 -43 -48 -4 -83 20 -108 72 -22 46 -21 112 2 126 22 13 80 4
112 -19z m4080 -370 c0 -17 8 -36 18 -43 10 -7 23 -39 30 -73 7 -33 14 -64 16
-70 1 -5 9 -26 18 -45 30 -64 25 -115 -10 -103 -26 9 -90 81 -114 126 -17 34
-22 38 -29 24 -5 -9 -16 -14 -24 -11 -8 4 -15 1 -15 -5 0 -17 -47 -13 -54 5
-12 31 -6 44 19 44 14 0 24 -3 24 -7 -4 -22 3 -22 25 1 17 20 25 42 29 93 5
47 12 72 24 81 28 20 43 14 43 -17z m-3010 -61 c0 -5 -7 -7 -15 -4 -25 10 -26
-18 -4 -76 12 -30 23 -66 26 -80 4 -14 14 -36 24 -49 11 -13 24 -41 29 -63 9
-31 8 -41 -4 -54 -13 -13 -20 -10 -60 31 -53 55 -74 97 -82 162 -8 70 -13 81
-24 63 -8 -13 -10 -12 -10 3 0 9 7 17 15 17 8 0 15 5 15 11 0 5 5 7 10 4 6 -3
14 5 20 19 7 19 17 26 35 26 14 0 25 -4 25 -10z m-5614 -427 c1 -23 5 -50 9
-62 4 -15 1 -23 -10 -27 -14 -6 -14 -7 1 -18 16 -12 19 -30 29 -171 3 -44 8
-102 11 -129 l6 -49 -33 7 c-42 8 -41 7 -50 69 -14 101 -12 115 19 119 l27 3
-29 15 c-40 20 -43 38 -9 43 26 4 27 5 6 12 -33 11 -43 47 -46 170 -2 44 0 50
23 56 38 11 44 6 46 -38z m2258 -68 c22 -119 39 -281 32 -310 -6 -24 -38 -35
-50 -17 -9 14 -15 92 -21 267 -6 152 -5 168 8 155 9 -8 22 -51 31 -95z m6644
9 c12 -4 22 -10 22 -16 0 -5 9 -18 20 -30 36 -39 50 -194 19 -213 -43 -27
-127 182 -101 253 5 14 8 14 40 6z m-3275 -16 c3 -10 7 -10 20 1 14 11 17 11
18 0 1 -22 7 -71 14 -108 l6 -33 -38 7 c-58 10 -113 45 -113 70 0 28 46 70 82
74 3 1 8 -5 11 -11z m3173 -161 c9 -17 19 -56 21 -88 5 -51 3 -58 -16 -69 -19
-10 -26 -7 -51 20 -24 26 -30 41 -30 77 0 54 24 105 45 96 9 -3 23 -19 31 -36z
m-3252 -784 c4 -14 15 -20 36 -20 17 0 33 -3 38 -7 10 -10 8 -301 -2 -353 -5
-24 -13 -43 -17 -43 -18 0 -9 -55 11 -68 17 -10 20 -23 21 -85 1 -83 6 -101
34 -105 11 -2 22 -6 25 -9 3 -3 5 -89 5 -193 0 -171 -2 -190 -19 -209 -46 -50
-70 -2 -65 131 3 94 -6 168 -21 168 -5 0 -14 16 -20 35 -6 19 -16 35 -21 35
-5 0 -9 9 -9 19 0 27 -17 35 -28 15 -8 -15 -10 -14 -16 2 -4 11 -9 68 -12 128
-2 60 -11 154 -19 209 -27 180 -16 345 26 390 12 13 16 13 30 -2 9 -10 19 -27
23 -38z m-5865 -20 c17 -60 14 -325 -3 -349 -14 -18 -16 -18 -31 -3 -19 19
-21 53 -11 199 10 147 16 190 26 190 5 0 14 -17 19 -37z m4624 -62 c8 -8 13
-66 14 -189 3 -216 8 -278 27 -307 11 -17 15 -57 17 -153 0 -72 -2 -135 -5
-141 -10 -16 -81 -34 -108 -28 -27 7 -68 72 -68 108 0 33 11 46 43 54 15 4 30
11 33 16 3 5 -2 35 -11 68 -13 45 -14 64 -6 79 6 12 8 23 3 26 -8 4 -22 2
-247 -48 -66 -15 -171 -38 -234 -52 -117 -26 -147 -25 -155 4 -3 9 -21 73 -40
142 -20 69 -41 139 -46 156 -14 41 -13 69 3 82 7 6 44 18 82 26 99 21 230 51
375 84 100 24 128 34 145 55 11 14 29 27 40 30 33 9 125 1 138 -12z m580 -29
c25 -28 58 -142 93 -328 8 -42 -14 -61 -78 -68 -167 -18 -370 -36 -400 -36
-40 0 -50 14 -72 105 -8 33 -26 106 -41 163 -18 74 -22 108 -15 121 11 21 43
27 190 37 52 4 115 10 140 14 88 15 166 12 183 -8z m4262 -72 c9 -17 31 -38
50 -47 21 -10 33 -23 32 -35 -1 -10 -5 -18 -9 -18 -4 0 -8 -7 -8 -15 0 -8 -9
-15 -19 -15 -11 0 -23 -5 -27 -11 -9 -15 -79 -5 -122 17 -18 9 -35 14 -38 11
-10 -9 -6 -93 6 -138 12 -45 12 -48 -18 -90 -18 -26 -33 -63 -37 -89 -3 -25
-10 -61 -15 -80 -5 -19 -12 -47 -15 -62 -11 -54 -90 -110 -110 -79 -3 5 -8 31
-11 58 -3 26 -10 66 -15 88 -6 22 -12 72 -14 112 -2 39 -6 76 -9 82 -9 15 15
142 32 169 15 23 57 31 64 12 5 -15 88 -1 88 14 0 6 -10 16 -22 21 -30 14 -38
40 -9 32 11 -3 21 -2 21 3 0 7 44 20 111 34 14 3 31 16 37 31 16 34 38 32 57
-5z m-5910 -15 c16 -15 25 -36 25 -54 0 -17 5 -40 11 -53 20 -44 -1 -70 -67
-84 -32 -7 -71 -13 -86 -13 -16 -1 -27 -4 -27 -8 1 -5 1 -23 0 -41 -1 -30 -4
-33 -27 -30 -15 2 -32 12 -38 23 -6 11 -15 23 -21 27 -10 8 -90 2 -105 -7 -18
-11 -30 27 -38 115 -10 117 -2 129 86 131 31 1 84 5 117 9 118 14 144 12 170
-15z m-425 -23 c21 -17 21 -18 3 -39 -16 -20 -30 -22 -130 -25 l-112 -3 -4 25
c-8 39 9 49 91 53 43 1 89 4 103 5 15 1 37 -6 49 -16z m5055 -82 c37 -71 6
-180 -50 -180 -37 0 -47 30 -39 116 6 64 10 77 28 84 35 14 45 11 61 -20z
m-7585 -215 c12 -15 10 -26 -17 -75 -2 -3 6 -6 17 -6 14 0 22 8 26 26 14 66
50 78 98 32 26 -26 46 -33 121 -46 50 -9 131 -16 182 -16 87 0 119 -9 91 -26
-6 -4 -94 -7 -195 -7 -100 1 -184 -2 -186 -5 -2 -4 0 -50 5 -102 10 -109 5
-140 -21 -140 -33 0 -42 26 -48 134 -6 103 -7 106 -34 120 -16 8 -48 12 -79
10 -63 -4 -72 10 -42 72 17 34 27 44 46 44 13 0 29 -7 36 -15z m7726 -73 c98
-22 131 -41 142 -84 10 -38 -8 -166 -42 -313 -13 -55 -27 -117 -30 -138 -10
-56 -53 -186 -71 -213 -14 -22 -16 -23 -35 -7 -11 10 -20 23 -20 29 0 7 -20
24 -45 38 -25 15 -45 33 -45 41 0 8 -4 15 -9 15 -27 0 -54 284 -45 468 10 194
22 203 200 164z m-6819 -10 c8 -5 14 -49 18 -117 4 -61 8 -120 11 -132 3 -16
-3 -27 -20 -39 -23 -15 -31 -15 -98 1 -120 27 -119 26 -116 158 l3 112 35 12
c39 13 149 17 167 5z m-483 -114 c16 -168 18 -206 9 -211 -11 -7 -5 -57 6 -57
4 0 20 -26 35 -59 15 -32 46 -79 70 -105 48 -51 50 -69 10 -107 -18 -17 -21
-25 -13 -36 6 -7 18 -13 26 -13 10 0 13 -6 9 -16 -3 -8 -2 -13 2 -10 4 2 12
-6 19 -20 13 -27 3 -39 -40 -46 -23 -5 -30 -1 -37 18 -5 13 -14 24 -19 24 -6
0 -8 7 -5 15 4 10 0 15 -15 15 -12 0 -21 5 -21 10 0 6 5 10 10 10 6 0 10 7 10
16 0 14 -8 15 -53 10 -94 -12 -139 26 -115 95 9 26 8 33 -6 41 -12 7 -16 23
-16 61 0 42 5 56 24 75 13 12 29 22 35 22 18 0 12 38 -7 44 -33 11 -51 65 -50
159 0 70 3 89 16 97 11 6 12 9 4 10 -7 0 -10 5 -7 10 3 6 30 10 59 10 l54 0 6
-62z m-1374 -24 c0 -14 4 -23 10 -19 7 4 7 -2 1 -19 -8 -19 -6 -26 6 -30 12
-5 13 -9 3 -21 -9 -10 -9 -15 -1 -15 6 0 11 -8 11 -18 0 -10 6 -24 12 -30 10
-10 10 -15 -2 -22 -12 -8 -12 -10 -1 -10 22 0 41 -33 29 -47 -6 -7 -16 -13
-24 -13 -7 0 -16 -5 -20 -11 -5 -9 1 -10 21 -5 25 6 27 5 16 -8 -11 -13 -9
-17 13 -26 15 -5 26 -17 26 -27 0 -15 -2 -16 -10 -3 -6 9 -10 10 -10 3 0 -6
11 -20 24 -31 18 -13 23 -25 19 -40 -4 -16 1 -24 21 -33 35 -16 37 -64 4 -75
-43 -13 -156 -5 -194 14 l-35 18 21 24 c19 22 19 24 3 43 -17 18 -17 20 7 39
14 11 24 26 22 34 -1 7 8 20 22 29 23 16 24 17 7 34 -10 10 -24 20 -33 23 -17
7 -31 58 -15 58 5 0 4 6 -2 14 -9 11 -9 16 0 21 8 6 7 10 -5 17 -21 12 -21 26
1 30 16 3 16 4 0 20 -9 9 -17 24 -17 32 0 9 -6 16 -12 17 -10 0 -10 2 0 6 14
6 16 33 2 33 -5 0 -10 5 -10 10 0 6 20 10 45 10 42 0 45 -2 45 -26z m-2793
-94 c-3 -10 0 -21 5 -22 6 -2 3 -12 -7 -21 -20 -20 -17 -26 14 -32 34 -6 45
-16 30 -26 -12 -7 -11 -9 1 -9 21 0 3 -14 -72 -54 -76 -41 -100 -46 -73 -16
14 16 16 23 7 32 -7 7 -12 26 -12 44 0 27 4 32 32 38 28 6 30 8 14 19 -16 12
-15 14 8 35 15 12 26 17 26 12 0 -6 5 -10 10 -10 6 0 10 7 10 15 0 8 3 15 6
15 4 0 4 -9 1 -20z m8713 -265 c33 -17 80 -80 80 -107 0 -25 -25 -34 -110 -42
-41 -4 -106 -11 -145 -16 -298 -38 -355 -43 -378 -33 -27 12 -39 52 -25 77 18
33 154 86 220 86 14 0 41 -12 58 -27 26 -22 35 -24 49 -15 36 26 99 56 151 73
68 22 65 22 100 4z m-7458 -30 c2 -11 13 -21 25 -23 28 -4 33 -37 14 -80 -15
-32 -14 -34 8 -51 22 -17 24 -27 27 -111 1 -51 8 -113 15 -138 12 -43 11 -46
-13 -66 -22 -18 -24 -25 -16 -49 7 -20 7 -32 -1 -40 -18 -18 -114 -11 -158 11
-37 19 -39 22 -35 61 3 32 0 46 -15 59 -60 52 -49 124 30 205 71 74 80 92 48
102 -38 12 -36 44 4 77 23 20 34 36 30 46 -6 16 15 36 26 24 4 -4 9 -16 11
-27z m6741 -64 c24 -9 87 -86 87 -105 -1 -28 -26 -40 -131 -62 -180 -37 -218
-30 -219 37 0 33 20 51 100 87 131 59 125 57 163 43z m-4991 -104 c20 -16 21
-21 19 -124 l-1 -82 -82 0 c-82 1 -138 13 -138 31 0 5 -4 6 -10 3 -5 -3 -15 5
-22 19 -6 14 -15 26 -19 26 -11 0 -1 70 12 87 6 7 18 13 27 13 8 0 12 3 8 7
-10 11 79 30 139 31 28 1 57 -4 67 -11z m2842 -2 c22 -22 31 -82 16 -100 -13
-16 -103 -21 -147 -9 -33 9 -33 78 -1 95 56 30 110 36 132 14z m850 -6 c16 -8
28 -25 37 -57 12 -43 11 -46 -11 -64 -21 -17 -37 -19 -117 -16 -50 1 -97 8
-103 14 -6 6 -13 25 -15 42 -5 40 20 61 92 77 76 17 87 17 117 4z m944 -5 c12
-8 31 -33 42 -54 38 -75 27 -87 -95 -105 -121 -18 -199 -19 -213 -2 -9 11 -16
46 -13 74 2 19 44 43 133 74 96 33 115 35 146 13z m-1341 -31 c26 -32 30 -75
8 -93 -21 -18 -158 -7 -192 15 -22 15 -24 21 -18 53 4 21 9 39 11 42 9 8 99
18 134 14 23 -2 43 -13 57 -31z m870 -67 c50 -59 22 -105 -65 -107 -115 -2
-139 10 -140 70 -1 36 2 41 36 55 24 10 57 15 91 13 44 -3 59 -9 78 -31z"/>
<path d="M2699 7763 c-1 -4 -2 -17 -3 -28 -1 -11 -5 -44 -10 -72 -8 -52 -19
-65 -30 -40 -3 6 -4 -28 -1 -78 5 -96 6 -97 93 -167 11 -9 12 12 6 118 -13
236 -17 268 -36 272 -10 2 -18 0 -19 -5z"/>
<path d="M814 7538 c3 -15 2 -28 -3 -28 -13 0 -18 -79 -6 -83 6 -2 5 -13 -4
-29 -7 -14 -10 -35 -7 -46 4 -11 2 -23 -4 -27 -11 -7 -12 -126 0 -177 l7 -33
14 35 14 35 6 -35 c6 -32 6 -32 8 -7 0 16 -4 38 -10 49 -10 19 -1 201 17 335
6 39 4 42 -16 40 -18 -1 -21 -6 -16 -29z"/>
<path d="M3528 7438 c-49 -16 -88 -33 -88 -37 0 -22 104 -74 236 -119 68 -23
94 -16 94 24 0 37 -18 64 -53 81 -87 40 -90 43 -71 64 16 18 16 19 -7 18 -13
0 -63 -14 -111 -31z"/>
<path d="M2444 7438 c-4 -7 -4 -10 0 -6 8 6 107 -84 216 -197 79 -82 97 -102
160 -186 30 -40 69 -87 86 -104 17 -17 37 -49 45 -71 7 -21 25 -57 39 -79 15
-22 37 -66 51 -97 14 -33 29 -56 36 -53 6 2 14 -1 17 -8 2 -7 5 1 5 16 1 16
-3 26 -9 22 -5 -3 -10 1 -10 9 0 8 5 18 10 21 6 3 8 23 5 43 -2 20 -8 91 -11
157 -4 72 -10 110 -14 95 -6 -22 -8 -20 -17 20 -8 31 -11 37 -12 19 -1 -14 -7
-34 -15 -44 -13 -18 -14 -18 -41 3 -20 16 -31 19 -40 12 -7 -6 -20 -7 -30 -4
-13 5 -16 16 -13 45 4 44 2 46 -23 24 -11 -11 -26 -14 -43 -9 -26 6 -28 10
-30 49 -1 11 -10 21 -21 23 -28 6 -33 17 -26 60 7 42 39 58 48 24 3 -11 17
-23 31 -27 15 -4 30 -11 33 -17 5 -7 25 -7 65 0 50 8 60 7 71 -7 13 -16 12
-40 -2 -75 -7 -15 -5 -18 8 -13 8 3 18 1 21 -6 3 -9 5 -9 5 1 2 23 20 12 24
-15 3 -16 3 -1 1 31 -2 33 -10 69 -18 81 -13 20 -144 95 -167 95 -10 0 -24 5
-124 51 -33 15 -254 110 -291 126 -7 2 -15 -2 -20 -9z"/>
<path d="M2316 7295 c-33 -29 -37 -37 -26 -50 7 -8 18 -15 25 -15 7 0 18 -7
25 -15 19 -23 121 -49 142 -36 14 9 20 7 28 -9 13 -25 36 -26 49 -2 10 16 10
16 11 -2 0 -16 2 -18 13 -7 10 10 9 15 -5 25 -10 7 -14 17 -10 21 4 5 2 5 -4
2 -7 -4 -22 9 -35 28 -16 24 -37 39 -64 47 -22 6 -45 15 -51 20 -6 5 -19 6
-28 2 -12 -5 -15 -2 -10 10 10 27 -18 18 -60 -19z"/>
<path d="M2362 6518 c-24 -51 -38 -118 -47 -213 -3 -38 -10 -74 -14 -80 -19
-24 -41 -128 -41 -197 0 -56 -3 -75 -13 -75 -8 0 -34 -9 -58 -21 -53 -26 -69
-60 -69 -143 1 -111 17 -197 49 -262 25 -53 32 -82 37 -163 14 -196 29 -148
25 75 -1 74 1 82 14 71 13 -11 15 -7 15 31 0 194 7 293 19 297 10 3 11 6 1 12
-10 6 -10 15 0 44 15 46 20 42 25 -18 2 -25 15 -86 29 -135 15 -51 26 -115 26
-148 0 -33 6 -67 13 -78 19 -28 48 -116 41 -126 -10 -17 -22 -9 -29 19 -3 15
-13 41 -20 57 -8 17 -15 48 -17 69 -2 23 -9 41 -17 44 -11 4 -13 -11 -6 -89 4
-52 11 -100 17 -107 7 -7 8 -33 4 -64 -4 -29 -4 -49 0 -45 4 4 14 -10 21 -30
29 -78 63 -186 63 -200 0 -8 10 -27 21 -43 12 -15 21 -41 21 -57 0 -15 9 -45
19 -65 12 -24 19 -58 19 -98 0 -45 4 -60 14 -60 8 0 17 -6 19 -12 4 -10 8 -9
16 2 6 8 12 19 14 24 2 5 13 3 25 -5 15 -10 24 -27 28 -59 6 -45 6 -46 41 -42
32 4 34 6 28 36 -13 60 -68 216 -76 216 -5 0 -8 -5 -7 -11 2 -6 -3 -14 -9 -16
-8 -3 -13 5 -13 21 0 14 5 26 10 26 14 0 12 37 -5 100 -9 30 -20 73 -26 95 -5
22 -41 146 -79 275 -37 129 -74 261 -81 293 -12 57 -24 71 -36 41 -11 -29 -23
8 -18 54 4 32 0 49 -15 70 -16 23 -20 48 -23 160 -5 127 -4 133 14 129 16 -4
19 0 19 26 0 22 -3 28 -9 18 -12 -19 -30 -5 -24 19 3 11 10 17 15 14 17 -11
28 18 28 76 1 30 7 108 14 173 6 64 11 117 10 117 -1 0 -11 -19 -22 -42z"/>
<path d="M5064 5208 c-11 -21 -15 -48 -12 -84 8 -97 84 -160 163 -134 43 14
45 29 5 37 -26 5 -30 10 -30 38 0 34 -6 38 -79 51 -14 3 -28 7 -33 10 -11 7
-10 72 2 95 6 10 8 19 6 19 -3 0 -13 -14 -22 -32z"/>
<path d="M8879 4458 c0 -2 -2 -88 -4 -193 -2 -104 -8 -210 -14 -235 -19 -77
-24 -315 -12 -560 14 -291 19 -345 37 -395 8 -22 15 -42 16 -45 1 -3 -2 -21
-6 -41 -17 -79 49 -321 104 -387 17 -20 40 -47 50 -59 28 -34 57 -29 74 12 14
32 46 49 46 25 0 -13 37 -50 50 -50 7 0 8 18 4 49 -6 48 -5 50 25 66 l32 16
-21 32 c-54 81 -130 308 -130 388 0 14 -4 39 -10 55 -23 72 -59 694 -61 1057
0 143 -3 169 -16 174 -9 3 -23 1 -32 -5 -30 -22 -43 -25 -52 -11 -5 8 -9 10
-9 5 0 -6 -9 0 -20 12 -12 13 -20 35 -20 57 0 24 -4 35 -15 35 -8 0 -15 -1
-16 -2z"/>
<path d="M11238 4522 c-24 -5 -23 -24 2 -40 11 -7 20 -19 20 -27 0 -8 5 -15
10 -15 6 0 10 -5 10 -11 0 -16 -26 -39 -44 -39 -21 0 -20 -29 1 -52 19 -21 23
-35 26 -87 2 -28 6 -34 28 -37 14 -1 39 -15 55 -31 40 -37 128 -100 152 -107
33 -11 56 58 50 146 -3 40 -2 84 2 98 4 15 2 36 -7 52 -7 15 -13 37 -12 50 0
13 -3 42 -7 66 -6 37 -10 42 -33 42 -53 0 -101 -20 -115 -49 -18 -34 -6 -51
35 -51 35 0 56 -24 39 -45 -18 -21 -43 -19 -72 8 -14 13 -29 22 -34 20 -5 -2
-17 11 -26 27 -9 17 -13 30 -7 30 5 0 2 8 -8 18 -30 29 -47 39 -65 34z"/>
<path d="M12637 4023 c2 -13 -1 -23 -7 -23 -6 0 -9 -4 -6 -9 4 -5 1 -11 -4
-13 -6 -2 -13 -21 -16 -42 -2 -21 -8 -46 -13 -55 -5 -9 -6 -62 -3 -118 6 -86
11 -105 30 -126 23 -24 29 -40 32 -92 4 -60 0 -86 -12 -79 -8 5 -9 2 -5 -9 4
-10 2 -17 -5 -17 -7 0 -8 -14 -4 -39 4 -29 2 -42 -11 -52 -60 -50 -49 -175 24
-284 37 -56 39 -66 18 -125 -33 -93 -15 -567 28 -740 2 -8 7 -28 11 -45 24
-102 39 -137 70 -160 36 -27 103 -34 124 -13 19 19 14 70 -13 142 -37 99 -65
273 -63 391 2 55 -1 172 -5 260 l-8 160 -29 28 c-36 34 -36 37 -8 87 21 36 21
41 9 91 -14 53 -35 108 -72 185 -13 28 -18 58 -16 90 2 46 5 50 44 69 40 20
93 88 93 120 0 8 -11 47 -24 88 -13 40 -32 122 -41 182 -18 116 -38 152 -77
142 -10 -3 -18 -1 -18 5 0 5 -4 7 -9 3 -5 -3 -11 0 -14 7 -2 7 -2 3 0 -9z"/>
<path d="M5954 9815 c-3 -8 -1 -45 6 -83 8 -49 8 -86 1 -132 -6 -36 -11 -95
-11 -132 0 -65 1 -68 24 -68 19 0 26 7 31 28 12 58 21 168 14 198 -3 17 -5 70
-4 117 l2 87 -29 0 c-16 0 -31 -6 -34 -15z"/>
<path d="M6426 9821 c-10 -16 6 -41 26 -41 11 0 18 -5 15 -12 -2 -7 -11 -12
-20 -10 -12 2 -15 -5 -14 -31 1 -19 8 -42 16 -50 19 -24 5 -114 -20 -128 -12
-6 -19 -20 -19 -41 0 -23 3 -28 13 -20 15 12 85 28 75 17 -4 -5 -2 -15 4 -23
19 -22 -17 -44 -59 -36 -31 6 -33 4 -33 -20 0 -15 7 -37 15 -49 20 -31 9 -92
-21 -116 -22 -17 -32 -59 -18 -73 3 -4 21 0 39 8 43 18 42 18 48 -6 6 -23 -18
-40 -56 -40 -30 0 -41 -30 -20 -59 12 -18 12 -41 -2 -184 -8 -89 -20 -187 -26
-217 -6 -30 -12 -77 -14 -104 -2 -27 -6 -69 -10 -92 -5 -35 -3 -43 8 -38 10 3
15 25 16 71 2 74 18 106 62 125 25 11 29 19 29 50 0 21 9 84 21 140 11 57 27
135 35 173 18 91 66 235 78 235 10 0 1 -193 -14 -300 -5 -36 -11 -99 -14 -141
-3 -53 -11 -86 -25 -110 -27 -44 -26 -60 3 -88 27 -26 33 -21 45 41 5 24 21
84 36 133 14 50 30 101 33 115 10 33 57 41 67 11 3 -12 3 -31 -1 -43 -6 -21
13 -590 22 -636 7 -34 29 -37 67 -8 19 14 45 26 58 26 13 0 29 4 35 8 11 7 23
312 30 747 3 216 9 276 30 318 17 31 32 174 41 380 l5 127 -290 0 c-164 0
-293 -4 -296 -9z"/>
<path d="M0 9470 c0 -154 2 -280 4 -280 14 0 27 51 45 181 29 212 35 305 21
314 -8 5 -6 13 6 27 18 19 17 19 -10 9 -37 -15 -46 -14 -46 3 0 8 -4 17 -10
21 -5 3 -9 -100 -10 -275z"/>
<path d="M7804 4936 c4 -20 3 -36 -2 -36 -5 0 -12 -14 -16 -31 -7 -34 2 -81
14 -74 4 2 15 -4 25 -15 15 -16 15 -22 5 -35 -7 -8 -9 -15 -4 -15 12 0 39 -62
54 -122 7 -26 23 -62 36 -80 13 -17 24 -45 24 -60 0 -15 4 -28 8 -28 4 0 6 15
4 34 -2 21 3 44 13 59 16 25 15 27 -9 64 -29 41 -32 63 -14 81 9 9 2 35 -36
115 -27 56 -56 117 -65 136 -23 50 -46 54 -37 7z"/>
<path d="M14910 3513 c0 -24 26 -96 55 -158 13 -27 32 -92 41 -142 12 -65 21
-93 31 -93 7 0 16 8 20 18 11 30 40 51 88 64 46 12 47 13 40 48 -3 19 -6 46
-6 60 -1 30 -28 63 -46 56 -15 -6 -83 50 -83 68 -1 22 -51 67 -91 81 -51 18
-49 19 -49 -2z"/>
<path d="M1848 429 c-54 -30 -13 -175 54 -192 43 -12 62 104 26 152 -25 32
-61 51 -80 40z"/>
</g>
</svg>
